<svg width="73" height="56" viewBox="0 0 73 56" fill="none" xmlns="http://www.w3.org/2000/svg">
<path opacity="0.1" d="M61.5692 26.5538C64.9555 60.2009 47.7865 55.8121 30.7846 55.8121C13.7827 55.8121 0 42.7127 0 26.5538C0 10.3949 13.7827 0.806568 30.7846 0.806568C47.7865 0.806568 58.1829 -7.09328 61.5692 26.5538Z" fill="#F1962F"/>
<path d="M46.5938 6.08789C45.793 6.20508 45.4805 6.9082 45.9981 7.41602C46.2325 7.66016 46.2618 7.66016 47.9512 7.66016C49.6407 7.66016 49.67 7.66016 49.9044 7.41602C50.2169 7.11328 50.2169 6.68359 49.9239 6.33203C49.6993 6.07812 49.67 6.07812 48.3809 6.03906C47.668 6.0293 46.8575 6.04883 46.5938 6.08789Z" fill="#F1962F"/>
<path d="M42.6289 6.59566C40.9687 6.97651 40.5391 7.14253 40.3535 7.4648C40.0019 8.05073 40.4805 8.7148 41.1836 8.60737C41.3594 8.58784 42.1016 8.42183 42.8242 8.25581C43.8789 8.00191 44.1816 7.89448 44.3672 7.69917C44.6601 7.36714 44.6406 7.01558 44.2988 6.67378C43.957 6.34175 43.791 6.33198 42.6289 6.59566Z" fill="#F1962F"/>
<path d="M51.7012 6.57617C51.1543 7.00586 51.3105 7.76758 51.9844 7.94336C52.9805 8.2168 54.8262 8.63672 54.9922 8.63672C55.4512 8.63672 55.832 7.95312 55.6367 7.51367C55.4902 7.19141 55.168 7.04492 53.918 6.74219C52.3652 6.35156 52.0137 6.32227 51.7012 6.57617Z" fill="#F1962F"/>
<path d="M57.1699 8.09961C56.8183 8.29492 56.6816 8.71484 56.8379 9.0957C56.9453 9.33984 57.1992 9.51562 58.459 10.1406C59.2793 10.5508 60.0215 10.8828 60.1191 10.8828C60.3828 10.8828 60.7832 10.4824 60.8515 10.1504C60.9394 9.67188 60.6269 9.39844 59.2012 8.69531C57.7168 7.96289 57.5215 7.9043 57.1699 8.09961Z" fill="#F1962F"/>
<path d="M36.8965 8.63672C35.3828 9.37891 35.1094 9.60352 35.1094 10.1016C35.1094 10.3945 35.168 10.5215 35.3633 10.6777C35.5098 10.7949 35.7148 10.8828 35.832 10.8828C35.9395 10.8828 36.7012 10.5508 37.5215 10.1406C39.1719 9.31055 39.3574 9.125 39.1133 8.53906C38.8398 7.875 38.3906 7.89453 36.8965 8.63672Z" fill="#F1962F"/>
<path d="M28.7129 9.36935C27.6484 9.65256 26.5449 10.5412 26.0761 11.469C25.5976 12.4162 25.4121 13.6174 25.6367 14.3791C25.7246 14.6916 25.6953 14.7307 25.207 15.219C24.582 15.844 24.0742 16.6643 23.7714 17.5236C23.5761 18.0705 23.5468 18.4026 23.5078 19.8576C23.4785 20.9514 23.5078 21.6936 23.5761 21.9279C23.7129 22.3674 24.2304 22.8459 24.7285 22.9826C25.2265 23.1291 34.5332 23.1291 35.0312 22.9924C35.5 22.8557 35.9785 22.4553 36.1445 22.0451C36.3496 21.5764 36.33 18.7639 36.125 17.9729C35.9296 17.2209 35.7636 17.0354 35.3046 17.0354C34.7773 17.0354 34.582 17.2893 34.6601 17.885C34.6992 18.1389 34.748 19.0471 34.7773 19.9065C34.8261 21.1369 34.8066 21.469 34.6992 21.5373C34.5527 21.635 25.3437 21.6545 25.1093 21.5666C24.8847 21.4787 24.8847 18.9592 25.1093 18.1975C25.3046 17.5334 25.7246 16.7815 26.1152 16.4104L26.4082 16.1272L26.8769 16.5861C27.7949 17.4944 29.0937 17.924 30.3828 17.7385C33.8691 17.2502 35.3535 13.0412 32.9121 10.5412C32.6484 10.2678 32.2187 9.92599 31.9648 9.77951C31.0566 9.25216 29.748 9.08615 28.7129 9.36935ZM30.8613 10.8928C31.5644 11.1565 32.1992 11.7912 32.4629 12.4944C32.8535 13.5393 32.6679 14.5451 31.9257 15.3654C30.5781 16.8694 28.2343 16.5276 27.2773 14.6916C26.9746 14.0959 26.9648 12.9924 27.2578 12.3479C27.8828 11.0002 29.455 10.3654 30.8613 10.8928Z" fill="#F1962F"/>
<path d="M64.914 9.37912C63.8789 9.65256 62.8535 10.4631 62.3164 11.4201C61.8476 12.2697 61.6425 13.6076 61.8671 14.3889C61.955 14.6916 61.9355 14.7307 61.4765 15.1799C60.8906 15.7561 60.373 16.5569 60.041 17.4065C59.8066 18.0022 59.7773 18.217 59.7382 19.8088C59.7089 20.9514 59.7382 21.6838 59.8066 21.9279C59.9433 22.3674 60.4609 22.8459 60.9589 22.9826C61.457 23.1291 70.7636 23.1291 71.2617 22.9924C71.7304 22.8557 72.209 22.4553 72.375 22.0451C72.5605 21.6057 72.5605 18.7346 72.375 18.0315C72.1601 17.2404 71.9941 17.0354 71.5449 17.0354C71.0078 17.0354 70.8125 17.2795 70.8906 17.885C70.9297 18.1389 70.9785 19.0471 71.0078 19.9065C71.0566 21.1369 71.0371 21.469 70.9297 21.5373C70.7832 21.635 61.5742 21.6545 61.3398 21.5666C61.1152 21.4787 61.1152 18.9592 61.3398 18.1975C61.5351 17.5432 61.955 16.7815 62.3359 16.4201L62.6289 16.1369L63.0781 16.5862C63.625 17.1135 64.5332 17.5822 65.3144 17.7287C67.0722 18.0803 69.0742 17.0647 69.8847 15.424C71.5156 12.1037 68.4785 8.41232 64.914 9.37912ZM67.082 10.883C67.7168 11.1272 68.3515 11.7229 68.6445 12.3479C68.9375 12.9924 68.9277 14.0959 68.625 14.6916C67.5117 16.8303 64.6211 16.8498 63.5273 14.7209C63.2343 14.1447 63.166 13.2756 63.3711 12.6799C63.9179 11.0783 65.5195 10.2971 67.082 10.883Z" fill="#F1962F"/>
<path d="M45.9004 23.0313C43.9864 23.3926 42.2676 24.6035 41.2617 26.3028C40.8906 26.9278 40.4805 28.0215 40.4805 28.3731C40.4805 28.5098 40.3731 28.5586 40.0215 28.5977C38.2832 28.8028 37.3555 29.2227 36.3301 30.2481C34.5528 32.0254 34.1426 34.6524 35.2754 36.9082C35.7051 37.7383 36.5352 38.666 37.2285 39.0762C37.502 39.2325 37.7852 39.5254 38 39.8672C38.7129 40.9805 39.9434 42.0157 41.2129 42.5723C42.4824 43.1387 43.0196 42.6602 42.541 41.4004C42.4434 41.127 42.3262 40.7071 42.2871 40.4629L42.2188 40.0039L44.7481 39.9649C47.043 39.9258 47.3262 39.8965 47.9024 39.7012C49.2598 39.2325 50.3535 38.3438 51.0371 37.1621L51.3692 36.5762L51.9453 36.5664H52.5215L52.4629 37.1426C52.4239 37.4551 52.2676 38.0801 52.1016 38.5293C51.9453 38.9785 51.8086 39.3985 51.8086 39.4668C51.8086 39.7012 52.2774 40.0821 52.5508 40.0821C52.8926 40.0821 54.2793 39.418 55.1485 38.8418C56.0957 38.2071 57.17 37.1328 57.5215 36.4493C57.7657 35.9903 57.9024 35.8438 58.4297 35.541C59.25 35.0723 60.2754 34.0469 60.7735 33.1973C62.375 30.4629 61.9551 27.1621 59.7285 24.9356C58.8985 24.1153 58.0489 23.5879 56.9063 23.1973L56.1543 22.9434L51.3692 22.9239C47.7754 22.9141 46.418 22.9336 45.9004 23.0313ZM55.9297 24.5059C56.3008 24.584 56.8867 24.7793 57.2481 24.9551C58.1367 25.375 59.2696 26.4981 59.6992 27.3868C61.0176 30.0821 59.9434 33.168 57.1992 34.5547C56.75 34.7793 56.6524 34.8868 56.3789 35.4629C56.0176 36.2051 55.334 36.9375 54.4453 37.543L53.8594 37.9434L53.918 37.2793C54.0352 36.0879 54.0059 35.6094 53.8008 35.3457C53.6641 35.1602 53.5078 35.1504 49.9727 35.0918C46.5645 35.0332 46.2422 35.0137 45.6074 34.8184C44.8946 34.6035 44.6016 34.6133 44.3477 34.8672C44.1231 35.0918 44.1524 35.6387 44.3965 35.8731C44.7969 36.2442 46.0469 36.4883 47.9512 36.5567L49.709 36.6153L49.1817 37.1817C48.586 37.8067 47.7657 38.2657 46.9356 38.4219C46.6524 38.4707 45.2461 38.5196 43.8203 38.5196C41.291 38.5196 41.2227 38.5293 40.9981 38.7344C40.8028 38.92 40.7735 39.0371 40.7735 39.7598C40.7735 40.2871 40.7344 40.5703 40.666 40.5703C40.4512 40.5703 39.3574 39.3399 39.1231 38.8418C38.9375 38.4317 38.8008 38.295 38.3125 38.0215C37.209 37.4063 36.4278 36.3028 36.1836 35.0332C35.959 33.9004 36.3399 32.4746 37.1114 31.5274C37.7656 30.7364 38.9766 30.1211 39.8946 30.1211H40.3535L40.4121 30.6094C40.5 31.3516 40.7735 32.2305 40.9883 32.4551C41.2617 32.7578 41.7793 32.7285 42.043 32.3965C42.2676 32.1133 42.2676 32.084 42.0039 31.1465C41.7696 30.3067 41.7793 28.9688 42.0332 28.1582C42.5801 26.4297 44.2598 24.8965 46.0664 24.5059C46.9746 24.3106 55.0117 24.3106 55.9297 24.5059Z" fill="#F1962F"/>
<path d="M71.1934 24.6719C70.7539 24.9258 70.6563 25.3457 70.8516 26.166C70.9102 26.3809 71.0176 26.9961 71.0957 27.5332C71.2227 28.3535 71.2813 28.5488 71.4961 28.7246C71.8282 29.0274 72.2578 29.0176 72.5801 28.6953C72.8145 28.461 72.8242 28.4024 72.7754 27.8067C72.7364 27.4551 72.6192 26.6836 72.502 26.0977C72.3164 25.1699 72.2481 25.0039 72.0039 24.7988C71.6914 24.5352 71.4961 24.5059 71.1934 24.6719Z" fill="#F1962F"/>
<path d="M24.1035 24.7501C23.9863 24.7989 23.8398 24.9258 23.791 25.0333C23.6347 25.3165 23.2929 27.0157 23.2246 27.8458C23.1757 28.5001 23.1855 28.5586 23.4199 28.793C23.8007 29.1739 24.416 29.1055 24.6503 28.6661C24.7089 28.5684 24.7968 28.1876 24.8554 27.8165C24.9042 27.4454 25.0312 26.7715 25.1191 26.3126C25.3046 25.3262 25.2558 25.004 24.8554 24.7989C24.5331 24.6329 24.416 24.6231 24.1035 24.7501Z" fill="#F1962F"/>
<path d="M71.8477 30.2774C71.4473 30.4434 71.3692 30.7657 71.2911 32.5821L71.2325 34.1251L71.4766 34.3692C71.7696 34.6622 72.1993 34.6915 72.502 34.4376C72.795 34.213 72.8829 33.7247 72.961 32.1231C73.0196 30.8341 73.0098 30.7462 72.8145 30.502C72.5704 30.1895 72.2383 30.1114 71.8477 30.2774Z" fill="#F1962F"/>
<path d="M23.293 30.4922C23.0195 30.7656 23 30.8438 23 31.4688C23 31.8496 23.0488 32.6016 23.1074 33.1582C23.2246 34.3887 23.3906 34.6426 24.0156 34.5938C24.2891 34.5742 24.4453 34.4961 24.5918 34.3106C24.7676 34.0664 24.7773 33.9688 24.6895 32.377C24.582 30.5215 24.5332 30.3848 23.9082 30.2578C23.6445 30.209 23.5469 30.2481 23.293 30.4922Z" fill="#F1962F"/>
<path d="M24.1231 35.9023C23.5176 36.2539 23.5371 36.5859 24.2891 38.8906C24.4746 39.4668 24.6504 39.8379 24.7871 39.9355C25.0899 40.1406 25.5977 40.1211 25.8321 39.8867C26.1446 39.5742 26.125 39.3008 25.7344 38.0801C25.5782 37.5918 25.3926 36.957 25.3047 36.664C25.1973 36.2539 25.0899 36.0879 24.8653 35.9512C24.5332 35.7558 24.3965 35.7461 24.1231 35.9023Z" fill="#F1962F"/>
<path d="M71.1445 35.9121C70.8906 36.0391 70.8613 36.1074 70.3242 37.8457C69.8945 39.2422 69.875 39.6035 70.2266 39.877C70.373 39.9941 70.6074 40.082 70.7441 40.082C71.2129 40.082 71.4082 39.8379 71.7109 38.8906C72.4043 36.7715 72.4531 36.4004 72.0723 36.0293C71.8086 35.7656 71.5156 35.7266 71.1445 35.9121Z" fill="#F1962F"/>
<path d="M28.4102 39.2423C26.4766 39.9552 25.2754 41.9571 25.6074 43.9102L25.7051 44.5255L25.3828 44.7989C24.875 45.2286 24.1816 46.2638 23.8398 47.0938L23.5371 47.8458V49.8087V51.7618L23.8105 52.1231C24.3672 52.8556 24.1035 52.8263 29.8848 52.8263C35.666 52.8263 35.4023 52.8556 35.959 52.1231C36.2324 51.7716 36.2324 51.752 36.2617 50.1114C36.3008 48.295 36.1445 47.2892 35.7832 46.9571C35.5391 46.7325 35.0703 46.7423 34.8066 46.9767C34.6309 47.1329 34.6113 47.2306 34.6699 47.6505C34.6992 47.9141 34.748 48.8321 34.7773 49.6915C34.8262 50.922 34.8066 51.254 34.6992 51.3224C34.5527 51.42 25.3437 51.4395 25.1094 51.3516C24.8555 51.254 24.8848 48.7149 25.1484 47.8849C25.3437 47.2403 26.0469 46.0587 26.291 45.9708C26.3691 45.9415 26.6426 46.127 26.9453 46.4102C28.0879 47.4942 29.5234 47.8165 31.125 47.3575C32.0918 47.0743 33.1758 46.1759 33.6348 45.2774C34.5918 43.3927 34.084 41.1466 32.4043 39.877C31.2617 39.0079 29.6992 38.7638 28.4102 39.2423ZM31.0957 40.7755C33.7422 42.0938 32.7949 46.0684 29.8359 46.0684C28.7227 46.0684 27.834 45.5216 27.3262 44.5255C26.1055 42.1427 28.6836 39.5743 31.0957 40.7755Z" fill="#F1962F"/>
<path d="M64.6211 39.252C63.3027 39.7306 62.2188 40.9415 61.9258 42.2403C61.75 43.002 61.7305 43.6954 61.8672 44.1739C61.9551 44.4962 61.9355 44.5255 61.5742 44.838C61.0371 45.297 60.2754 46.4884 60.002 47.2794C59.7871 47.8849 59.7676 48.0997 59.7676 49.8575V51.7716L60.041 52.1231C60.5977 52.8556 60.334 52.8263 66.1152 52.8263C71.8965 52.8263 71.6328 52.8556 72.1895 52.1231C72.4629 51.7716 72.4629 51.752 72.4922 50.1114C72.5313 48.295 72.375 47.2891 72.0137 46.9571C71.7695 46.7325 71.3008 46.7423 71.0371 46.9766C70.8613 47.1329 70.8418 47.2306 70.9004 47.6505C70.9297 47.9141 70.9785 48.8321 71.0078 49.6915C71.0566 50.922 71.0371 51.254 70.9297 51.3224C70.8613 51.3712 68.6934 51.4102 66.1152 51.4102C63.5371 51.4102 61.3691 51.3712 61.3008 51.3224C61.1934 51.2638 61.1738 50.9122 61.2031 49.6915C61.252 47.8946 61.3789 47.4356 62.1211 46.42L62.5605 45.8243L63.1367 46.3809C64.8848 48.0411 67.5117 47.9532 69.1816 46.1856C71.3008 43.9493 70.4023 40.297 67.4629 39.2325C66.6035 38.92 65.4805 38.9298 64.6211 39.252ZM67.209 40.7071C68.6836 41.4005 69.2988 43.1192 68.5762 44.5255C68.0684 45.5216 67.1797 46.0684 66.0664 46.0684C64.5723 46.0684 63.4004 44.9942 63.2637 43.5196C63.0684 41.4102 65.3047 39.8185 67.209 40.7071Z" fill="#F1962F"/>
<path d="M38.2832 52.4649C37.7168 52.582 37.4531 53.3047 37.8242 53.7344C38.0683 54.0273 40.666 55.0137 41.1933 55.0234C41.4961 55.0234 41.8476 54.584 41.8476 54.1934C41.8476 53.7148 41.623 53.5391 40.6172 53.1875C40.1387 53.0313 39.4648 52.7871 39.1133 52.6602C38.7617 52.5234 38.3906 52.4356 38.2832 52.4649Z" fill="#F1962F"/>
<path d="M56.7891 52.6797C56.3887 52.8457 55.7148 53.0898 55.3047 53.2266C54.4746 53.5 54.1523 53.7832 54.1523 54.2422C54.1523 54.5254 54.6211 55.0234 54.8848 55.0234C54.9531 55.0234 55.5098 54.8477 56.1152 54.6426C58.1758 53.9297 58.3516 53.8125 58.3516 53.1777C58.3516 52.8945 58.0684 52.4844 57.873 52.4844C57.8242 52.4844 57.7266 52.4648 57.6484 52.4355C57.5801 52.416 57.1895 52.5234 56.7891 52.6797Z" fill="#F1962F"/>
<path d="M43.2735 54.2716C42.9512 54.5938 42.9415 55.0235 43.2442 55.3555C43.42 55.5606 43.6153 55.629 44.3868 55.7559C44.8946 55.8341 45.6758 55.9122 46.125 55.9219C46.9161 55.9512 46.9454 55.9415 47.1797 55.6778C47.4727 55.336 47.4825 55.0137 47.1797 54.6719C46.9747 54.418 46.8575 54.3887 45.8418 54.2813C45.2266 54.213 44.4551 54.1251 44.1231 54.086C43.5665 54.0274 43.5079 54.0372 43.2735 54.2716Z" fill="#F1962F"/>
<path d="M51.6133 54.1057C51.5352 54.1252 50.9199 54.2033 50.2656 54.2815C49.2793 54.3889 49.0156 54.4475 48.8496 54.6135C48.5664 54.8967 48.5762 55.4436 48.8594 55.7365C49.0547 55.9221 49.1621 55.9514 49.8359 55.9221C51.1543 55.883 52.502 55.6389 52.7559 55.3947C53.2734 54.9065 52.8731 54.0373 52.1309 54.0568C51.9258 54.0666 51.6914 54.0861 51.6133 54.1057Z" fill="#F1962F"/>
</svg>
