<svg width="95" height="84" viewBox="0 0 95 84" fill="none" xmlns="http://www.w3.org/2000/svg">
<g clip-path="url(#clip0_516_394)">
<path d="M68.3557 75.4064H21.7536C20.1733 75.4046 18.6582 74.7805 17.5407 73.6709C16.4233 72.5613 15.7947 71.0569 15.7929 69.4877V15.1428C15.7947 13.5735 16.4233 12.0691 17.5407 10.9595C18.6582 9.84993 20.1733 9.22577 21.7536 9.224H65.1093L74.3165 16.511V69.4877C74.3147 71.0569 73.6861 72.5613 72.5687 73.6709C71.4512 74.7805 69.9361 75.4046 68.3557 75.4064Z" fill="#E6E6E6"/>
<path d="M21.7536 10.9279C20.6282 10.9291 19.5493 11.3736 18.7535 12.1638C17.9578 12.954 17.5101 14.0253 17.5089 15.1428V69.4877C17.5101 70.6051 17.9578 71.6765 18.7535 72.4666C19.5493 73.2568 20.6282 73.7013 21.7536 73.7025H68.3557C69.4811 73.7013 70.5601 73.2568 71.3558 72.4666C72.1516 71.6765 72.5992 70.6051 72.6005 69.4877V17.3319L64.509 10.9279H21.7536Z" fill="white"/>
<path d="M58.6323 26.7299H27.3824C27.252 26.7301 27.1228 26.7047 27.0022 26.6552C26.8817 26.6058 26.7721 26.5332 26.6798 26.4416C26.5876 26.3501 26.5143 26.2414 26.4644 26.1217C26.4144 26.0021 26.3887 25.8738 26.3887 25.7443C26.3887 25.6148 26.4144 25.4865 26.4644 25.3669C26.5143 25.2472 26.5876 25.1385 26.6798 25.047C26.7721 24.9554 26.8817 24.8828 27.0022 24.8334C27.1228 24.7839 27.252 24.7585 27.3824 24.7587H58.6323C58.8956 24.7587 59.1481 24.8625 59.3342 25.0474C59.5204 25.2322 59.625 25.4829 59.625 25.7443C59.625 26.0057 59.5204 26.2564 59.3342 26.4413C59.1481 26.6261 58.8956 26.7299 58.6323 26.7299Z" fill="#CCCCCC"/>
<path d="M62.7269 30.0564H27.3825C27.2521 30.0564 27.123 30.0309 27.0026 29.9814C26.8822 29.9318 26.7727 29.8592 26.6806 29.7677C26.5884 29.6762 26.5153 29.5675 26.4654 29.448C26.4155 29.3284 26.3898 29.2002 26.3898 29.0708C26.3898 28.9413 26.4155 28.8132 26.4654 28.6936C26.5153 28.574 26.5884 28.4654 26.6806 28.3738C26.7727 28.2823 26.8822 28.2097 27.0026 28.1602C27.123 28.1106 27.2521 28.0851 27.3825 28.0851H62.7269C62.8573 28.0851 62.9863 28.1106 63.1068 28.1602C63.2272 28.2097 63.3366 28.2823 63.4288 28.3738C63.521 28.4654 63.5941 28.574 63.644 28.6936C63.6938 28.8132 63.7195 28.9413 63.7195 29.0708C63.7195 29.2002 63.6938 29.3284 63.644 29.448C63.5941 29.5675 63.521 29.6762 63.4288 29.7677C63.3366 29.8592 63.2272 29.9318 63.1068 29.9814C62.9863 30.0309 62.8573 30.0564 62.7269 30.0564Z" fill="#CCCCCC"/>
<path d="M58.6323 41.6376H27.3824C27.252 41.6378 27.1228 41.6124 27.0022 41.5629C26.8817 41.5134 26.7721 41.4409 26.6798 41.3493C26.5876 41.2578 26.5143 41.1491 26.4644 41.0294C26.4144 40.9098 26.3887 40.7815 26.3887 40.652C26.3887 40.5225 26.4144 40.3942 26.4644 40.2745C26.5143 40.1549 26.5876 40.0462 26.6798 39.9546C26.7721 39.8631 26.8817 39.7905 27.0022 39.7411C27.1228 39.6916 27.252 39.6662 27.3824 39.6664H58.6323C58.8956 39.6664 59.1481 39.7702 59.3342 39.955C59.5204 40.1399 59.625 40.3906 59.625 40.652C59.625 40.9134 59.5204 41.1641 59.3342 41.3489C59.1481 41.5338 58.8956 41.6376 58.6323 41.6376Z" fill="#08BEAB"/>
<path d="M62.7269 44.9641H27.3825C27.2521 44.9641 27.123 44.9386 27.0026 44.8891C26.8822 44.8395 26.7727 44.7669 26.6806 44.6754C26.5884 44.5839 26.5153 44.4752 26.4654 44.3556C26.4155 44.2361 26.3898 44.1079 26.3898 43.9785C26.3898 43.849 26.4155 43.7209 26.4654 43.6013C26.5153 43.4817 26.5884 43.373 26.6806 43.2815C26.7727 43.19 26.8822 43.1174 27.0026 43.0679C27.123 43.0183 27.2521 42.9928 27.3825 42.9928H62.7269C62.8573 42.9928 62.9863 43.0183 63.1068 43.0679C63.2272 43.1174 63.3366 43.19 63.4288 43.2815C63.521 43.373 63.5941 43.4817 63.644 43.6013C63.6938 43.7209 63.7195 43.849 63.7195 43.9785C63.7195 44.1079 63.6938 44.2361 63.644 44.3556C63.5941 44.4752 63.521 44.5839 63.4288 44.6754C63.3366 44.7669 63.2272 44.8395 63.1068 44.8891C62.9863 44.9386 62.8573 44.9641 62.7269 44.9641Z" fill="#CCCCCC"/>
<path d="M58.6324 56.5452H27.3825C27.1192 56.5452 26.8667 56.4414 26.6806 56.2566C26.4944 56.0717 26.3898 55.821 26.3898 55.5596C26.3898 55.2982 26.4944 55.0475 26.6806 54.8627C26.8667 54.6778 27.1192 54.574 27.3825 54.574H58.6324C58.8956 54.574 59.1481 54.6778 59.3342 54.8627C59.5204 55.0475 59.625 55.2982 59.625 55.5596C59.625 55.821 59.5204 56.0717 59.3342 56.2566C59.1481 56.4414 58.8956 56.5452 58.6324 56.5452Z" fill="#CCCCCC"/>
<path d="M62.7269 59.8717H27.3824C27.252 59.8719 27.1228 59.8465 27.0022 59.797C26.8817 59.7476 26.7721 59.675 26.6798 59.5834C26.5876 59.4919 26.5143 59.3832 26.4644 59.2635C26.4144 59.1439 26.3887 59.0156 26.3887 58.8861C26.3887 58.7566 26.4144 58.6283 26.4644 58.5087C26.5143 58.389 26.5876 58.2803 26.6798 58.1888C26.7721 58.0972 26.8817 58.0247 27.0022 57.9752C27.1228 57.9257 27.252 57.9003 27.3824 57.9005H62.7269C62.9902 57.9005 63.2426 58.0043 63.4288 58.1892C63.6149 58.374 63.7195 58.6247 63.7195 58.8861C63.7195 59.1475 63.6149 59.3982 63.4288 59.5831C63.2426 59.7679 62.9902 59.8717 62.7269 59.8717Z" fill="#CCCCCC"/>
<path d="M74.1373 16.7456H66.925C66.6643 16.7456 66.4061 16.6946 66.1652 16.5955C65.9244 16.4965 65.7055 16.3513 65.5212 16.1682C65.3368 15.9852 65.1906 15.7679 65.0908 15.5287C64.9911 15.2895 64.9397 15.0332 64.9397 14.7743V9.48493C64.9397 9.46177 64.9463 9.43908 64.9587 9.41946C64.9711 9.39985 64.9888 9.38409 65.0098 9.37401C65.0308 9.36393 65.0542 9.35993 65.0774 9.36247C65.1006 9.365 65.1226 9.37398 65.1408 9.38836L74.2143 16.5258C74.2345 16.5417 74.2492 16.5634 74.2564 16.588C74.2636 16.6125 74.2629 16.6387 74.2544 16.6629C74.246 16.687 74.2301 16.708 74.2091 16.7228C74.1882 16.7376 74.163 16.7456 74.1373 16.7456Z" fill="#E6E6E6"/>
<path d="M28.8592 13.8975C28.8592 16.5732 28.0601 19.1888 26.5631 21.4136C25.066 23.6383 22.9381 25.3723 20.4486 26.3963C17.959 27.4202 15.2196 27.6881 12.5767 27.1661C9.93378 26.6441 7.50613 25.3556 5.6007 23.4636C3.69528 21.5716 2.39767 19.1611 1.87197 16.5368C1.34626 13.9125 1.61607 11.1924 2.64728 8.72036C3.67849 6.24834 5.42477 4.13547 7.66531 2.64893C9.90585 1.16239 12.54 0.368958 15.2347 0.368958C18.8478 0.37009 22.3126 1.79578 24.8674 4.33263C27.4223 6.86948 28.8581 10.3099 28.8592 13.8975Z" fill="white"/>
<path d="M21.5317 16.2124C21.3829 24.8646 8.42156 24.8633 8.27402 16.2121C8.42282 7.56016 21.3841 7.56152 21.5317 16.2124Z" fill="#08BEAB"/>
<path d="M14.6397 18.8979L14.6328 18.6519C16.3402 18.8783 16.7079 16.7772 14.986 17.5627L15.3791 14.7106L15.6245 14.744L15.2902 17.1701C17.1031 16.9021 16.4325 19.1437 14.6397 18.8979Z" fill="#2F2E41"/>
<path d="M18.1724 14.9532H16.8382V15.1992H18.1724V14.9532Z" fill="#2F2E41"/>
<path d="M13.9612 14.9532H12.627V15.1992H13.9612V14.9532Z" fill="#2F2E41"/>
<path d="M17.0517 25.4152C17.3118 23.6725 15.257 24.0169 14.1695 23.9997C13.9942 24.0002 13.8211 24.0396 13.6631 24.1149C13.505 24.1902 13.3658 24.2996 13.2557 24.4351C13.1456 24.5706 13.0673 24.7288 13.0265 24.8981C12.9858 25.0675 12.9836 25.2437 13.0201 25.414C12.1784 25.6724 11.3989 26.0993 10.7299 26.6685C13.5493 27.6447 16.6129 27.6783 19.4533 26.7644C18.7609 26.1469 17.9414 25.6866 17.0517 25.4152Z" fill="#2F2E41"/>
<path d="M11.7864 13.0992C13.0148 12.3942 14.5046 12.9351 15.7736 13.2308C18.1812 13.9657 21.5574 13.0454 21.8502 10.1976C22.1549 7.54909 18.5061 6.07298 17.3399 8.70901L17.6795 8.66494C13.8972 3.08354 7.31807 3.29521 7.36133 10.9687C7.34731 11.2057 7.71894 11.2049 7.73284 10.9685C7.59359 6.44668 10.6074 3.35568 14.8678 6.26161C15.8427 6.96797 16.6317 7.90352 17.3586 8.85116C17.8023 9.34489 17.8987 7.21859 20.0223 7.77552C22.3594 8.67455 21.5968 11.9975 19.5079 12.7269C16.9268 14.0363 14.1315 11.4976 11.5988 12.7804C11.558 12.806 11.5288 12.8463 11.5174 12.8928C11.506 12.9393 11.5132 12.9884 11.5375 13.0298C11.5618 13.0711 11.6014 13.1015 11.6478 13.1144C11.6942 13.1274 11.7439 13.1219 11.7864 13.0992V13.0992Z" fill="#2F2E41"/>
<path d="M15.2347 27.795C11.7163 27.7921 8.32826 26.4723 5.74636 24.099C3.16446 21.7256 1.57843 18.4731 1.30457 14.9901C1.03071 11.507 2.08915 8.04947 4.26881 5.30698C6.44846 2.56449 9.58914 0.73861 13.0645 0.193493C16.5398 -0.351625 20.0943 0.424083 23.0192 2.36591C25.9441 4.30774 28.0243 7.27297 28.845 10.6702C29.6657 14.0675 29.1666 17.6471 27.4472 20.6951C25.7277 23.7432 22.9144 26.0356 19.5682 27.1153C18.1688 27.5672 16.7062 27.7966 15.2347 27.795ZM15.2347 0.737949C12.613 0.737579 10.05 1.50922 7.86998 2.95528C5.68995 4.40133 3.99076 6.45685 2.9873 8.86187C1.98384 11.2669 1.72119 13.9134 2.23257 16.4666C2.74395 19.0199 4.00639 21.3652 5.86022 23.206C7.71406 25.0467 10.076 26.3003 12.6474 26.8081C15.2187 27.3158 17.884 27.055 20.3061 26.0587C22.7281 25.0623 24.7982 23.375 26.2546 21.2104C27.7109 19.0457 28.488 16.5008 28.4876 13.8975C28.4836 10.4086 27.0861 7.06371 24.6015 4.59666C22.117 2.12961 18.7484 0.741893 15.2347 0.737949Z" fill="#CCCCCC"/>
<path d="M94.6284 41.6925C94.6285 44.5484 93.7186 47.331 92.0291 49.6421C90.3396 51.9533 87.9571 53.6745 85.2226 54.5594C85.1408 54.5852 85.0591 54.6111 84.9761 54.6357C84.6218 54.7439 84.2627 54.8361 83.8972 54.9148C83.236 55.0573 82.5648 55.1498 81.8895 55.1916C81.596 55.2112 81.3008 55.2211 81.0039 55.2211C79.47 55.2226 77.947 54.9664 76.4991 54.4635C76.457 54.4487 76.415 54.434 76.3741 54.4192C74.0283 53.578 71.96 52.1135 70.3947 50.1855C68.8293 48.2575 67.8269 45.9398 67.4967 43.4851C67.1665 41.0304 67.5212 38.5328 68.522 36.2644C69.5229 33.996 71.1316 32.0439 73.1728 30.6208C75.214 29.1977 77.6094 28.3582 80.0979 28.1938C82.5865 28.0294 85.0728 28.5464 87.2859 29.6884C89.499 30.8304 91.354 32.5536 92.6487 34.6703C93.9434 36.787 94.6282 39.216 94.6284 41.6925Z" fill="white"/>
<path d="M80.6775 50.6558C84.3385 50.6558 87.3063 47.7088 87.3063 44.0736C87.3063 40.4384 84.3385 37.4915 80.6775 37.4915C77.0165 37.4915 74.0487 40.4384 74.0487 44.0736C74.0487 47.7088 77.0165 50.6558 80.6775 50.6558Z" fill="#08BEAB"/>
<path d="M81.0645 47.62L81.0714 47.3741C80.6105 47.3613 80.2042 47.3326 79.8989 47.1111C79.8124 47.0448 79.7412 46.9607 79.6903 46.8646C79.6395 46.7685 79.61 46.6626 79.604 46.5542C79.5986 46.488 79.6087 46.4214 79.6335 46.3597C79.6582 46.2979 79.697 46.2427 79.7468 46.1982C79.9494 46.0283 80.2755 46.0833 80.5132 46.1915L80.7182 46.2848L80.3251 43.4327L80.0797 43.4661L80.414 45.8922C80.0911 45.7979 79.7918 45.8385 79.5869 46.0104C79.5082 46.0786 79.4464 46.164 79.4065 46.2598C79.3665 46.3557 79.3494 46.4594 79.3565 46.5629C79.3637 46.7085 79.4029 46.8509 79.4714 46.9799C79.5399 47.1089 79.6359 47.2215 79.7528 47.3098C80.1451 47.5944 80.6549 47.6086 81.0645 47.62Z" fill="#2F2E41"/>
<path d="M78.866 43.6753H77.5318V43.9213H78.866V43.6753Z" fill="#2F2E41"/>
<path d="M83.0772 43.6753H81.743V43.9213H83.0772V43.6753Z" fill="#2F2E41"/>
<path d="M82.5608 53.2754C82.5784 53.1946 82.5875 53.1122 82.5881 53.0295C82.5876 52.7197 82.4635 52.4228 82.2429 52.2038C82.0223 51.9848 81.7233 51.8616 81.4114 51.8611H79.6774C79.3654 51.8614 79.0663 51.9845 78.8457 52.2036C78.6251 52.4227 78.501 52.7197 78.5007 53.0295C78.5007 53.1126 78.5098 53.1955 78.5279 53.2767C77.8734 53.4815 77.2546 53.7856 76.6936 54.1782C76.5846 54.2532 76.4769 54.3343 76.3741 54.4192C76.415 54.434 76.457 54.4487 76.4991 54.4635C77.947 54.9664 79.47 55.2226 81.0039 55.2211C81.3012 55.2211 81.5964 55.2112 81.8895 55.1916C82.5648 55.1498 83.236 55.0573 83.8973 54.9148C84.2627 54.8361 84.6218 54.7439 84.9761 54.6357C84.2752 54.0201 83.4526 53.5567 82.5608 53.2754Z" fill="#2F2E41"/>
<path d="M82.3379 55.0354C82.1771 55.0471 82.0224 55.101 81.8895 55.1915C82.5648 55.1498 83.236 55.0573 83.8972 54.9149L82.3379 55.0354Z" fill="#2F2E41"/>
<path d="M86.6894 42.51L75.1738 38.3269C75.1127 38.3047 75.0566 38.2707 75.0087 38.227C74.9608 38.1833 74.922 38.1306 74.8946 38.072C74.8672 38.0134 74.8517 37.9501 74.849 37.8855C74.8463 37.821 74.8564 37.7565 74.8787 37.6958L74.9177 37.513C75.817 35.0719 78.7979 33.5356 81.2563 34.4286L84.7999 35.7159C87.2583 36.6089 88.3268 39.4994 87.4274 41.9405L87.3249 42.217C87.3026 42.2776 87.2684 42.3333 87.2244 42.3809C87.1803 42.4285 87.1273 42.4669 87.0683 42.4942C87.0093 42.5214 86.9455 42.5368 86.8805 42.5395C86.8154 42.5422 86.7505 42.5322 86.6894 42.51Z" fill="#2F2E41"/>
<path d="M87.3097 42.7421C71.2592 43.3302 69.8567 41.3277 74.7472 38.1787L75.7847 36.2831L87.6751 40.5877L87.3097 42.7421Z" fill="#2F2E41"/>
<path d="M84.1625 35.4157C84.2511 35.123 83.8716 34.751 83.3147 34.5847C82.7579 34.4185 82.2347 34.5211 82.146 34.8138C82.0574 35.1065 82.437 35.4786 82.9938 35.6448C83.5507 35.811 84.0739 35.7084 84.1625 35.4157Z" fill="#2F2E41"/>
<path d="M81.0039 55.59C79.4282 55.5917 77.8635 55.3286 76.3763 54.8117L76.247 54.7659C73.1317 53.648 70.5167 51.4692 68.867 48.617C67.2173 45.7647 66.6399 42.4239 67.2374 39.1887C67.835 35.9535 69.5688 33.0336 72.1305 30.9483C74.6921 28.863 77.9157 27.7474 81.2277 27.8C84.5398 27.8526 87.7257 29.0699 90.219 31.2355C92.7122 33.4011 94.351 36.3746 94.8441 39.6271C95.3371 42.8796 94.6524 46.2004 92.9117 48.9988C91.171 51.7972 88.4872 53.8919 85.3374 54.9103C85.2494 54.9381 85.1666 54.9642 85.0824 54.9892C84.7306 55.0967 84.3573 55.1933 83.976 55.2754C83.2963 55.4217 82.6065 55.5168 81.9123 55.5598C81.6141 55.5798 81.3077 55.59 81.0039 55.59ZM81.0039 28.5329C77.8853 28.5334 74.8667 29.6257 72.479 31.6178C70.0913 33.6098 68.4875 36.3741 67.9496 39.4243C67.4117 42.4746 67.9742 45.6155 69.5382 48.2946C71.1021 50.9738 73.5673 53.0196 76.5003 54.0722L76.623 54.1156C78.031 54.6048 79.5122 54.8538 81.0039 54.8521C81.2911 54.8521 81.5806 54.8424 81.8644 54.8234C82.5218 54.7827 83.175 54.6927 83.8187 54.5542C84.1794 54.4765 84.5321 54.3853 84.8668 54.2831C84.9497 54.2584 85.0284 54.2336 85.1071 54.2087C88.107 53.2385 90.66 51.2375 92.3071 48.5655C93.9543 45.8936 94.5875 42.7258 94.0931 39.6317C93.5986 36.5376 92.0089 33.7201 89.6096 31.6857C87.2104 29.6513 84.1589 28.5334 81.0039 28.5329Z" fill="#CCCCCC"/>
<path d="M0.371579 70.1025C0.369204 71.8831 0.721938 73.6466 1.40943 75.2912C2.09692 76.9357 3.10556 78.4289 4.37716 79.6844C4.48373 79.7889 4.59271 79.8935 4.7029 79.9955C5.36691 80.6115 6.09141 81.1599 6.86553 81.6325C7.01413 81.7235 7.16279 81.8108 7.31513 81.8957C8.098 82.3338 8.92284 82.6935 9.77743 82.9694C9.92482 83.0173 10.0747 83.0628 10.2245 83.1047C12.9411 83.8783 15.8324 83.7975 18.5009 82.8734C18.5529 82.855 18.6049 82.8365 18.6557 82.8181C20.9982 81.9719 23.062 80.5038 24.6226 78.5737C26.1831 76.6435 27.1805 74.3253 27.5061 71.8714C27.8318 69.4174 27.4733 66.9218 26.4697 64.6561C25.466 62.3904 23.8557 60.4416 21.8139 59.0216C19.7722 57.6017 17.3773 56.7651 14.8899 56.603C12.4025 56.4408 9.91802 56.9593 7.70683 58.102C5.49565 59.2447 3.64252 60.9678 2.34916 63.0837C1.05581 65.1996 0.371794 67.6273 0.371579 70.1025Z" fill="white"/>
<path d="M11.1189 76.7334C11.1254 77.7815 10.7364 78.7941 10.0284 79.5715C9.32785 80.3349 8.28493 80.8411 7.23249 80.6317C6.2634 80.4388 5.47589 79.5978 5.57414 78.5803C5.59044 78.3599 5.65494 78.1457 5.76316 77.9526C5.87137 77.7596 6.0207 77.5922 6.20071 77.4623C6.38073 77.3324 6.58712 77.243 6.80548 77.2005C7.02385 77.1579 7.24894 77.1631 7.46507 77.2157C8.38567 77.453 8.75248 78.7704 7.98535 79.3888C7.80127 79.5372 7.5368 79.2777 7.7226 79.1279C8.22973 78.7191 8.07306 77.8248 7.46095 77.6005C6.7483 77.3394 5.99325 77.901 5.942 78.6245C5.88124 79.4822 6.54299 80.1282 7.35452 80.2802C8.23242 80.4448 9.10283 79.9986 9.6977 79.3828C10.3795 78.6677 10.7556 77.7181 10.7473 76.7334C10.7489 76.6856 10.7693 76.6403 10.8039 76.607C10.8386 76.5738 10.8849 76.5552 10.9331 76.5552C10.9813 76.5552 11.0276 76.5738 11.0622 76.607C11.0969 76.6403 11.1172 76.6856 11.1189 76.7334L11.1189 76.7334Z" fill="#2F2E41"/>
<path d="M14.7472 79.0789C18.4082 79.0789 21.376 76.132 21.376 72.4968C21.376 68.8616 18.4082 65.9146 14.7472 65.9146C11.0862 65.9146 8.11833 68.8616 8.11833 72.4968C8.11833 76.132 11.0862 79.0789 14.7472 79.0789Z" fill="#08BEAB"/>
<path d="M14.408 75.3053L14.4011 75.0593C14.862 75.0466 15.2683 75.0179 15.5736 74.7964C15.6601 74.7301 15.7313 74.646 15.7822 74.5499C15.8331 74.4538 15.8625 74.3479 15.8685 74.2395C15.8739 74.1732 15.8638 74.1067 15.839 74.0449C15.8143 73.9832 15.7755 73.9279 15.7257 73.8835C15.5231 73.7136 15.197 73.7686 14.9593 73.8768L14.7543 73.9701L15.1474 71.118L15.3928 71.1514L15.0585 73.5775C15.3814 73.4832 15.6807 73.5238 15.8856 73.6957C15.9643 73.7639 16.0261 73.8492 16.0661 73.9451C16.106 74.0409 16.1231 74.1446 16.1161 74.2481C16.1088 74.3938 16.0696 74.5361 16.0011 74.6652C15.9327 74.7942 15.8366 74.9068 15.7197 74.9951C15.3274 75.2797 14.8176 75.2939 14.408 75.3053Z" fill="#2F2E41"/>
<path d="M17.9407 71.3605H16.6065V71.6065H17.9407V71.3605Z" fill="#2F2E41"/>
<path d="M13.7295 71.3605H12.3953V71.6065H13.7295V71.3605Z" fill="#2F2E41"/>
<path d="M10.2245 83.1047C12.9411 83.8783 15.8324 83.7975 18.5009 82.8735C18.5529 82.855 18.6049 82.8366 18.6557 82.8181C18.0269 82.3365 17.3156 81.9715 16.5562 81.7408C16.61 81.5517 16.6091 81.3514 16.5538 81.1627C16.4786 80.9236 16.3277 80.7149 16.1235 80.5678C15.9193 80.4206 15.6727 80.3429 15.4205 80.3461H13.8053C13.5535 80.3427 13.3073 80.4203 13.1035 80.5672C12.8997 80.7142 12.7492 80.9226 12.6745 81.1615C12.6192 81.3506 12.6183 81.5512 12.672 81.7408C12.0031 81.9441 11.371 82.2518 10.7993 82.6521C10.6841 82.732 10.5726 82.8157 10.4649 82.903C10.3831 82.9682 10.3026 83.0358 10.2245 83.1047Z" fill="#2F2E41"/>
<path d="M19.9401 71.7985C19.9401 72.9078 20.4901 73.8277 21.2047 73.9876C21.2775 74.0038 21.3519 74.0121 21.4264 74.0122C22.2451 74.0122 22.9127 73.0197 22.9127 71.7985C22.9127 71.09 22.6886 70.4591 22.3405 70.0545C22.2197 69.9093 22.0711 69.7893 21.9032 69.7015C21.756 69.6252 21.5925 69.5851 21.4264 69.5847C21.1983 69.5875 20.9769 69.6615 20.7935 69.7962C20.2894 70.1504 19.9401 70.9142 19.9401 71.7985Z" fill="#3F3D56"/>
<path d="M6.68719 71.7985C6.68719 72.7528 7.09343 73.567 7.66319 73.8782C7.81915 73.965 7.99472 74.0111 8.17351 74.0122C8.21326 74.0122 8.25297 74.0097 8.29241 74.0048C9.05534 73.9151 9.65982 72.9607 9.65982 71.7985C9.65982 70.8674 9.27209 70.0693 8.72464 69.7433C8.55907 69.6413 8.3684 69.5864 8.17351 69.5847C8.00742 69.5851 7.84387 69.6252 7.69664 69.7015C7.52838 69.7897 7.37937 69.9101 7.25817 70.0557C6.91132 70.4604 6.68719 71.0913 6.68719 71.7985Z" fill="#3F3D56"/>
<path d="M7.75589 73.666C7.78538 73.6659 7.81444 73.6589 7.84068 73.6456C7.86691 73.6322 7.88956 73.6128 7.90676 73.589C7.92396 73.5652 7.93522 73.5377 7.9396 73.5088C7.94398 73.4798 7.94136 73.4502 7.93195 73.4225C7.57687 72.374 7.47006 71.2583 7.61981 70.1622C7.76956 69.066 8.17185 68.0189 8.7954 67.1023C9.41896 66.1856 10.247 65.424 11.2151 64.8768C12.1833 64.3296 13.2655 64.0114 14.3776 63.9469C15.4898 63.8825 16.6019 64.0736 17.6275 64.5053C18.6532 64.937 19.5648 65.5978 20.2915 66.4362C21.0182 67.2747 21.5404 68.2682 21.8175 69.3396C22.0946 70.411 22.1192 71.5315 21.8893 72.6139C21.8843 72.6376 21.884 72.662 21.8885 72.6858C21.893 72.7096 21.9021 72.7324 21.9154 72.7527C21.9288 72.7729 21.946 72.7904 21.9661 72.8041C21.9862 72.8178 22.0089 72.8274 22.0328 72.8324C22.0566 72.8374 22.0813 72.8377 22.1052 72.8333C22.1292 72.8288 22.1521 72.8197 22.1725 72.8065C22.193 72.7933 22.2106 72.7762 22.2244 72.7562C22.2382 72.7362 22.2479 72.7137 22.2529 72.69C22.4947 71.552 22.469 70.374 22.1778 69.2475C21.8865 68.1209 21.3376 67.0763 20.5736 66.1947C19.8096 65.3131 18.8511 64.6184 17.7727 64.1644C16.6943 63.7105 15.525 63.5096 14.3557 63.5773C13.1864 63.6451 12.0486 63.9797 11.0307 64.5552C10.0128 65.1306 9.14229 65.9314 8.48678 66.8952C7.83126 67.8591 7.40842 68.96 7.25113 70.1126C7.09384 71.2651 7.20632 72.4381 7.57985 73.5404C7.59228 73.577 7.61595 73.6088 7.64753 73.6313C7.67911 73.6538 7.717 73.6659 7.75589 73.666Z" fill="#3F3D56"/>
<path d="M18.0772 68.2321C18.3397 68.5878 18.2102 69.0673 17.9337 69.374C17.5738 69.7732 16.9999 69.7983 16.5017 69.7243C15.9425 69.6411 15.3494 69.381 14.7834 69.5563C14.3009 69.7057 13.9567 70.1402 13.4555 70.2494C13.0109 70.3462 12.4794 70.2181 12.3235 69.7476C12.2486 69.5215 12.6073 69.4246 12.6818 69.6495C12.7826 69.9539 13.218 69.9478 13.4673 69.8635C13.8669 69.7284 14.175 69.3997 14.5678 69.2427C15.031 69.0577 15.5334 69.1412 16.005 69.2467C16.4494 69.346 16.9609 69.4934 17.4037 69.3077C17.7313 69.1704 17.992 68.7377 17.7563 68.4183C17.6148 68.2265 17.9371 68.0423 18.0772 68.2321Z" fill="#2F2E41"/>
<path d="M13.9961 84C12.6854 84.0011 11.3811 83.819 10.1215 83.4592C9.97351 83.4179 9.81799 83.3709 9.66178 83.3201C8.78415 83.0364 7.93702 82.667 7.13282 82.2173C6.98199 82.1333 6.83058 82.0446 6.67048 81.9466C5.87547 81.461 5.13133 80.8977 4.44915 80.2652C4.33662 80.1609 4.22509 80.0539 4.11605 79.947C1.97072 77.8231 0.577383 75.0653 0.145351 72.088C-0.286681 69.1106 0.265923 66.0744 1.72015 63.4355C3.17437 60.7966 5.45169 58.6976 8.20999 57.4536C10.9683 56.2097 14.0586 55.8881 17.0167 56.5371C19.9748 57.1861 22.6409 58.7707 24.6146 61.0529C26.5882 63.335 27.7628 66.1914 27.9619 69.193C28.161 72.1947 27.3738 75.1794 25.7186 77.6988C24.0633 80.2182 21.6295 82.1363 18.7827 83.1649C18.7315 83.1835 18.6787 83.2022 18.6258 83.2209C17.1379 83.7383 15.5725 84.0017 13.9961 84ZM13.9961 56.9429C11.3731 56.943 8.80909 57.716 6.62876 59.1639C4.44843 60.6118 2.74981 62.6696 1.74796 65.0766C0.746116 67.4837 0.486096 70.1318 1.00083 72.6857C1.51556 75.2395 2.78189 77.5843 4.63949 79.4232C4.7423 79.524 4.84875 79.6261 4.95637 79.7258C5.60245 80.3249 6.30722 80.8584 7.06016 81.3183C7.21184 81.4111 7.35457 81.4947 7.49689 81.5739C8.25855 82 9.06091 82.3499 9.89218 82.6185C10.0393 82.6663 10.1846 82.7103 10.325 82.7495C12.9682 83.5026 15.7814 83.4243 18.378 82.5253L18.5281 82.4716C21.4562 81.4133 23.9151 79.3645 25.4732 76.6849C27.0312 74.0054 27.5887 70.8665 27.0477 67.8194C26.5068 64.7723 24.902 62.0118 22.5152 60.0228C20.1283 58.0338 17.1121 56.9433 13.9961 56.9429Z" fill="#CCCCCC"/>
</g>
<defs>
<clipPath id="clip0_516_394">
<rect width="95" height="84" fill="white"/>
</clipPath>
</defs>
</svg>
