<svg width="136" height="84" viewBox="0 0 136 84" fill="none" xmlns="http://www.w3.org/2000/svg">
<path d="M6.66194 77.4396C6.71885 79.5711 7.07473 81.684 7.71908 83.7159C7.73337 83.7631 7.74922 83.8095 7.76465 83.8567H11.7094C11.7052 83.8144 11.7009 83.7672 11.6968 83.7159C11.4338 80.6819 12.9364 62.436 14.7495 59.2781C14.5907 59.5342 6.35608 67.7991 6.66194 77.4396Z" fill="#08BEAB"/>
<path d="M6.95792 83.7159C6.99092 83.763 7.02521 83.8102 7.06035 83.8566H10.0198C9.99735 83.8165 9.97135 83.7693 9.94121 83.7159C9.45235 82.8306 8.00535 80.1836 6.6622 77.4395C5.21935 74.4906 3.89449 71.4299 4.00606 70.3222C3.97149 70.5719 2.97264 78.1884 6.95792 83.7159Z" fill="#08BEAB"/>
<path d="M93.0416 17.2841C93.1545 17.5643 93.3272 17.8163 93.5477 18.0222C93.7681 18.2282 94.0309 18.3831 94.3175 18.4762C94.6041 18.5692 94.9075 18.5981 95.2064 18.5607C95.5053 18.5234 95.7924 18.4207 96.0475 18.26L101.759 22.857L102.112 19.0557L96.6346 15.2731C96.3371 14.861 95.8992 14.5727 95.4041 14.4629C94.9089 14.3531 94.3908 14.4294 93.9479 14.6773C93.505 14.9251 93.1681 15.3274 93.0011 15.8079C92.8341 16.2883 92.8485 16.8136 93.0416 17.2841Z" fill="#9F616A"/>
<path d="M101.886 18.6987L99.7547 17.1874L97.3369 19.9905L100.149 21.6631L101.886 18.6987Z" fill="#08BEAB"/>
<path d="M101.42 17.6738L108.603 20.4474L115.519 15.9037C116.234 15.4341 117.094 15.2415 117.94 15.362C118.786 15.4824 119.559 15.9076 120.115 16.5582C120.672 17.2087 120.973 18.0402 120.963 18.8973C120.953 19.7545 120.632 20.5787 120.061 21.2161L119.999 21.285L109.363 27.0071L97.745 21.6814L101.42 17.6738Z" fill="#3F3D56"/>
<path d="M99.3943 83.57H24.5371L27.2514 30.3891H38.9657L49.7677 37.9863H102.109L99.3943 83.57Z" fill="#E5E5E5"/>
<path d="M81.0699 67.3524L37.8035 49.4732C37.6522 49.4105 37.5319 49.2902 37.469 49.1386C37.406 48.987 37.4056 48.8165 37.4677 48.6646L57.0726 0.897666C57.1351 0.74589 57.255 0.625186 57.4061 0.562033C57.5572 0.498879 57.727 0.498433 57.8784 0.560795L101.145 18.4399C101.296 18.5026 101.416 18.623 101.479 18.7746C101.542 18.9262 101.543 19.0966 101.481 19.2485L81.8758 67.0155C81.8133 67.1673 81.6933 67.288 81.5422 67.3511C81.3912 67.4143 81.2213 67.4147 81.0699 67.3524Z" fill="white"/>
<path d="M81.0699 67.3524L37.8035 49.4732C37.6522 49.4105 37.5319 49.2902 37.469 49.1386C37.406 48.987 37.4056 48.8165 37.4677 48.6646L57.0726 0.897666C57.1351 0.74589 57.255 0.625186 57.4061 0.562033C57.5572 0.498879 57.727 0.498433 57.8784 0.560795L101.145 18.4399C101.296 18.5026 101.416 18.623 101.479 18.7746C101.542 18.9262 101.543 19.0966 101.481 19.2485L81.8758 67.0155C81.8133 67.1673 81.6933 67.288 81.5422 67.3511C81.3912 67.4143 81.2213 67.4147 81.0699 67.3524ZM57.7844 0.789893C57.6936 0.752471 57.5917 0.752735 57.501 0.790628C57.4104 0.828521 57.3384 0.900947 57.3009 0.992016L37.6961 48.759C37.6588 48.8501 37.659 48.9524 37.6968 49.0433C37.7346 49.1343 37.8067 49.2065 37.8975 49.2441L81.1639 67.1233C81.2548 67.1607 81.3567 67.1604 81.4473 67.1225C81.538 67.0846 81.6099 67.0122 81.6474 66.9211L101.252 19.1542C101.29 19.063 101.289 18.9608 101.252 18.8698C101.214 18.7788 101.142 18.7066 101.051 18.669L57.7844 0.789893Z" fill="#3F3D56"/>
<path d="M70.0045 24.2061L59.2735 19.7717C59.1222 19.709 59.0019 19.5887 58.939 19.4371C58.876 19.2855 58.8756 19.115 58.9377 18.9631L63.3571 8.19552C63.4196 8.04374 63.5395 7.92304 63.6906 7.85988C63.8417 7.79673 64.0115 7.79628 64.1629 7.85865L74.8939 12.293C75.0452 12.3558 75.1655 12.4761 75.2284 12.6277C75.2914 12.7793 75.2918 12.9497 75.2296 13.1017L70.8103 23.8693C70.7478 24.021 70.6279 24.1418 70.4768 24.2049C70.3257 24.2681 70.1559 24.2685 70.0045 24.2061ZM64.0689 8.08774C63.9781 8.05032 63.8761 8.05059 63.7855 8.08848C63.6948 8.12637 63.6229 8.1988 63.5854 8.28987L59.1661 19.0575C59.1288 19.1486 59.129 19.2509 59.1668 19.3419C59.2046 19.4328 59.2767 19.505 59.3675 19.5426L70.0985 23.977C70.1893 24.0145 70.2913 24.0142 70.3819 23.9763C70.4725 23.9384 70.5445 23.866 70.582 23.7749L75.0013 13.0073C75.0386 12.9162 75.0384 12.8139 75.0006 12.7229C74.9628 12.632 74.8907 12.5598 74.7999 12.5221L64.0689 8.08774Z" fill="#F2F2F2"/>
<path d="M66.3815 24.2497L55.6505 19.8153C55.5144 19.7589 55.4061 19.6506 55.3495 19.5142C55.2928 19.3777 55.2924 19.2243 55.3484 19.0876L59.7677 8.31997C59.8239 8.18337 59.9319 8.07473 60.0679 8.01789C60.2038 7.96106 60.3567 7.96066 60.493 8.01679L71.224 12.4512C71.3601 12.5076 71.4684 12.6159 71.525 12.7524C71.5817 12.8888 71.582 13.0422 71.5261 13.1789L67.1068 23.9466C67.0506 24.0832 66.9426 24.1918 66.8066 24.2486C66.6707 24.3055 66.5178 24.3059 66.3815 24.2497Z" fill="#08BEAB"/>
<path d="M87.0507 38.9539L53.4878 25.0846C53.4204 25.0567 53.3591 25.0158 53.3074 24.9641C53.2557 24.9125 53.2146 24.8511 53.1866 24.7835C53.1585 24.7159 53.144 24.6435 53.1438 24.5703C53.1437 24.4971 53.1579 24.4245 53.1857 24.3568C53.2135 24.2891 53.2543 24.2276 53.3058 24.1757C53.3572 24.1239 53.4184 24.0827 53.4857 24.0545C53.5531 24.0264 53.6253 24.0118 53.6983 24.0117C53.7712 24.0115 53.8435 24.0258 53.911 24.0537L87.4739 37.9229C87.6101 37.9793 87.7185 38.0876 87.7751 38.224C87.8318 38.3605 87.8321 38.514 87.776 38.6507C87.7199 38.7874 87.612 38.8962 87.4759 38.953C87.3399 39.0099 87.187 39.0102 87.0507 38.9539V38.9539Z" fill="#CCCCCC"/>
<path d="M77.488 39.1555L52.0304 28.6356C51.963 28.6077 51.9016 28.5668 51.85 28.5151C51.7983 28.4635 51.7572 28.4021 51.7292 28.3345C51.7011 28.2669 51.6866 28.1945 51.6864 28.1213C51.6863 28.0481 51.7005 27.9755 51.7283 27.9078C51.7561 27.8401 51.7969 27.7786 51.8484 27.7267C51.8998 27.6749 51.961 27.6337 52.0284 27.6055C52.0957 27.5774 52.1679 27.5628 52.2409 27.5627C52.3138 27.5625 52.3861 27.5768 52.4536 27.6047L77.9111 38.1246C78.0474 38.1809 78.1557 38.2892 78.2124 38.4256C78.2691 38.5621 78.2694 38.7156 78.2133 38.8523C78.1572 38.989 78.0492 39.0978 77.9132 39.1546C77.7772 39.2115 77.6242 39.2118 77.488 39.1555Z" fill="#CCCCCC"/>
<path d="M92.2961 25.8481L77.4554 19.7154C77.388 19.6875 77.3266 19.6466 77.2749 19.5949C77.2232 19.5433 77.1822 19.4819 77.1541 19.4143C77.1261 19.3468 77.1116 19.2743 77.1114 19.2011C77.1113 19.1279 77.1255 19.0554 77.1533 18.9877C77.1811 18.92 77.2219 18.8584 77.2733 18.8066C77.3248 18.7547 77.386 18.7135 77.4533 18.6854C77.5207 18.6572 77.5929 18.6426 77.6659 18.6425C77.7388 18.6423 77.8111 18.6566 77.8786 18.6845L92.7193 24.8172C92.8555 24.8735 92.9639 24.9818 93.0206 25.1183C93.0772 25.2547 93.0775 25.4082 93.0214 25.5449C92.9653 25.6816 92.8574 25.7904 92.7214 25.8472C92.5853 25.9041 92.4324 25.9044 92.2961 25.8481Z" fill="#CCCCCC"/>
<path d="M87.135 27.8686L75.998 23.2664C75.8618 23.2101 75.7534 23.1018 75.6967 22.9654C75.6401 22.8289 75.6397 22.6754 75.6958 22.5387C75.752 22.402 75.8599 22.2932 75.9959 22.2364C76.1319 22.1795 76.2849 22.1792 76.4211 22.2355L87.5581 26.8377C87.6944 26.894 87.8027 27.0023 87.8594 27.1388C87.9161 27.2752 87.9164 27.4287 87.8603 27.5654C87.8042 27.7021 87.6962 27.8109 87.5602 27.8678C87.4242 27.9246 87.2712 27.9249 87.135 27.8686V27.8686Z" fill="#CCCCCC"/>
<path d="M84.1359 46.0559L50.573 32.1866C50.5056 32.1587 50.4442 32.1178 50.3925 32.0661C50.3408 32.0145 50.2998 31.9531 50.2717 31.8855C50.2437 31.818 50.2292 31.7455 50.229 31.6723C50.2289 31.5991 50.2431 31.5266 50.2709 31.4589C50.2986 31.3912 50.3394 31.3296 50.3909 31.2778C50.4424 31.2259 50.5036 31.1847 50.5709 31.1565C50.6383 31.1284 50.7105 31.1138 50.7834 31.1137C50.8564 31.1135 50.9287 31.1278 50.9961 31.1557L84.559 45.025C84.6953 45.0813 84.8036 45.1896 84.8603 45.3261C84.917 45.4625 84.9173 45.616 84.8612 45.7527C84.8051 45.8894 84.6971 45.9982 84.5611 46.055C84.4251 46.1119 84.2721 46.1122 84.1359 46.0559V46.0559Z" fill="#CCCCCC"/>
<path d="M74.5731 46.2576L49.1156 35.7376C49.0481 35.7098 48.9868 35.6688 48.9351 35.6172C48.8834 35.5655 48.8423 35.5041 48.8143 35.4366C48.7862 35.369 48.7717 35.2965 48.7715 35.2233C48.7714 35.1501 48.7856 35.0776 48.8134 35.0099C48.8412 34.9422 48.882 34.8807 48.9335 34.8288C48.985 34.7769 49.0461 34.7357 49.1135 34.7076C49.1808 34.6794 49.253 34.6649 49.326 34.6647C49.3989 34.6646 49.4712 34.6788 49.5387 34.7067L74.9962 45.2266C75.0637 45.2545 75.125 45.2954 75.1767 45.3471C75.2284 45.3988 75.2695 45.4601 75.2975 45.5277C75.3256 45.5953 75.3401 45.6677 75.3402 45.741C75.3404 45.8142 75.3262 45.8867 75.2984 45.9544C75.2706 46.0221 75.2298 46.0836 75.1783 46.1355C75.1268 46.1874 75.0657 46.2285 74.9983 46.2567C74.931 46.2848 74.8588 46.2994 74.7858 46.2996C74.7128 46.2997 74.6406 46.2854 74.5731 46.2576Z" fill="#CCCCCC"/>
<path d="M81.221 53.158L47.6582 39.2887C47.5219 39.2324 47.4135 39.1241 47.3569 38.9876C47.3002 38.8511 47.2999 38.6976 47.356 38.5609C47.4121 38.4242 47.52 38.3155 47.6561 38.2586C47.7921 38.2017 47.945 38.2014 48.0813 38.2577L81.6441 52.127C81.7804 52.1833 81.8888 52.2916 81.9454 52.4281C82.0021 52.5646 82.0024 52.7181 81.9463 52.8548C81.8902 52.9915 81.7822 53.1002 81.6462 53.1571C81.5102 53.2139 81.3573 53.2143 81.221 53.158Z" fill="#CCCCCC"/>
<path d="M79.7636 56.709L46.2007 42.8397C46.0645 42.7834 45.9561 42.6751 45.8994 42.5386C45.8428 42.4021 45.8424 42.2486 45.8985 42.1119C45.9547 41.9752 46.0626 41.8665 46.1986 41.8096C46.3346 41.7527 46.4876 41.7524 46.6238 41.8087L80.1867 55.678C80.2542 55.7059 80.3155 55.7468 80.3672 55.7985C80.4189 55.8502 80.4599 55.9115 80.488 55.9791C80.516 56.0467 80.5306 56.1192 80.5307 56.1924C80.5309 56.2656 80.5166 56.3381 80.4888 56.4058C80.4611 56.4735 80.4203 56.535 80.3688 56.5869C80.3173 56.6388 80.2561 56.6799 80.1888 56.7081C80.1214 56.7362 80.0492 56.7508 79.9763 56.751C79.9033 56.7511 79.831 56.7368 79.7636 56.709Z" fill="#CCCCCC"/>
<path d="M63.39 56.4452C64.0617 56.4808 64.7352 56.4602 65.4035 56.3836C66.0053 56.313 66.6322 56.2158 67.1597 55.8983C67.3878 55.7677 67.582 55.585 67.7265 55.3649C67.871 55.1448 67.9617 54.8937 67.9913 54.6318C68.0146 54.3827 67.9582 54.1326 67.8305 53.9178C67.7027 53.7029 67.5101 53.5345 67.2806 53.4368C67.0477 53.3384 66.7926 53.305 66.5423 53.3402C66.292 53.3754 66.0559 53.4778 65.8589 53.6366C65.6485 53.82 65.482 54.0487 65.372 54.3056C65.2619 54.5625 65.2111 54.8411 65.2233 55.1205C65.251 56.2679 66.1557 57.401 67.1603 57.8783C68.2919 58.4159 69.8371 57.959 70.1269 56.6352C70.1872 56.3599 69.8135 56.2642 69.6572 56.4411C69.4439 56.6771 69.3284 56.9859 69.3344 57.3044C69.3403 57.623 69.4672 57.9272 69.6892 58.155C69.9112 58.3828 70.2115 58.5169 70.5287 58.53C70.8459 58.5431 71.1562 58.4342 71.3961 58.2255L70.9755 58.0517C71.0977 58.5657 71.3527 59.0383 71.7147 59.422C72.0768 59.8057 72.5332 60.087 73.038 60.2375C73.287 60.3124 73.5454 60.3519 73.8054 60.3548C74.1213 60.3557 74.446 60.5149 74.7482 60.6137L76.9259 61.3256C77.2463 61.4303 77.4495 60.9424 77.1265 60.8368L75.1542 60.192C74.8256 60.0846 74.4977 59.9742 74.1681 59.8697C73.9324 59.7949 73.6744 59.8354 73.4286 59.7914C72.9686 59.7041 72.5428 59.4873 72.2008 59.1664C71.8589 58.8454 71.6149 58.4336 71.4973 57.9788C71.4902 57.9336 71.4715 57.8909 71.4432 57.855C71.4149 57.8191 71.3778 57.791 71.3356 57.7736C71.2934 57.7561 71.2474 57.7498 71.2022 57.7554C71.1567 57.7609 71.1136 57.778 71.0767 57.805C70.939 57.9366 70.7549 58.0082 70.5648 58.0043C70.3746 58.0004 70.1937 57.9212 70.0614 57.7841C69.9291 57.647 69.8562 57.463 69.8584 57.2721C69.8607 57.0813 69.9381 56.8991 70.0736 56.7652L69.6039 56.5711C69.4169 57.425 68.3788 57.7455 67.6305 57.4986C66.7937 57.2224 66.0745 56.4188 65.825 55.5771C65.7582 55.3748 65.7337 55.1609 65.7531 54.9487C65.7724 54.7366 65.8351 54.5307 65.9373 54.344C66.0284 54.1736 66.1705 54.0363 66.3435 53.9512C66.5165 53.8662 66.7117 53.8378 66.9017 53.87C67.0713 53.894 67.225 53.9833 67.3303 54.1189C67.4356 54.2545 67.4843 54.4259 67.466 54.5968C67.4381 54.7891 67.3635 54.9716 67.2488 55.1281C67.1341 55.2847 66.9828 55.4106 66.8082 55.4947C66.3372 55.7483 65.7733 55.8115 65.2502 55.8691C64.6538 55.9342 64.0531 55.9513 63.454 55.9204C63.1177 55.9033 63.0502 56.428 63.3901 56.4452L63.39 56.4452Z" fill="#08BEAB"/>
<path d="M99.3942 41.57V83.57H24.5371V33.9727H36.2514L47.0528 41.57H99.3942Z" fill="white"/>
<path d="M58.4616 75.686H30.327C29.6541 75.686 29.1086 76.2315 29.1086 76.9044C29.1086 77.5774 29.6541 78.1229 30.327 78.1229H58.4616C59.1345 78.1229 59.68 77.5774 59.68 76.9044C59.68 76.2315 59.1345 75.686 58.4616 75.686Z" fill="#08BEAB"/>
<path d="M43.1759 70.9556H30.327C29.6541 70.9556 29.1086 71.5011 29.1086 72.1741C29.1086 72.847 29.6541 73.3925 30.327 73.3925H43.1759C43.8488 73.3925 44.3943 72.847 44.3943 72.1741C44.3943 71.5011 43.8488 70.9556 43.1759 70.9556Z" fill="#08BEAB"/>
<path d="M99.5371 83.7133H24.3943V33.8293H36.2965L47.0985 41.4266H99.5371V83.7133ZM24.68 83.4266H99.2514V41.7133H47.0084L36.2064 34.116H24.68V83.4266Z" fill="#3F3D56"/>
<path d="M129.878 78.6441L127.345 79.5523L122.648 70.1813L126.386 68.8407L129.878 78.6441Z" fill="#9F616A"/>
<path d="M123.234 83.8048L123.197 83.7011C122.897 82.8551 122.943 81.9241 123.326 81.1124C123.709 80.3007 124.398 79.6745 125.24 79.3713L130.228 77.5825L131.401 80.8761L123.234 83.8048Z" fill="#202020"/>
<path d="M113.407 81.1577H110.717L109.437 70.7472L113.407 70.7473L113.407 81.1577Z" fill="#9F616A"/>
<path d="M114.093 83.7741L105.42 83.7738V83.6637C105.42 83.2189 105.507 82.7784 105.677 82.3674C105.846 81.9565 106.095 81.5831 106.408 81.2685C106.722 80.954 107.094 80.7045 107.504 80.5343C107.913 80.364 108.352 80.2764 108.796 80.2764H108.796L114.093 80.2766L114.093 83.7741Z" fill="#202020"/>
<path d="M119.537 14.6479L118.367 12.3285C118.367 12.3285 114.009 13.424 113.613 15.9584L119.537 14.6479Z" fill="#08BEAB"/>
<path d="M124.364 41.1683L121.183 58.9816L129.63 73.971L124.583 75.9523L116.027 61.4223L114.93 57.4596L114.271 78.1538L109.72 78.0152L107.634 58.6918L110.98 40.7281L124.364 41.1683Z" fill="#202020"/>
<path d="M123.705 33.1205L123.595 22.6748C123.595 18.2477 120.692 14.9847 120.289 14.6829C120.1 14.0764 119.76 13.6572 119.28 13.4378C118.312 12.9976 117.128 13.5258 117.078 13.5496L113.526 14.8855L113.51 14.9344C113.472 15.0462 109.889 26.8447 108.989 29.8058C108.861 30.2306 108.787 30.4738 108.787 30.4738C108.787 30.4738 108.801 31.1585 108.826 32.2234C108.906 35.8846 109.094 44.04 109.169 44.3823C109.169 44.3823 115.728 45.3801 118.326 45.3801C122.998 45.3801 125.966 44.483 126.033 44.4676L126.14 44.4452L123.705 33.1205Z" fill="#3F3D56"/>
<path d="M117.037 11.0078C119.363 9.73163 120.219 6.80448 118.947 4.46987C117.675 2.13526 114.758 1.27725 112.431 2.55345C110.104 3.82966 109.249 6.7568 110.521 9.09142C111.793 11.426 114.71 12.284 117.037 11.0078Z" fill="#9F616A"/>
<path opacity="0.2" d="M115.266 30.9098L108.826 32.2234C108.801 31.1586 108.787 30.4738 108.787 30.4738C108.787 30.4738 108.861 30.2307 108.989 29.8058L115.266 30.9098Z" fill="#202020"/>
<path d="M96.1956 29.5329C96.4243 29.7296 96.6931 29.8736 96.9833 29.9548C97.2734 30.036 97.5778 30.0524 97.8749 30.0028C98.172 29.9531 98.4547 29.8388 98.703 29.6677C98.9513 29.4966 99.1592 29.273 99.3121 29.0125L106.49 30.4595L105.062 26.9208L98.4646 26.0893C98.0116 25.8606 97.4907 25.8066 97.0007 25.9376C96.5106 26.0686 96.0855 26.3753 95.8058 26.7998C95.5261 27.2243 95.4113 27.7369 95.4831 28.2407C95.555 28.7444 95.8085 29.2042 96.1956 29.5329Z" fill="#9F616A"/>
<path d="M104.698 26.7081L102.113 26.3496L101.25 29.9544L104.514 30.1419L104.698 26.7081Z" fill="#08BEAB"/>
<path d="M103.814 26.0134L111.464 25.1617L115.523 17.936C115.943 17.1893 116.618 16.6212 117.425 16.3379C118.231 16.0546 119.113 16.0754 119.905 16.3965C120.697 16.7175 121.345 17.3169 121.729 18.0826C122.113 18.8484 122.206 19.7281 121.991 20.5577L121.968 20.6475L115.145 30.6363L102.387 31.2676L103.814 26.0134Z" fill="#3F3D56"/>
<path d="M118.823 10.9634L114.838 11.1069C114.595 11.1157 113.936 8.48523 113.85 7.93955C113.782 7.58429 113.587 7.2661 113.302 7.04438C113.017 6.82268 112.661 6.71262 112.302 6.73476C112.003 6.76304 111.251 6.20383 110.475 5.54167C109.001 4.28455 109.078 1.92351 110.697 0.86124C110.741 0.832207 110.784 0.805697 110.827 0.781711C111.848 0.208172 113.043 0.0155701 114.213 0.000883041C115.274 -0.0124308 116.365 0.121545 117.299 0.625367C118.975 1.52861 119.867 3.50246 119.945 5.40932C120.023 7.31618 119.414 9.18074 118.723 10.9587" fill="#202020"/>
<path d="M135.857 84H0.142857C0.104969 84 0.0686327 83.9849 0.0418418 83.958C0.0150509 83.9311 0 83.8946 0 83.8566C0 83.8186 0.0150509 83.7822 0.0418418 83.7553C0.0686327 83.7284 0.104969 83.7133 0.142857 83.7133H135.857C135.895 83.7133 135.931 83.7284 135.958 83.7553C135.985 83.7822 136 83.8186 136 83.8566C136 83.8946 135.985 83.9311 135.958 83.958C135.931 83.9849 135.895 84 135.857 84Z" fill="#CBCBCB"/>
</svg>
