<svg width="22" height="22" viewBox="0 0 22 22" fill="none" xmlns="http://www.w3.org/2000/svg">
<path d="M13.8418 1.19627C13.4717 0.817518 13.0296 0.516558 12.5415 0.311081C12.0535 0.105604 11.5292 -0.000244141 10.9997 -0.000244141C10.4701 -0.000244141 9.9459 0.105604 9.45783 0.311081C8.96975 0.516558 8.52767 0.817518 8.15756 1.19627L7.30231 2.07352L6.07856 2.0584C5.54884 2.05213 5.02322 2.15184 4.5326 2.35167C4.04198 2.5515 3.59626 2.84741 3.22167 3.22201C2.84707 3.5966 2.55116 4.04231 2.35133 4.53293C2.1515 5.02356 2.05179 5.54918 2.05806 6.0789L2.07181 7.30265L1.19731 8.1579C0.818555 8.52801 0.517595 8.97009 0.312119 9.45817C0.106642 9.94624 0.000793457 10.4705 0.000793457 11C0.000793457 11.5296 0.106642 12.0538 0.312119 12.5419C0.517595 13.03 0.818555 13.472 1.19731 13.8422L2.07319 14.6974L2.05806 15.9212C2.05179 16.4509 2.1515 16.9765 2.35133 17.4671C2.55116 17.9577 2.84707 18.4035 3.22167 18.778C3.59626 19.1526 4.04198 19.4486 4.5326 19.6484C5.02322 19.8482 5.54884 19.9479 6.07856 19.9417L7.30231 19.9279L8.15756 20.8024C8.52767 21.1812 8.96975 21.4821 9.45783 21.6876C9.9459 21.8931 10.4701 21.9989 10.9997 21.9989C11.5292 21.9989 12.0535 21.8931 12.5415 21.6876C13.0296 21.4821 13.4717 21.1812 13.8418 20.8024L14.6971 19.9265L15.9208 19.9417C16.4505 19.9479 16.9762 19.8482 17.4668 19.6484C17.9574 19.4486 18.4031 19.1526 18.7777 18.778C19.1523 18.4035 19.4482 17.9577 19.648 17.4671C19.8479 16.9765 19.9476 16.4509 19.9413 15.9212L19.9276 14.6974L20.8021 13.8422C21.1808 13.472 21.4818 13.03 21.6873 12.5419C21.8927 12.0538 21.9986 11.5296 21.9986 11C21.9986 10.4705 21.8927 9.94624 21.6873 9.45817C21.4818 8.97009 21.1808 8.52801 20.8021 8.1579L19.9262 7.30265L19.9413 6.0789C19.9476 5.54918 19.8479 5.02356 19.648 4.53293C19.4482 4.04231 19.1523 3.5966 18.7777 3.22201C18.4031 2.84741 17.9574 2.5515 17.4668 2.35167C16.9762 2.15184 16.4505 2.05213 15.9208 2.0584L14.6971 2.07215L13.8418 1.19765V1.19627ZM14.2364 9.42428L10.1114 13.5493C10.0476 13.6133 9.97171 13.6641 9.88818 13.6988C9.80466 13.7334 9.71512 13.7513 9.62469 13.7513C9.53426 13.7513 9.44471 13.7334 9.36119 13.6988C9.27767 13.6641 9.2018 13.6133 9.13794 13.5493L7.07544 11.4868C7.01152 11.4229 6.96081 11.347 6.92622 11.2635C6.89162 11.1799 6.87382 11.0904 6.87382 11C6.87382 10.9096 6.89162 10.8201 6.92622 10.7366C6.96081 10.6531 7.01152 10.5772 7.07544 10.5133C7.13936 10.4494 7.21524 10.3987 7.29876 10.3641C7.38228 10.3295 7.47179 10.3117 7.56219 10.3117C7.65258 10.3117 7.7421 10.3295 7.82561 10.3641C7.90913 10.3987 7.98502 10.4494 8.04894 10.5133L9.62469 12.0904L13.2629 8.45078C13.392 8.32168 13.5671 8.24916 13.7497 8.24916C13.9323 8.24916 14.1073 8.32168 14.2364 8.45078C14.3655 8.57987 14.4381 8.75496 14.4381 8.93753C14.4381 9.12009 14.3655 9.29518 14.2364 9.42428Z" fill="#08BEAB"/>
</svg>
