<svg width="120" height="20" viewBox="0 0 120 20" fill="none" xmlns="http://www.w3.org/2000/svg">
<path d="M25.8333 2.5H33.1942C35.6396 2.5 36.8622 3.46573 36.8622 5.3972V14.6028C36.8622 16.5343 35.6396 17.5 33.1942 17.5H25.8333V2.5ZM32.4956 14.2991V5.70093C32.4956 5.35826 32.2876 5.18692 31.8717 5.18692H30.1999V14.8131H31.8717C32.2876 14.8131 32.4956 14.6417 32.4956 14.2991Z" fill="#08BEAB"/>
<path d="M43.6318 2.5H47.3247C49.7701 2.5 50.9927 3.46573 50.9927 5.3972V14.6028C50.9927 16.5343 49.7701 17.5 47.3247 17.5H43.6318C41.1864 17.5 39.9637 16.5343 39.9637 14.6028V5.3972C39.9637 3.46573 41.1864 2.5 43.6318 2.5ZM46.6261 14.0654V5.93458C46.6261 5.5919 46.4181 5.42056 46.0022 5.42056H44.9542C44.5384 5.42056 44.3304 5.5919 44.3304 5.93458V14.0654C44.3304 14.4081 44.5384 14.5794 44.9542 14.5794H46.0022C46.4181 14.5794 46.6261 14.4081 46.6261 14.0654Z" fill="#08BEAB"/>
<path d="M64.8819 8.10748H60.5152V5.70093C60.5152 5.35826 60.3073 5.18692 59.8914 5.18692H59.0181C58.6022 5.18692 58.3943 5.35826 58.3943 5.70093V14.2991C58.3943 14.6417 58.6022 14.8131 59.0181 14.8131H59.8914C60.3073 14.8131 60.5152 14.6417 60.5152 14.2991V11.986H64.8819V14.6028C64.8819 16.5343 63.6592 17.5 61.2139 17.5H57.6956C55.2502 17.5 54.0276 16.5343 54.0276 14.6028V5.3972C54.0276 3.46573 55.2502 2.5 57.6956 2.5H61.2139C63.6592 2.5 64.8819 3.46573 64.8819 5.3972V8.10748Z" fill="#08BEAB"/>
<path d="M74.4666 8.13084V5.70093C74.4666 5.35826 74.2586 5.18692 73.8427 5.18692H72.0462V8.64486H73.8427C74.2586 8.64486 74.4666 8.47352 74.4666 8.13084ZM74.4666 14.2991V11.8458C74.4666 11.5031 74.2586 11.3318 73.8427 11.3318H72.0462V14.8131H73.8427C74.2586 14.8131 74.4666 14.6417 74.4666 14.2991ZM67.7543 2.5H75.0904C77.5357 2.5 78.7584 3.46573 78.7584 5.3972V7.31308C78.7584 8.66822 78.3591 9.54829 77.5607 9.95327C78.0264 10.1402 78.3425 10.4283 78.5089 10.8178C78.6752 11.1916 78.7584 11.7056 78.7584 12.3598V14.6028C78.7584 16.5343 77.5357 17.5 75.0904 17.5H67.7543V2.5Z" fill="#08BEAB"/>
<path d="M90.0275 17.5L89.5285 15.257H85.6858L85.1618 17.5H80.87L84.9871 2.5H90.302L94.4192 17.5H90.0275ZM86.3595 12.3598H88.8548L87.6321 6.96262L86.3595 12.3598Z" fill="#08BEAB"/>
<path d="M102.802 14.0654V11.9393C102.802 11.5966 102.594 11.4252 102.179 11.4252H99.7832C98.5522 11.4252 97.6788 11.176 97.1632 10.6776C96.6641 10.1636 96.4146 9.43146 96.4146 8.48131V5.3972C96.4146 3.46573 97.6289 2.5 100.058 2.5H103.476C105.905 2.5 107.119 3.46573 107.119 5.3972V7.19626H102.753V5.93458C102.753 5.5919 102.545 5.42056 102.129 5.42056H101.405C100.989 5.42056 100.781 5.5919 100.781 5.93458V8.15421C100.781 8.49688 100.989 8.66822 101.405 8.66822H103.751C104.982 8.66822 105.855 8.90966 106.371 9.39252C106.903 9.87539 107.169 10.5841 107.169 11.5187V14.6028C107.169 16.5343 105.955 17.5 103.526 17.5H100.132C97.6872 17.5 96.4645 16.5343 96.4645 14.6028V12.8037H100.831V14.0654C100.831 14.4081 101.039 14.5794 101.455 14.5794H102.179C102.594 14.5794 102.802 14.4081 102.802 14.0654Z" fill="#08BEAB"/>
<path d="M114.535 14.5794H120V17.5H110.169V2.5H119.775V5.42056H114.535V8.48131H119.052V11.4019H114.535V14.5794Z" fill="#08BEAB"/>
<g clip-path="url(#clip0_1460_2)">
<path d="M18.5722 9.61667C18.4148 8.07518 17.3415 6.96582 16.1425 6.96582H0.362594C0.162426 6.96582 0 7.17642 0 7.43639C0 7.69637 0.162426 7.90697 0.362931 7.90697H9.29434C10.1486 7.90697 10.9129 8.71441 10.9958 9.81678C11.0911 11.0813 10.3238 12.1504 9.36747 12.1504H0.362931C0.162426 12.1504 0 12.361 0 12.6206C0 12.8805 0.162426 13.0911 0.362931 13.0911H16.2315C17.635 13.0911 18.7629 11.4824 18.5722 9.61667Z" fill="#08BEAB"/>
<path d="M15.9312 16.5256C15.7739 14.9841 14.7006 13.8748 13.5016 13.8748H0.362931C0.162426 13.8748 0 14.0854 0 14.3453C0 14.6053 0.162426 14.8159 0.362931 14.8159H6.95264C7.8069 14.8159 8.57118 15.6233 8.65407 16.7257C8.74944 17.9902 7.98213 19.0594 7.02577 19.0594H0.363268C0.162763 19.0594 0.000336984 19.27 0.000336984 19.5299C0.000336984 19.7899 0.162763 20.0005 0.363268 20.0005H13.5905C14.9937 20.0001 16.1216 18.3913 15.9312 16.5256Z" fill="#08BEAB"/>
<path d="M15.9312 2.65085C15.7739 1.10936 14.7006 0 13.5016 0H0.362931C0.162426 0 0 0.2106 0 0.470573C0 0.730546 0.162426 0.941146 0.362931 0.941146H6.95298C7.80723 0.941146 8.57151 1.74859 8.65441 2.85096C8.74978 4.11544 7.98247 5.1846 7.02611 5.1846H0.362931C0.162426 5.18417 0 5.39477 0 5.65474C0 5.91471 0.162426 6.12531 0.362931 6.12531H13.5902C14.9937 6.12531 16.1216 4.51654 15.9312 2.65085Z" fill="#08BEAB"/>
</g>
<defs>
<clipPath id="clip0_1460_2">
<rect width="19.1667" height="20" fill="white"/>
</clipPath>
</defs>
</svg>
