<svg width="38" height="38" viewBox="0 0 38 38" fill="none" xmlns="http://www.w3.org/2000/svg">
<path d="M30.0034 18.1758C30.0034 16.1618 29.279 14.7677 28.6591 13.6823L28.4691 13.3736C27.7162 12.1623 27.0584 11.0983 27.0584 9.85858C27.0584 8.36233 28.1936 6.96583 29.7944 6.96583C29.8419 6.96583 29.887 6.97058 29.9321 6.97295L30.0057 6.98008C27.0042 4.22304 23.0756 2.69538 19 2.70033C16.2988 2.69894 13.6398 3.36966 11.2624 4.65203C8.88507 5.93441 6.86414 7.78815 5.38175 10.0462C5.76175 10.0581 6.12513 10.0676 6.4315 10.0676C8.13438 10.0676 10.773 9.86095 10.773 9.86095C11.6518 9.8087 11.7563 11.0983 10.8775 11.2028C10.8775 11.2028 9.99638 11.3073 9.01313 11.3572L14.9506 29.013L18.5131 18.3112L15.9719 11.3548C15.0955 11.3026 14.2643 11.2005 14.2643 11.2005C13.3855 11.1482 13.49 9.80396 14.3664 9.8562C14.3664 9.8562 17.0596 10.0628 18.6604 10.0628C20.3656 10.0628 23.0066 9.8562 23.0066 9.8562C23.8854 9.80396 23.9875 11.096 23.1087 11.2005C23.1087 11.2005 22.2252 11.3026 21.2444 11.3548L27.1344 28.8752L28.7589 23.4436L28.8871 23.0327C29.5284 20.9902 30.001 19.4821 30.001 18.1735L30.0034 18.1758ZM2.70038 19C2.70021 22.0607 3.56174 25.0597 5.18636 27.6537C6.81098 30.2477 9.13306 32.332 11.8869 33.668L4.10875 12.3642C3.17735 14.4523 2.69742 16.7136 2.70038 19Z" fill="#202020"/>
<path d="M14.3949 34.6346L19.2874 20.425L24.2963 34.1525C24.3295 34.2308 24.3675 34.3045 24.4126 34.3757C21.1837 35.5133 17.6783 35.6038 14.3949 34.6346ZM33.2999 11.1791C33.3711 11.6992 33.4115 12.255 33.4115 12.8558C33.4115 14.5088 33.1028 16.3685 32.1718 18.6936L27.1938 33.0861C30.8672 30.9518 33.5617 27.4671 34.7028 23.3747C35.8438 19.2824 35.3413 14.9062 33.3023 11.1791H33.2999Z" fill="#202020"/>
<path fill-rule="evenodd" clip-rule="evenodd" d="M0 19C0 8.52388 8.52388 0 19 0C29.4737 0 38 8.52388 38 19C38 29.4761 29.4737 38 19 38C8.52388 38 0 29.4761 0 19ZM0.871625 19C0.871625 28.9964 9.00362 37.1284 19 37.1284C28.994 37.1284 37.126 28.9964 37.126 19C37.126 9.00125 28.994 0.871625 19 0.871625C9.00125 0.871625 0.871625 9.00125 0.871625 19Z" fill="#202020"/>
</svg>
