<svg width="38" height="38" viewBox="0 0 38 38" fill="none" xmlns="http://www.w3.org/2000/svg">
<path d="M18.9703 0.00344235C9.73109 -0.185396 1.10964 7.42026 0.148579 16.631C-0.867043 24.4207 3.40348 32.6372 10.528 36.0321C17.2554 39.4174 25.979 38.3979 31.5583 33.2603C37.1926 28.3117 39.5467 19.891 36.94 12.7989C34.5434 5.80851 27.8404 0.48456 20.4265 0.0587172C19.942 0.0229222 19.4561 0.0030313 18.9703 0.0030313L18.9703 0.00344235ZM18.7552 2.05338C27.2272 1.73389 35.1898 8.80856 35.8537 17.2803C36.669 24.7518 31.9748 32.4921 24.8312 34.9543C17.8869 37.5257 9.3629 35.0259 5.16884 28.8405C0.864235 22.8022 1.0352 13.8892 5.91942 8.22425C9.04551 4.45344 13.8421 2.07169 18.7552 2.0534V2.05338ZM19.0916 3.90112C11.2544 3.65142 4.0441 10.542 3.90252 18.3908C3.55705 25.4834 8.80612 32.4437 15.8182 33.7947C22.3154 35.2189 29.575 31.8763 32.4737 25.8244C35.4717 19.9137 34.1309 12.048 29.0158 7.73041C26.3055 5.3262 22.7205 3.90511 19.0916 3.90112ZM18.9994 5.91588C25.9082 5.73296 32.2005 11.9593 32.0897 18.8849C32.2119 25.2872 27.0663 31.372 20.6472 32.0175C14.6205 32.8099 8.26625 28.9399 6.53355 23.0356C4.71735 17.4103 7.10352 10.6348 12.3376 7.73836C14.3444 6.55446 16.6691 5.9121 18.9994 5.91588ZM19.0062 10.102C16.3205 14.9433 13.6234 19.7781 10.9332 24.6168H27.079L19.0061 10.102H19.0062Z" fill="#202020"/>
</svg>
