<svg width="24" height="21" viewBox="0 0 24 21" fill="none" xmlns="http://www.w3.org/2000/svg">
<g clip-path="url(#clip0_1032_60)">
<path d="M24 10.5001C24 13.3061 22.8986 15.944 20.8986 17.9283C16.77 22.0241 10.0521 22.0241 5.92324 17.9283C5.44906 17.4576 5.44875 16.695 5.92324 16.2243C6.39741 15.7539 7.16642 15.7539 7.6406 16.2243C10.8223 19.3805 15.9992 19.3805 19.1809 16.2243C20.7223 14.6952 21.5711 12.6623 21.5711 10.5001C21.5711 8.33778 20.7223 6.30491 19.1809 4.77579C17.6396 3.24667 15.5904 2.40467 13.4108 2.40467C11.2311 2.40467 9.18198 3.24667 7.6406 4.77579L2.0733 10.2988C1.59912 10.7692 0.830115 10.7692 0.355633 10.2988C-0.118544 9.8281 -0.118544 9.06551 0.355633 8.5948L5.92293 3.07179C10.0518 -1.02425 16.7697 -1.02425 20.8983 3.07179C22.8983 5.05585 24 7.694 24 10.5001Z" fill="#FF3D4F"/>
<path d="M19.7369 10.4999C19.7369 12.1763 19.0788 13.7524 17.8838 14.9378C16.6889 16.1232 15.1002 16.7761 13.4103 16.7761C11.7205 16.7761 10.1317 16.1232 8.93681 14.9378C8.46263 14.4668 8.46263 13.7042 8.93681 13.2338C9.41099 12.7634 10.18 12.7634 10.6542 13.2338C11.3905 13.964 12.3691 14.3665 13.41 14.3665C14.4509 14.3665 15.4299 13.9643 16.1659 13.2338C16.9019 12.5037 17.3073 11.5326 17.3073 10.4999C17.3073 9.46726 16.9019 8.49614 16.1659 7.76598C14.6462 6.25838 12.1736 6.25838 10.6539 7.76598C10.1797 8.23639 9.41068 8.23639 8.9362 7.76598C8.46202 7.29527 8.46202 6.53268 8.9362 6.06198C11.4027 3.61508 15.4164 3.61508 17.8829 6.06198C19.0788 7.24769 19.7369 8.82348 19.7369 10.4999Z" fill="#FF3D4F"/>
</g>
<defs>
<clipPath id="clip0_1032_60">
<rect width="24" height="21" fill="white"/>
</clipPath>
</defs>
</svg>
