<svg width="75" height="66" viewBox="0 0 75 66" fill="none" xmlns="http://www.w3.org/2000/svg">
<path d="M31.7578 6.14637C31.3379 6.27332 30.7617 6.65418 30.4395 7.02528C30.1465 7.35731 29.7852 8.17762 29.7852 8.53895C29.7852 8.72449 29.7461 8.92957 29.707 8.98817C29.668 9.05653 29.1699 9.11512 28.457 9.14442C27.4707 9.18348 27.1875 9.23231 26.7383 9.43739C26.084 9.74012 25.5371 10.2772 25.2539 10.8729L25.0488 11.3222V30.9999V50.6776L25.2539 51.1268C25.5371 51.7225 26.084 52.2597 26.7383 52.5624C27.1875 52.7675 27.4707 52.8163 28.457 52.8554C29.1699 52.8847 29.668 52.9432 29.707 53.0116C29.7461 53.0702 29.7852 53.2753 29.7852 53.4608C29.7949 54.2518 30.5566 55.2968 31.4355 55.7265L31.8848 55.9511L49.2676 55.9804C68.4961 55.9999 67.207 56.0487 68.0957 55.3651C68.4082 55.121 68.6328 54.828 68.8672 54.369L69.1894 53.705V49.037V44.3593L68.916 44.1249C68.584 43.8417 68.2617 43.8222 67.959 44.0761L67.7246 44.2616L67.6758 48.8905L67.6269 53.5097L67.3926 53.8417C66.9336 54.4765 68.1836 54.4374 49.4531 54.4374C33.8086 54.4374 32.373 54.4276 32.0605 54.2811C31.3379 53.9296 31.4062 55.58 31.3477 36.3612C31.2988 19.8866 31.2891 19.0956 31.123 18.91C30.7129 18.4511 29.9609 18.6464 29.7949 19.2518C29.7168 19.5057 29.6875 24.5643 29.6875 35.414V51.2147H28.5937C27.3242 51.2147 26.9434 51.0682 26.6992 50.4823C26.4941 49.9745 26.4941 12.0253 26.6992 11.5175C26.9434 10.9315 27.3242 10.785 28.584 10.785H29.6777L29.707 13.6757L29.7363 16.5663L30.0098 16.8007C30.4785 17.2011 31.0352 17.0643 31.25 16.5077C31.3086 16.3417 31.3477 14.8085 31.3477 12.3671C31.3477 8.74403 31.3574 8.47059 31.5332 8.18739C31.9434 7.51356 30.5371 7.56239 49.4531 7.56239C68.1836 7.56239 66.9336 7.52332 67.3926 8.15809L67.6269 8.49012L67.6562 20.8143L67.6758 33.1386L64.4434 37.4647C62.666 39.8475 61.1719 41.83 61.1328 41.8788C61.084 41.9179 60.459 41.1659 59.7266 40.1991C59.0039 39.2323 58.2617 38.3241 58.0859 38.1972C57.4023 37.6796 56.4355 37.4843 55.6055 37.6991C53.8184 38.1581 52.9102 40.1405 53.75 41.7518C54.0918 42.4159 58.9258 48.8124 59.2676 49.0565C59.4238 49.164 59.7656 49.3495 60.0195 49.4667C60.918 49.8475 62.2168 49.6229 62.9785 48.9393C63.3398 48.6073 74.6191 33.5487 74.7656 33.1874C75.293 31.9179 74.7949 30.3261 73.6328 29.6132C72.3144 28.7929 70.7227 29.1347 69.707 30.453L69.2871 30.9999L69.2383 19.6425L69.1894 8.29481L68.8672 7.63074C68.6328 7.17176 68.4082 6.87879 68.0957 6.63465C67.207 5.95106 68.4961 5.99989 49.4238 6.00965C35.3223 6.00965 32.0996 6.03895 31.7578 6.14637ZM72.8516 30.9901C72.9883 31.078 73.1738 31.3124 73.2715 31.4979C73.6523 32.2206 73.8281 31.9472 67.7344 40.0624C64.6484 44.1932 62.0019 47.66 61.875 47.787C61.5527 48.0897 60.8789 48.1679 60.459 47.953C60.2441 47.8358 59.375 46.7616 57.6562 44.4569C55.2051 41.1952 54.9805 40.8534 54.9805 40.453C54.9805 40.1112 55.293 39.5741 55.6055 39.3886C56.0352 39.1249 56.7578 39.1444 57.0801 39.4179C57.2168 39.5448 58.0469 40.5897 58.916 41.7421C60.6152 43.9979 60.8496 44.2128 61.3379 43.9784C61.5234 43.8905 63.1738 41.7518 66.2207 37.6893C68.75 34.3007 70.9375 31.41 71.084 31.2538C71.5918 30.6972 72.2949 30.5897 72.8516 30.9901Z" fill="#F1962F"/>
<path d="M37.5489 15.5898C37.0509 15.873 36.963 16.4102 37.3536 16.791L37.588 17.0352H49.463H61.338L61.5723 16.791C61.7286 16.6445 61.8165 16.4395 61.8165 16.2539C61.8165 16.0684 61.7286 15.8633 61.5723 15.7168L61.338 15.4727H49.5411C40.8497 15.4824 37.6954 15.5117 37.5489 15.5898Z" fill="#F1962F"/>
<path d="M43.2812 19.8281C43.1542 19.916 43.0175 20.0918 42.9687 20.2188C42.8613 20.502 43.0175 21.0098 43.2617 21.1367C43.3789 21.1953 45.7421 21.2344 49.5117 21.2344H55.5761L55.8105 20.9902C56.1914 20.6191 56.0742 19.9941 55.5957 19.7793C55.4296 19.7012 53.5742 19.6719 49.4335 19.6719C44.1503 19.6719 43.4765 19.6914 43.2812 19.8281Z" fill="#F1962F"/>
<path d="M37.3535 26.2637C36.9628 26.6543 37.0605 27.2012 37.5683 27.4648C37.7245 27.5527 40.0292 27.582 46.3769 27.582H54.9706L55.2245 27.3574C55.5663 27.0742 55.5859 26.5957 55.2734 26.2637L55.0488 26.0195H46.3183H37.5878L37.3535 26.2637Z" fill="#F1962F"/>
<path d="M59.5508 26.1562C59.2969 26.3418 59.1699 26.7617 59.2773 27.0352C59.4336 27.4551 59.7363 27.582 60.5762 27.582C61.25 27.582 61.3672 27.5527 61.5723 27.3379C61.7285 27.1914 61.8164 26.9863 61.8164 26.8008C61.8164 26.6152 61.7285 26.4102 61.5723 26.2637C61.3574 26.0391 61.2598 26.0195 60.5273 26.0195C60.0195 26.0293 59.6582 26.0684 59.5508 26.1562Z" fill="#F1962F"/>
<path d="M37.3633 30.4727C37.2168 30.6289 37.1094 30.8438 37.1094 31C37.1094 31.1562 37.2168 31.3711 37.3633 31.5273L37.627 31.7812H46.2891C54.9121 31.7812 54.9512 31.7812 55.2148 31.5762C55.5762 31.293 55.5762 30.707 55.2148 30.4238C54.9512 30.2188 54.9121 30.2188 46.2891 30.2188H37.627L37.3633 30.4727Z" fill="#F1962F"/>
<path d="M59.5117 30.4434C59.3164 30.6094 59.248 30.7656 59.248 31C59.248 31.2344 59.3164 31.3906 59.5117 31.5566C59.7461 31.752 59.8828 31.7812 60.5566 31.7812C61.2597 31.7812 61.3574 31.752 61.5722 31.5371C61.7285 31.3906 61.8164 31.1855 61.8164 31C61.8164 30.8145 61.7285 30.6094 61.5722 30.4629C61.3574 30.248 61.2597 30.2188 60.5566 30.2188C59.8828 30.2188 59.7461 30.248 59.5117 30.4434Z" fill="#F1962F"/>
<path d="M37.7246 41.8105C37.4414 41.8691 37.1094 42.289 37.1094 42.5819C37.1094 42.6991 37.2168 42.9335 37.3438 43.08L37.5781 43.3534H43.6816C50.2539 43.3534 50 43.373 50.2051 42.8456C50.2539 42.7187 50.2441 42.5038 50.1758 42.3183C49.9707 41.7323 50.0195 41.7421 43.6816 41.7519C40.5273 41.7616 37.8418 41.7909 37.7246 41.8105Z" fill="#F1962F"/>
<path d="M37.3535 46.2832C37.041 46.5859 37.041 46.9277 37.3437 47.2793L37.5781 47.5527L39.8046 47.582C41.0351 47.6016 42.1289 47.5918 42.2558 47.5527C42.8418 47.4063 43.0664 46.6543 42.6464 46.2539C42.4218 46.0488 42.3535 46.0391 40 46.0391H37.5879L37.3535 46.2832Z" fill="#F1962F"/>
<path opacity="0.1" d="M60.754 0H5.42908C2.50567 0 0.20583 2.4972 0.445975 5.41073L4.03047 48.8991C4.19143 50.8519 5.47822 52.5307 7.32215 53.1936L38.3247 64.3382C40.8908 65.2607 43.7229 63.9569 44.6906 61.4074L65.4285 6.77439C66.6705 3.50261 64.2535 0 60.754 0Z" fill="#F1962F"/>
</svg>
