<svg width="68" height="66" viewBox="0 0 68 66" fill="none" xmlns="http://www.w3.org/2000/svg">
<path opacity="0.1" d="M60.754 0H5.42908C2.50567 0 0.20583 2.4972 0.445975 5.41073L4.03047 48.8991C4.19143 50.8519 5.47822 52.5307 7.32215 53.1936L38.3247 64.3382C40.8908 65.2607 43.7229 63.9569 44.6906 61.4074L65.4285 6.77439C66.6705 3.50261 64.2535 0 60.754 0Z" fill="#08BEAB"/>
<path d="M51.2383 6.49797C50.9844 6.69328 50.9844 6.71281 50.9844 8.00187C50.9844 9.29094 50.9844 9.31047 51.2383 9.50578C51.5801 9.77922 51.9121 9.75969 52.2051 9.46672C52.4395 9.24211 52.4492 9.17375 52.4492 8.00187C52.4492 6.83 52.4395 6.76164 52.2051 6.53703C51.9121 6.24406 51.5801 6.22453 51.2383 6.49797Z" fill="#08BEAB"/>
<path d="M43.7384 8.67571C43.4259 8.83196 43.2403 9.24212 43.3575 9.53509C43.4063 9.65228 43.8263 10.1308 44.2852 10.58C45.1934 11.4882 45.5157 11.6054 45.9259 11.1952C46.3458 10.7851 46.2188 10.4726 45.2716 9.51556C44.3927 8.62689 44.1192 8.4804 43.7384 8.67571Z" fill="#08BEAB"/>
<path d="M59.0117 8.70503C58.6016 8.90035 57.3516 10.2285 57.2734 10.5507C57.1367 11.0683 57.7129 11.5761 58.2207 11.3808C58.3477 11.332 58.8164 10.9218 59.2656 10.4628C60.0859 9.61324 60.2031 9.3691 59.9687 8.92964C59.8125 8.63667 59.3633 8.53902 59.0117 8.70503Z" fill="#08BEAB"/>
<path d="M49.9981 11.3223C46.7949 11.957 44.6367 14.6035 44.6367 17.8848V18.6563L43.9336 18.832C43.543 18.9297 42.9473 19.125 42.6055 19.252L42 19.4961L41.3457 19.2324C40.0859 18.7344 38.0156 18.3145 35.5059 18.0606C33.543 17.8555 32.9668 17.8652 32.7227 18.1094C32.459 18.3731 32.4688 18.8418 32.752 19.125C32.9473 19.3203 33.1133 19.3594 34.0898 19.418C36.6875 19.5742 39.4805 20.0723 40.8574 20.6191L41.2188 20.7656V34.4375C41.2188 47.416 41.209 48.1094 41.043 48.041C40.0469 47.6602 37.625 47.1523 35.6035 46.8984C33.9727 46.7031 28.9141 46.7324 27.3516 46.9473C25.8574 47.1621 24.168 47.5234 23.0352 47.8945L22.1758 48.168V34.6719C22.1758 24.0664 22.2051 21.1367 22.3027 20.9414C22.5762 20.4043 25.3789 19.7207 28.4648 19.4473C29.8711 19.3203 29.9297 19.3106 30.1543 19.0371C30.623 18.4902 30.2129 17.9141 29.3535 17.9141C27.9961 17.9141 25.584 18.2656 23.8359 18.7051C21.873 19.2129 21.1211 19.6816 20.8574 20.5898C20.7793 20.8535 20.7109 21.1953 20.7109 21.3516C20.7109 21.5957 20.6816 21.625 20.3887 21.625C19.0703 21.625 17.6738 22.7285 17.2051 24.1348C17 24.7402 17 24.8184 17 38.0996C17 49.5449 17.0195 51.5469 17.1465 52.0742C17.5273 53.6758 18.6504 54.8965 20.252 55.4531L20.8574 55.6582L35.5645 55.6875L50.2715 55.707L50.5254 55.502C50.8672 55.2383 50.8867 54.7305 50.5742 54.4375C50.3691 54.252 50.252 54.2422 46.5703 54.2422H42.7813V53.1191V51.9961L52.1856 51.9766L61.5801 51.9473L62.0488 51.7129C62.5566 51.4688 62.9473 51.0195 63.1523 50.4629C63.2598 50.1602 63.2793 47.6113 63.2891 36.5859V23.0898H63.5625C64.2754 23.0996 65.2129 23.8906 65.4277 24.6816C65.5156 24.9844 65.5352 28.5586 65.5156 38.4219L65.4863 51.752L65.1641 52.4063C64.793 53.1582 64.2559 53.6563 63.4648 53.9785C62.9668 54.1836 62.7715 54.1934 58.0352 54.2422L53.1133 54.291L52.9277 54.5254C52.7129 54.7891 52.7031 54.916 52.8496 55.2578C53.0645 55.707 53.1914 55.7168 58.3184 55.6875C62.9277 55.6582 63.1719 55.6387 63.7481 55.4434C64.9102 55.0527 65.9453 54.1934 66.4531 53.1777C67.0293 52.0547 67.0098 52.6309 66.9805 37.9141L66.9512 24.4082L66.6387 23.7539C66.0918 22.582 65.0078 21.7715 63.8359 21.6543C63.3184 21.6055 63.2891 21.5859 63.2891 21.332C63.2891 20.4824 62.791 19.7109 61.9707 19.3008C61.6094 19.125 59.8516 18.5977 59.1289 18.4512L58.8262 18.3926L58.7578 17.5332C58.5137 14.252 56.541 11.9961 53.3379 11.3125C52.5371 11.1465 50.8574 11.1465 49.9981 11.3223ZM53.7188 12.9336C56.209 13.7734 57.6055 16.0684 57.2344 18.7051C57.0879 19.75 56.6484 20.5898 55.4375 22.1133C54.2852 23.5684 53.7676 24.4961 53.5918 25.4141L53.4746 26.0195H52.9668H52.4492V23.4805V20.9414H52.9863C54.002 20.9414 54.4805 20.541 54.2461 19.877C54.0801 19.418 53.8457 19.3691 51.5606 19.3984C49.6367 19.4277 49.4219 19.4473 49.2363 19.6133C48.9629 19.8672 48.9531 20.4531 49.2266 20.6973C49.3731 20.8242 49.6367 20.8926 50.2031 20.9219L50.9844 20.9707V23.4902V26.0195H50.457H49.9395L49.7832 25.3555C49.5391 24.3691 49.0313 23.4609 47.9473 22.1133C46.4043 20.1797 46.0234 19.2422 46.1309 17.5723C46.2578 15.5606 47.1856 14.1055 48.875 13.2754C49.8711 12.7773 50.6231 12.6406 51.9609 12.6797C52.7813 12.709 53.2598 12.7773 53.7188 12.9336ZM60.1152 20.2188C61.3359 20.5703 61.6191 20.6973 61.7266 20.9902C61.7852 21.1563 61.8242 26.0293 61.8242 34.7109V48.168L60.9258 47.875C59.7637 47.5039 58.1621 47.1621 56.5898 46.9473C54.9785 46.7324 50.0176 46.7031 48.3965 46.8984C46.375 47.1523 43.9531 47.6602 42.957 48.041C42.791 48.1094 42.7813 47.416 42.7813 34.4375V20.7656L43.1719 20.6094C43.3965 20.5215 43.8652 20.3652 44.2363 20.2676L44.9004 20.082L45.3105 20.8828C45.5352 21.3223 46.1504 22.2207 46.6875 22.8945C47.7324 24.2031 48.1621 24.916 48.3379 25.668C48.4063 25.9316 48.4453 26.1465 48.4258 26.1563C48.0156 26.3906 47.5273 26.8008 47.332 27.0742C46.9805 27.5918 46.8828 27.9141 46.8828 28.5684C46.8828 29.6035 47.3516 30.3457 48.2891 30.8047L48.9043 31.1074L51.8242 31.0781C54.4512 31.0488 54.7832 31.0293 55.0859 30.8633C55.5645 30.6094 56.043 30.1406 56.2871 29.6816C56.5703 29.1641 56.5801 27.9922 56.3164 27.4844C56.0918 27.0449 55.6035 26.5273 55.2422 26.3418C54.9883 26.2148 54.9688 26.166 55.0176 25.8047C55.1055 25.1699 55.6328 24.2227 56.4922 23.1484C57.6934 21.6738 58.1133 20.9902 58.4453 20.0234C58.5137 19.8086 58.7285 19.8379 60.1152 20.2188ZM20.7305 36.7422L20.7598 50.4043L21.0527 50.8828C21.2383 51.1758 21.5313 51.4688 21.8242 51.6543L22.3027 51.9473L31.7656 51.9766L41.2188 51.9961V53.1289V54.252L31.1406 54.2227C19.8613 54.1836 20.6914 54.2422 19.6855 53.4805C19.334 53.2168 19.0996 52.9336 18.8555 52.4453L18.5137 51.7715L18.4844 38.3926C18.4551 23.4902 18.416 24.4375 19.1289 23.7441C19.5293 23.3535 20.0371 23.0996 20.4375 23.0898H20.7109L20.7305 36.7422ZM54.5 27.6309C54.8125 27.7969 55.0859 28.2266 55.0859 28.5586C55.0859 28.8906 54.8125 29.3301 54.4902 29.4863C54.2461 29.623 53.7969 29.6328 51.5606 29.6133L48.9141 29.584L48.6309 29.2617C48.2109 28.8027 48.2305 28.2656 48.6797 27.8164L49.0117 27.4844H51.6094C53.7481 27.4844 54.2656 27.5137 54.5 27.6309ZM35.7793 48.4316C37.5273 48.6465 38.8652 48.9199 40.1348 49.3105L41.2188 49.6621V50.0918V50.5313H31.9805H22.7422L22.459 50.248C22.3027 50.0918 22.1758 49.916 22.1758 49.8574C22.1758 49.75 22.957 49.4473 24.0996 49.1152C25.4375 48.7246 26.7461 48.5098 29.3535 48.2461C30.2031 48.1582 34.5977 48.2852 35.7793 48.4316ZM56.4434 48.4316C58.0156 48.627 59.2754 48.9004 60.5547 49.3203C61.8242 49.7305 61.8731 49.7598 61.7363 50.0234C61.4531 50.5605 61.9609 50.5313 51.9902 50.5313H42.7813V50.1016V49.6719L43.543 49.4277C45.5059 48.7832 47.0879 48.5098 50.2031 48.2461C51.2188 48.1582 55.3008 48.2754 56.4434 48.4316Z" fill="#08BEAB"/>
<path d="M50.33 34.8086C48.1327 35.0234 46.0526 35.5703 45.5155 36.0781C45.1542 36.4199 45.1347 36.7812 45.4667 37.1035C45.7597 37.4062 45.9452 37.4062 46.5995 37.1133C47.9374 36.5273 49.8612 36.2441 52.4491 36.2441C54.7343 36.2441 56.1698 36.4492 57.6151 36.9668C58.7772 37.3867 58.9042 37.3965 59.2167 37.1523C59.5585 36.8789 59.578 36.4004 59.2655 36.1074C58.8065 35.707 57.3319 35.248 55.5741 34.9551C54.4511 34.7695 51.5604 34.6914 50.33 34.8086Z" fill="#08BEAB"/>
<path d="M49.7149 40.2871C47.9375 40.4922 45.9551 41.0586 45.4668 41.5078C45.1446 41.8008 45.1446 42.2207 45.4571 42.5137C45.75 42.7871 45.9747 42.7676 47.1758 42.3477C48.6797 41.8203 49.6661 41.6934 52.4493 41.7031C55.2032 41.7031 56.0235 41.8105 57.7618 42.4258C58.211 42.5918 58.6993 42.7188 58.836 42.7188C59.3829 42.7188 59.6758 41.9961 59.3145 41.5566C58.9727 41.1562 56.9707 40.5605 55.1836 40.3164C54.0606 40.1699 50.9161 40.1504 49.7149 40.2871Z" fill="#08BEAB"/>
<path d="M29.6074 23.9687C27.6641 24.164 25.2227 24.8085 24.7441 25.2577C24.4219 25.5605 24.4414 26.039 24.7832 26.3124C25.0957 26.5566 25.2227 26.5468 26.3848 26.1269C27.8301 25.6093 29.2559 25.4042 31.5508 25.4042C34.1777 25.4042 35.8184 25.6484 37.3906 26.2831C38.123 26.5663 38.4355 26.5273 38.6699 26.0976C39.1387 25.2773 37.7129 24.5448 34.8223 24.1152C33.5527 23.9296 30.8379 23.8515 29.6074 23.9687Z" fill="#08BEAB"/>
<path d="M29.0801 29.4376C27.6055 29.6231 25.8477 30.0821 25.0078 30.4923C24.4024 30.795 24.3535 31.586 24.9297 31.8204C25.1934 31.9376 25.3301 31.9181 26.3164 31.5763C27.8594 31.0489 28.8555 30.8927 31.0625 30.8341C33.6699 30.7657 35.9356 31.0684 37.3614 31.6837C37.6153 31.7911 37.9473 31.879 38.0938 31.879C38.6211 31.879 38.9727 31.2052 38.6504 30.8048C38.3086 30.3751 37.0293 29.9161 35.3594 29.6134C34.1094 29.3888 30.3106 29.2813 29.0801 29.4376Z" fill="#08BEAB"/>
<path d="M30.0371 34.7694C27.5566 35.0135 25.3398 35.5702 24.7441 36.1073C24.4219 36.4002 24.4414 36.8788 24.7832 37.1522C25.0957 37.3963 25.2227 37.3866 26.3848 36.9666C28.0937 36.3514 30.8769 36.0682 33.2109 36.2635C35.2129 36.4393 36.3359 36.6834 37.7812 37.2596C38.0547 37.3768 38.1426 37.367 38.3672 37.2498C38.7285 37.0448 38.8652 36.6248 38.6797 36.3026C38.3965 35.8045 36.8144 35.2381 34.8711 34.9549C33.875 34.8084 30.8184 34.6913 30.0371 34.7694Z" fill="#08BEAB"/>
<path d="M28.7188 40.3262C27.0098 40.5605 25.0176 41.1758 24.6954 41.5566C24.3243 41.9961 24.6172 42.7188 25.1641 42.7188C25.3008 42.7188 25.7891 42.5918 26.2383 42.4258C27.9864 41.8105 28.7969 41.7031 31.5508 41.7031C34.334 41.7031 35.3399 41.8203 36.8243 42.3477C38.0547 42.7773 38.3086 42.7969 38.5723 42.4746C38.8458 42.1133 38.836 41.7812 38.5333 41.5078C38.0254 41.0391 36.0919 40.4922 34.168 40.2871C32.8985 40.1406 29.8711 40.1699 28.7188 40.3262Z" fill="#08BEAB"/>
</svg>
