<svg width="19" height="19" viewBox="0 0 19 19" fill="none" xmlns="http://www.w3.org/2000/svg">
<path d="M15.4167 8.16671V5.41671C15.4167 4.40562 14.5944 3.58337 13.5833 3.58337H10.8333C10.8333 2.06721 9.5995 0.833374 8.08333 0.833374C6.56717 0.833374 5.33333 2.06721 5.33333 3.58337H2.58333C1.57225 3.58337 0.75 4.40562 0.75 5.41671V9.08337H1.66667C2.1529 9.08337 2.61921 9.27653 2.96303 9.62035C3.30685 9.96416 3.5 10.4305 3.5 10.9167C3.5 11.4029 3.30685 11.8693 2.96303 12.2131C2.61921 12.5569 2.1529 12.75 1.66667 12.75H0.75V16.4167C0.75 17.4278 1.57225 18.25 2.58333 18.25H6.25V17.3334C6.25 16.8471 6.44316 16.3808 6.78697 16.037C7.13079 15.6932 7.5971 15.5 8.08333 15.5C8.56956 15.5 9.03588 15.6932 9.3797 16.037C9.72351 16.3808 9.91667 16.8471 9.91667 17.3334V18.25H13.5833C14.5944 18.25 15.4167 17.4278 15.4167 16.4167V13.6667C16.9328 13.6667 18.1667 12.4329 18.1667 10.9167C18.1667 9.40054 16.9328 8.16671 15.4167 8.16671Z" fill="#08BEAB"/>
</svg>
