<svg width="22" height="18" viewBox="0 0 22 18" fill="none" xmlns="http://www.w3.org/2000/svg">
<path d="M0 14.5V3.5C0 2.77065 0.289731 2.07118 0.805456 1.55546C1.32118 1.03973 2.02065 0.75 2.75 0.75H19.25C19.9793 0.75 20.6788 1.03973 21.1945 1.55546C21.7103 2.07118 22 2.77065 22 3.5V14.5C22 15.2293 21.7103 15.9288 21.1945 16.4445C20.6788 16.9603 19.9793 17.25 19.25 17.25H2.75C2.02065 17.25 1.32118 16.9603 0.805456 16.4445C0.289731 15.9288 0 15.2293 0 14.5ZM8.9375 4.875C8.39049 4.875 7.86589 5.0923 7.47909 5.47909C7.0923 5.86589 6.875 6.39049 6.875 6.9375V11.0625C6.875 11.6095 7.0923 12.1341 7.47909 12.5209C7.86589 12.9077 8.39049 13.125 8.9375 13.125H13.0625C13.6095 13.125 14.1341 12.9077 14.5209 12.5209C14.9077 12.1341 15.125 11.6095 15.125 11.0625V6.9375C15.125 6.39049 14.9077 5.86589 14.5209 5.47909C14.1341 5.0923 13.6095 4.875 13.0625 4.875H8.9375Z" fill="#08BEAB"/>
</svg>
