<svg width="14" height="14" viewBox="0 0 14 14" fill="none" xmlns="http://www.w3.org/2000/svg">
<path d="M14 1.75C14 1.28587 13.8156 0.840752 13.4874 0.512563C13.1592 0.184374 12.7141 0 12.25 0L1.75 0C1.28587 0 0.840752 0.184374 0.512563 0.512563C0.184374 0.840752 0 1.28587 0 1.75L0 8.75C0 9.21413 0.184374 9.65925 0.512563 9.98744C0.840752 10.3156 1.28587 10.5 1.75 10.5H10.1378C10.3698 10.5 10.5923 10.5923 10.7564 10.7564L13.2528 13.2528C13.3139 13.314 13.3918 13.3558 13.4767 13.3728C13.5616 13.3898 13.6496 13.3812 13.7296 13.3481C13.8096 13.315 13.878 13.259 13.9262 13.187C13.9743 13.1151 14 13.0304 14 12.9439V1.75ZM4.375 5.25C4.375 5.48206 4.28281 5.70462 4.11872 5.86872C3.95462 6.03281 3.73206 6.125 3.5 6.125C3.26794 6.125 3.04538 6.03281 2.88128 5.86872C2.71719 5.70462 2.625 5.48206 2.625 5.25C2.625 5.01794 2.71719 4.79538 2.88128 4.63128C3.04538 4.46719 3.26794 4.375 3.5 4.375C3.73206 4.375 3.95462 4.46719 4.11872 4.63128C4.28281 4.79538 4.375 5.01794 4.375 5.25ZM7.875 5.25C7.875 5.48206 7.78281 5.70462 7.61872 5.86872C7.45462 6.03281 7.23206 6.125 7 6.125C6.76794 6.125 6.54538 6.03281 6.38128 5.86872C6.21719 5.70462 6.125 5.48206 6.125 5.25C6.125 5.01794 6.21719 4.79538 6.38128 4.63128C6.54538 4.46719 6.76794 4.375 7 4.375C7.23206 4.375 7.45462 4.46719 7.61872 4.63128C7.78281 4.79538 7.875 5.01794 7.875 5.25ZM10.5 6.125C10.2679 6.125 10.0454 6.03281 9.88128 5.86872C9.71719 5.70462 9.625 5.48206 9.625 5.25C9.625 5.01794 9.71719 4.79538 9.88128 4.63128C10.0454 4.46719 10.2679 4.375 10.5 4.375C10.7321 4.375 10.9546 4.46719 11.1187 4.63128C11.2828 4.79538 11.375 5.01794 11.375 5.25C11.375 5.48206 11.2828 5.70462 11.1187 5.86872C10.9546 6.03281 10.7321 6.125 10.5 6.125Z" fill="#696969"/>
</svg>
