<svg width="136" height="84" viewBox="0 0 136 84" fill="none" xmlns="http://www.w3.org/2000/svg">
<path opacity="0.2" d="M135.712 63.4222C135.002 67.7677 132.801 71.9855 129.169 74.6545C125.596 77.2833 121.016 78.2173 116.596 79.0202C111.294 79.9843 105.978 80.8656 100.647 81.6641C99.8918 81.78 99.1356 81.8919 98.3788 82H67.3298C67.2984 81.9597 67.2653 81.9177 67.2339 81.8757C67.1833 81.8052 67.1327 81.7346 67.0838 81.6641C67.0559 81.6237 67.028 81.5817 67 81.5398H86.4754C87.0281 81.5393 87.5579 81.3279 87.9489 80.9519C88.3398 80.5759 88.5599 80.0661 88.5609 79.5342V54.5129C88.6865 54.1333 88.8034 53.752 88.9099 53.3657C89.4065 51.5667 89.7296 49.7275 89.8749 47.8713C89.9796 46.5779 90.0111 45.2845 89.9883 43.9895C89.9238 40.4301 89.4404 36.8708 88.9151 33.3366C88.8767 33.0763 88.8366 32.8142 88.7982 32.5539C88.4282 30.0981 88.0914 27.4257 89.3775 25.2739C90.8487 22.8115 94.1138 21.7851 97.0543 22.0371C102.344 22.4923 106.799 26.391 109.115 30.9917C111.429 35.5908 111.947 40.8215 112.158 45.9279C112.27 48.6356 112.258 51.4642 111.865 54.1804C113.191 51.261 114.519 48.3416 115.847 45.4223C116.556 43.8652 117.301 42.2577 118.613 41.1188C121.357 38.7353 125.894 39.2157 128.824 41.3859C131.752 43.5578 133.358 46.9894 134.426 50.3943C135.749 54.6053 136.424 59.0768 135.712 63.4222Z" fill="#08BEAB"/>
<path d="M123.738 39.38C125.634 42.7219 126.503 46.5539 126.483 50.378C126.453 54.1695 125.611 57.9109 124.011 61.352C122.564 64.4591 120.548 67.2707 118.067 69.6428C115.618 72.0096 112.711 73.8573 109.524 75.0741C105.826 76.4537 101.826 76.832 97.9326 76.1704C97.3918 76.0779 96.8549 75.9658 96.3221 75.834C95.9988 75.7547 95.8609 76.2512 96.1845 76.3306C100.236 77.33 104.484 77.2084 108.471 75.9788C111.792 74.9156 114.856 73.1806 117.471 70.883C120.119 68.579 122.308 65.8009 123.926 62.6928C125.696 59.29 126.728 55.5553 126.957 51.7302C127.183 47.8487 126.529 43.8981 124.843 40.3772C124.638 39.9505 124.419 39.5315 124.185 39.1201C124.149 39.0636 124.092 39.0232 124.027 39.0073C123.962 38.9915 123.893 39.0015 123.835 39.0352C123.777 39.0689 123.735 39.1237 123.717 39.1881C123.698 39.2524 123.706 39.3212 123.738 39.38H123.738Z" fill="white"/>
<path d="M96.1145 21.3842C98.3521 25.209 100.096 29.2651 101.31 33.4684C103.739 41.887 104.105 50.7034 102.38 59.2702C101.519 63.5504 100.115 67.7211 98.1966 71.6952C96.2838 75.6358 93.5299 79.7878 88.826 81.1675C88.2951 81.3225 87.751 81.4353 87.1995 81.5047C86.8499 81.5492 86.9987 82.0414 87.3459 81.9972C92.2118 81.3779 95.5929 77.6292 97.7134 73.808C99.9074 69.8541 101.47 65.5605 102.509 61.2256C104.568 52.5761 104.494 43.607 102.292 34.9877C101.198 30.6939 99.5636 26.5343 97.4216 22.5947C97.1526 22.1013 96.8754 21.6119 96.5901 21.1264C96.4207 20.8376 95.9449 21.0951 96.1145 21.3842V21.3842Z" fill="white"/>
<path d="M74.1506 21.1028H42.7148C42.0768 21.1036 41.4651 21.3577 41.0139 21.8092C40.5628 22.2607 40.3089 22.8728 40.3081 23.5113V39.2743H45.146C45.4999 39.2734 45.8481 39.3628 46.1577 39.5341C46.4674 39.7055 46.7282 39.9531 46.9156 40.2535L48.5924 42.9247L50.1957 45.4769L50.4967 45.9568L52.331 48.8768L52.3521 48.9101H76.5572V23.5113C76.5564 22.8728 76.3026 22.2607 75.8514 21.8092C75.4003 21.3577 74.7886 21.1036 74.1506 21.1028Z" fill="#CCCCCC"/>
<path d="M61.6901 25.9216H46.1139C45.701 25.9216 45.305 26.0857 45.013 26.3779C44.721 26.6701 44.557 27.0664 44.557 27.4797C44.557 27.8929 44.721 28.2892 45.013 28.5814C45.305 28.8736 45.701 29.0377 46.1139 29.0377H61.6901C62.103 29.0377 62.499 28.8736 62.791 28.5814C63.0829 28.2892 63.247 27.8929 63.247 27.4797C63.247 27.0664 63.0829 26.6701 62.791 26.3779C62.499 26.0857 62.103 25.9216 61.6901 25.9216Z" fill="white"/>
<path d="M70.3278 33.5728H46.2557C45.805 33.5728 45.3727 33.7519 45.0539 34.0709C44.7352 34.3899 44.5562 34.8225 44.5562 35.2736C44.5562 35.7247 44.7352 36.1573 45.0539 36.4763C45.3727 36.7952 45.805 36.9744 46.2557 36.9744H70.3278C70.7786 36.9744 71.2109 36.7952 71.5296 36.4763C71.8483 36.1573 72.0274 35.7247 72.0274 35.2736C72.0274 34.8225 71.8483 34.3899 71.5296 34.0709C71.2109 33.7519 70.7786 33.5728 70.3278 33.5728Z" fill="white"/>
<path d="M71.8647 40.504C71.7279 40.2116 71.5107 39.9642 71.2385 39.7908C70.9664 39.6174 70.6505 39.5251 70.3278 39.5248H46.2557C46.219 39.5248 46.1839 39.5266 46.1472 39.5283C46.4613 39.7001 46.7259 39.9498 46.9156 40.2535L48.5924 42.9248H70.3278C70.6137 42.9249 70.8949 42.8527 71.1454 42.715C71.396 42.5773 71.6077 42.3785 71.761 42.137C71.9143 41.8956 72.0042 41.6193 72.0223 41.3338C72.0404 41.0484 71.9862 40.7629 71.8647 40.504Z" fill="white"/>
<path d="M72.0099 46.9483C71.9545 46.541 71.7536 46.1676 71.4444 45.8971C71.1352 45.6266 70.7385 45.4773 70.3278 45.4769H50.1957L50.4967 45.9568L52.3311 48.8768H70.3278C70.6815 48.8776 71.0263 48.7666 71.3133 48.5598C71.5337 48.4027 71.7133 48.1951 71.8372 47.9544C71.9611 47.7136 72.0257 47.4468 72.0256 47.176C72.0258 47.0998 72.0205 47.0237 72.0099 46.9483Z" fill="white"/>
<path d="M91.2249 34.678L88.7745 33.7199L76.5573 28.9484L61.9403 23.2398C61.3453 23.0088 60.6831 23.0232 60.0988 23.28C59.5144 23.5367 59.0556 24.0149 58.823 24.6096L58.3119 25.9216L57.0955 29.0378L55.3276 33.5728L54.0009 36.9744L53.0067 39.5248L51.6799 42.9248L50.684 45.4769L50.656 45.5505L50.4967 45.9569L52.3311 48.8768L52.3521 48.9101H86.3275C86.6394 48.9098 86.9474 48.9796 87.2288 49.1142C87.5102 49.2487 87.7579 49.4448 87.9536 49.6878L88.0971 49.3235L89.8509 44.8288L92.5919 37.7995C92.8233 37.2041 92.8094 36.5411 92.5531 35.956C92.2969 35.3709 91.8192 34.9113 91.2249 34.678Z" fill="#08BEAB"/>
<path d="M77.8665 34.6325L76.5573 34.121L63.3564 28.9659C62.9714 28.8169 62.5432 28.8262 62.1651 28.9919C61.787 29.1576 61.4898 29.4663 61.3382 29.8505C61.189 30.2359 61.1985 30.6648 61.3644 31.0433C61.5304 31.4218 61.8394 31.7191 62.2239 31.8702L66.584 33.5728L71.9767 35.6782L76.5573 37.4684L76.734 37.5367C77.1187 37.6862 77.5469 37.6768 77.9246 37.5106C78.3024 37.3444 78.5988 37.035 78.7488 36.6503C78.8988 36.2656 78.8901 35.8371 78.7247 35.4588C78.5593 35.0805 78.2507 34.7833 77.8665 34.6325Z" fill="white"/>
<path d="M83.1315 44.9041L76.5573 42.3362L71.8647 40.504L69.3582 39.5248L62.8295 36.9744L60.7081 36.1459C60.3124 35.9913 59.8731 35.9906 59.4769 36.1439C59.0807 36.2973 58.7562 36.5936 58.5675 36.9744C58.5465 37.0182 58.5255 37.0638 58.508 37.1111C58.4268 37.319 58.3874 37.5409 58.3919 37.7641C58.3965 37.9873 58.4449 38.2074 58.5345 38.4119C58.624 38.6164 58.753 38.8012 58.9139 38.9558C59.0748 39.1103 59.2646 39.2317 59.4724 39.3129L60.015 39.5248L68.7176 42.9248L76.5573 45.9866L81.8958 48.0728C82.0921 48.1496 82.3011 48.1888 82.5119 48.1884C82.9083 48.1891 83.2924 48.0511 83.5979 47.7982C83.9033 47.5453 84.1107 47.1935 84.1842 46.8037C84.2578 46.4139 84.1928 46.0106 84.0005 45.6637C83.8083 45.3168 83.5009 45.0481 83.1315 44.9041H83.1315Z" fill="white"/>
<path d="M76.5573 48.7244L76.1354 48.5598L72.0099 46.9483L68.2415 45.4769L61.7058 42.9248L58.5447 41.6898C58.3367 41.6084 58.1147 41.5688 57.8915 41.5733C57.6682 41.5778 57.448 41.6263 57.2435 41.716C57.0389 41.8058 56.8541 41.935 56.6995 42.0962C56.5449 42.2575 56.4236 42.4477 56.3425 42.656C56.2614 42.8642 56.2221 43.0864 56.2269 43.3098C56.2317 43.5333 56.2804 43.7536 56.3704 43.9581C56.4603 44.1627 56.5896 44.3475 56.751 44.502C56.9124 44.6565 57.1026 44.7777 57.3108 44.8586L58.893 45.4769L66.7869 48.5598L67.5991 48.8768L67.6831 48.9101H77.0316L76.5573 48.7244Z" fill="white"/>
<path d="M60.5891 48.8769L59.7769 48.5598L56.383 47.2338C56.1459 47.1409 55.891 47.1025 55.637 47.1216C55.3831 47.1407 55.1367 47.2168 54.9162 47.3441C54.6956 47.4715 54.5065 47.6469 54.3629 47.8573C54.2193 48.0678 54.1249 48.3079 54.0866 48.5598C54.0698 48.6646 54.0633 48.7708 54.0674 48.8769C54.067 48.888 54.0676 48.8991 54.0692 48.9101H60.6748L60.5891 48.8769Z" fill="white"/>
<path d="M67.8918 48.424L67.082 48.1238H54.4188C54.402 48.223 54.3956 48.3236 54.3996 48.424H52.6684L52.6893 48.4555H67.9755L67.8918 48.424ZM67.8918 48.424H52.6684L52.6893 48.4555H67.9755L67.8918 48.424ZM67.8918 48.424H52.6684L52.6893 48.4555H67.9755L67.8918 48.424ZM67.9755 48.4555L67.8918 48.424H52.6684L52.6893 48.4555H67.9755ZM37.4328 81.6683C36.8804 81.6675 36.3509 81.4586 35.9603 81.0874C35.5697 80.7162 35.3499 80.2129 35.349 79.6879V41.3137C35.3495 40.7885 35.5692 40.2849 35.9598 39.9133C36.3504 39.5418 36.8801 39.3326 37.4328 39.3317H40.6806V39H37.4328C36.7876 39.0012 36.1693 39.2453 35.7133 39.679C35.2572 40.1127 35.0007 40.7006 35 41.3137V79.6879C35.0006 80.1315 35.1352 80.5656 35.388 80.9384C35.6408 81.3113 36.001 81.6072 36.4258 81.791H67.1727C67.1449 81.7512 67.1169 81.7097 67.089 81.6683H37.4328ZM88.3298 48.8469C88.1032 48.6184 87.8297 48.4363 87.5263 48.3119C87.2229 48.1876 86.8959 48.1235 86.5654 48.1238H52.883L50.9982 45.2744L50.9528 45.2047L49.3543 42.7882L47.5637 40.0814C47.3442 39.7507 47.0403 39.4782 46.6803 39.2891C46.3202 39.1001 45.9157 39.0006 45.5044 39H37.4328C36.7876 39.0012 36.1693 39.2453 35.7133 39.679C35.2572 40.1127 35.0007 40.7006 35 41.3137V79.688C35.0006 80.1315 35.1352 80.5656 35.388 80.9384C35.6408 81.3113 36.001 81.6072 36.4258 81.791C36.7416 81.9292 37.0852 82.0005 37.4328 82H86.5654C86.9136 82.0005 87.2578 81.9292 87.5742 81.791C87.9989 81.6072 88.3592 81.3113 88.612 80.9384C88.8647 80.5655 88.9994 80.1315 89 79.688V50.4375C89.0004 49.8451 88.7604 49.2753 88.3298 48.8469ZM88.651 79.6879C88.65 80.2132 88.4299 80.7166 88.039 81.0878C87.648 81.4591 87.1181 81.6678 86.5654 81.6683H37.4328C36.8804 81.6675 36.3509 81.4586 35.9603 81.0874C35.5697 80.7162 35.3499 80.2129 35.349 79.6879V41.3137C35.3495 40.7885 35.5692 40.2849 35.9598 39.9133C36.3504 39.5418 36.8801 39.3326 37.4328 39.3317H45.5044C45.8572 39.3308 46.2044 39.4155 46.5131 39.5777C46.8219 39.74 47.082 39.9744 47.2687 40.2589L48.9406 42.7882L50.5393 45.2047L50.8394 45.6591L52.6684 48.424L52.6893 48.4555H86.5654C87.1184 48.4559 87.6486 48.6649 88.0396 49.0365C88.4306 49.4081 88.6505 49.9119 88.651 50.4375V79.6879ZM67.8918 48.424H52.6684L52.6893 48.4555H67.9755L67.8918 48.424ZM67.8918 48.424H52.6684L52.6893 48.4555H67.9755L67.8918 48.424ZM67.8918 48.424H52.6684L52.6893 48.4555H67.9755L67.8918 48.424ZM67.8918 48.424L67.082 48.1238H52.883L50.9982 45.2744L50.8394 45.6591L52.6684 48.424L52.6893 48.4555H67.9755L67.8918 48.424Z" fill="#3F3D56"/>
<path d="M27.4674 63.407L26.4648 65.5047L17.9028 62.6331L19.3823 59.5371L27.4674 63.407Z" fill="#FFB8B8"/>
<path d="M25.0567 66.9112L27.0833 62.6708L29.6286 63.8892L26.4777 70.4819L26.2831 70.3887C25.6597 70.0903 25.1802 69.5563 24.9502 68.9041C24.7202 68.252 24.7586 67.5351 25.0567 66.9112Z" fill="#2F2E41"/>
<path d="M29.4857 82.1399L27.1636 82.0614L27.0657 73.0152L29.788 73.176L29.4857 82.1399Z" fill="#FFB8B8"/>
<path d="M25.3116 80.3341L30.0057 80.4927L29.9106 83.3146L22.6122 83.0681L22.6195 82.8523C22.6428 82.1611 22.9395 81.5075 23.4444 81.0353C23.9492 80.563 24.6209 80.3108 25.3116 80.3341Z" fill="#2F2E41"/>
<path d="M33.5782 44.581C33.5782 44.581 26.3803 42.8284 23.1173 45.4111L21.2938 50.4841L14 60.4457L24.5569 66.5334L26.4763 61.9215L21.8697 59.7078L27.436 55.096L26.4763 79.4466L30.1232 80C30.1232 80 38.1848 49.9307 33.5782 44.581Z" fill="#2F2E41"/>
<path d="M22.4428 45.9055L22.5294 45.7514C23.4425 44.1268 23.2946 41.4813 23.0097 39.5481C22.7711 37.9289 22.7782 35.0754 22.8263 32.9666C22.8381 32.2549 23.0918 31.5683 23.5455 31.0201C23.9992 30.4718 24.6259 30.0944 25.3225 29.9501C27.4846 29.4998 30.1389 29.4044 31.5287 29.3876L31.5298 29.4824L31.5287 29.3876C31.9063 29.3861 32.2694 29.5327 32.5402 29.7961C32.811 30.0595 32.9679 30.4186 32.9771 30.7964C33.0194 33.0672 33.0063 37.2082 32.4432 39.43C31.6074 42.7275 32.9143 44.9683 32.9276 44.9905L33.0065 45.1224L22.4428 45.9055Z" fill="#08BEAB"/>
<path d="M18.7869 54.9997C19.0182 54.8888 19.2225 54.7285 19.3852 54.5301C19.548 54.3316 19.6653 54.0999 19.7289 53.8512C19.7925 53.6025 19.8008 53.3429 19.7533 53.0906C19.7058 52.8384 19.6036 52.5996 19.4538 52.3911L23.4648 35.0817H20.4324L16.8925 52.05C16.5593 52.3249 16.3384 52.7126 16.2716 53.1396C16.2049 53.5666 16.297 54.0033 16.5305 54.3668C16.764 54.7304 17.1227 54.9957 17.5386 55.1123C17.9544 55.2289 18.3986 55.1889 18.7869 54.9997Z" fill="#FFB8B8"/>
<path d="M43.1754 37.9612L36.4817 31.6246L34.6726 34.1592L39.1954 38.1422L33.264 42.856C33.2212 42.8531 33.1785 42.8494 33.1349 42.8494C32.7699 42.8491 32.4125 42.954 32.1056 43.1516C31.7986 43.3491 31.555 43.631 31.4039 43.9635C31.2528 44.296 31.2006 44.6651 31.2536 45.0265C31.3066 45.3879 31.4625 45.7263 31.7027 46.0014C31.9429 46.2764 32.2572 46.4764 32.6079 46.5773C32.9587 46.6783 33.3311 46.676 33.6806 46.5707C34.0301 46.4654 34.3419 46.2616 34.5787 45.9836C34.8154 45.7056 34.9672 45.3653 35.0157 45.0033L35.0345 45.022L43.1754 37.9612Z" fill="#FFB8B8"/>
<path d="M24.8967 30.1726C24.8967 30.1726 20.7167 29.4865 20.3377 32.7108C19.9586 35.9352 19.7691 35.9352 19.7691 35.9352C19.7691 35.9352 22.8015 35.3662 23.5596 36.1249C24.3177 36.8835 24.8967 30.1726 24.8967 30.1726Z" fill="#08BEAB"/>
<path d="M31.1406 29.6762C31.1406 29.6762 34.552 29.1072 36.0682 30.6245C37.5844 32.1418 38.3425 32.5212 38.3425 32.5212C38.3425 32.5212 34.9311 34.4179 36.2577 36.1249C36.2577 36.1249 32.6568 34.4179 32.0882 34.9869C31.5196 35.5559 31.1406 29.6762 31.1406 29.6762Z" fill="#08BEAB"/>
<path d="M28.1484 18.6645C27.0723 17.8045 26.7896 16.1446 27.4139 14.9161C28.0383 13.6877 29.4499 12.9476 30.8259 13.0029C32.202 13.0582 33.4986 13.8488 34.2958 14.9726C35.4156 16.5512 35.6506 18.7453 37.1397 19.9812C38.4846 21.0975 40.4113 21.0655 42.1563 20.9767C42.7446 20.9468 43.3518 20.9121 43.8797 20.6505C44.4075 20.389 44.8388 19.8374 44.7707 19.2519C45.2091 19.9464 44.9548 20.9201 44.3666 21.4932C43.7785 22.0662 42.941 22.3063 42.1257 22.4019C40.6874 22.5532 39.2345 22.3269 37.9101 21.7454C36.5857 21.1639 35.4355 20.2471 34.5728 19.0855C33.9656 18.2473 33.4971 17.2712 32.6639 16.6575C31.8308 16.0437 30.4416 16.001 29.9301 16.9009C29.6771 17.346 29.702 17.9043 29.4693 18.3604C29.2367 18.8164 28.4813 19.0624 28.2573 18.602" fill="#2F2E41"/>
<path d="M27.9839 27.8111C30.884 27.8111 33.2349 25.4584 33.2349 22.5562C33.2349 19.654 30.884 17.3013 27.9839 17.3013C25.0839 17.3013 22.733 19.654 22.733 22.5562C22.733 25.4584 25.0839 27.8111 27.9839 27.8111Z" fill="#2F2E41"/>
<path d="M27.9522 28.2225C30.3265 28.2225 32.2512 26.2963 32.2512 23.9203C32.2512 21.5442 30.3265 19.6181 27.9522 19.6181C25.578 19.6181 23.6533 21.5442 23.6533 23.9203C23.6533 26.2963 25.578 28.2225 27.9522 28.2225Z" fill="#FFB8B8"/>
<path d="M24.0324 20.7605C24.6166 20.8884 24.4254 21.8693 24.8871 22.2497C25.3036 22.5929 25.9033 22.24 26.4275 22.1122C27.0893 21.9509 27.7819 22.1872 28.3929 22.4885C29.0039 22.7897 29.593 23.1636 30.2595 23.3039C30.926 23.4443 31.7162 23.2861 32.0899 22.7162C32.4471 22.1713 32.3156 21.4364 32.0361 20.8478C31.6886 20.1158 31.1432 19.4959 30.4617 19.0583C29.7802 18.6206 28.9899 18.3827 28.1803 18.3715C27.3706 18.3603 26.574 18.5762 25.8807 18.9947C25.1873 19.4133 24.625 20.0179 24.2573 20.7399" fill="#2F2E41"/>
</svg>
