<svg width="94" height="84" viewBox="0 0 94 84" fill="none" xmlns="http://www.w3.org/2000/svg">
<g clip-path="url(#clip0_520_439)">
<path opacity="0.3" d="M93.1673 69.1392C92.3123 74.3884 88.4598 78.4529 84.3585 82.0049C83.7858 82.5009 83.2118 82.9873 82.6364 83.464C82.6324 83.4663 82.6285 83.4708 82.6245 83.4732C82.5968 83.496 82.569 83.5189 82.5434 83.5416C82.4247 83.6398 82.3058 83.7381 82.188 83.8353L82.2619 83.8583L82.4922 83.9289C82.4132 83.9072 82.3352 83.8866 82.2562 83.8649C82.2326 83.8583 82.2081 83.8527 82.1846 83.8459C79.4653 83.1131 76.6907 82.3088 74.4677 80.5919C72.1615 78.8087 70.5732 75.7686 71.3686 72.9676C71.4732 72.6006 71.6186 72.2465 71.8021 71.9117C71.8771 71.7715 71.9597 71.6361 72.0466 71.5024C72.5722 70.6787 73.3082 70.0095 74.179 69.5636C75.0497 69.1178 76.0237 68.9113 77.0009 68.9656C77.9781 69.0198 78.9232 69.3328 79.739 69.8722C80.5548 70.4117 81.2119 71.1582 81.6426 72.0351C81.6038 68.9488 78.7784 66.6982 76.1283 65.1054C73.4772 63.5137 70.4756 61.7939 69.6421 58.82C69.1774 57.1655 69.5683 55.4613 70.4808 54.0214C70.5091 53.9776 70.5374 53.9339 70.5669 53.891C71.6859 52.2073 73.4004 51.0068 75.3679 50.5292C79.0391 49.6982 82.8866 51.2288 85.8978 53.4841C90.7441 57.1125 94.1392 63.1709 93.1673 69.1392Z" fill="#08BEAB"/>
<path d="M85.3808 63.3405C86.2276 64.3625 86.9205 65.5023 87.4376 66.7238C87.8822 67.8178 88.1604 68.9719 88.263 70.1479C88.4861 72.5636 88.0268 75.0055 87.1107 77.2411C86.3981 78.9384 85.4734 80.539 84.3585 82.0049C83.7859 82.5009 83.2119 82.9873 82.6365 83.464C82.6325 83.4664 82.6286 83.4708 82.6245 83.4732C82.5968 83.496 82.5691 83.5189 82.5435 83.5416C82.4247 83.6399 82.3059 83.7381 82.1881 83.8353L82.262 83.8583L82.4922 83.9289C82.4132 83.9072 82.3352 83.8866 82.2562 83.8649C82.2327 83.8583 82.2082 83.8527 82.1846 83.846C82.1882 81.9166 81.7282 80.0145 80.8432 78.299C79.9582 76.5835 78.674 75.1047 77.0982 73.9864C75.5214 72.8881 73.7067 72.1772 71.8021 71.9117C71.8771 71.7715 71.9597 71.6361 72.0467 71.5025C72.7836 71.6165 73.509 71.7953 74.2144 72.0368C76.7351 72.8931 78.9125 74.5364 80.4243 76.7234C81.7839 78.7109 82.547 81.0441 82.6239 83.4492C82.7189 83.3401 82.8137 83.2289 82.9055 83.1189C84.6556 81.0495 86.1528 78.7353 87.0452 76.1648C87.8254 73.985 88.0564 71.6471 87.7179 69.3573C87.3196 66.8639 86.04 64.6635 84.3485 62.8172C82.5367 60.8414 80.3614 59.1619 78.0848 57.7539C75.7527 56.3087 73.2521 55.1537 70.6387 54.3146C70.5797 54.2953 70.5304 54.2541 70.501 54.1995C70.4716 54.145 70.4644 54.0812 70.4808 54.0215C70.4912 53.9684 70.5221 53.9215 70.5669 53.891C70.5902 53.8775 70.6163 53.8694 70.6432 53.8674C70.67 53.8653 70.697 53.8693 70.7222 53.8791C71.0448 53.9829 71.3656 54.0889 71.6847 54.2013C74.3426 55.1379 76.8735 56.4003 79.2193 57.9595C81.4848 59.4613 83.6598 61.2265 85.3808 63.3405Z" fill="white"/>
<path d="M39.1578 51.3535C38.8965 51.3531 38.645 51.2536 38.4544 51.0752C38.2638 50.8968 38.1482 50.6528 38.1311 50.3926L37.9782 48.063C37.9604 47.7909 38.0516 47.5229 38.2318 47.3179C38.412 47.1129 38.6664 46.9877 38.9391 46.9699L57.2318 45.7746C57.5202 45.7556 57.8096 45.7935 58.0833 45.8861C58.3571 45.9787 58.6098 46.1243 58.8272 46.3144C59.0446 46.5045 59.2222 46.7355 59.3501 46.9941C59.478 47.2528 59.5535 47.534 59.5724 47.8218C59.5913 48.1096 59.5532 48.3983 59.4602 48.6714C59.3672 48.9444 59.2213 49.1966 59.0306 49.4133C58.8399 49.6301 58.6083 49.8073 58.349 49.9347C58.0897 50.0622 57.8078 50.1374 57.5193 50.1561L39.2267 51.3513C39.2037 51.3527 39.1807 51.3535 39.1578 51.3535Z" fill="#08BEAB"/>
<path d="M42.7649 51.6539C42.4984 51.6534 42.2424 51.5502 42.0506 51.3657C41.8587 51.1812 41.7458 50.9297 41.7356 50.6641L41.6052 47.1846C41.6002 47.0497 41.6218 46.9151 41.6689 46.7885C41.716 46.6619 41.7876 46.5458 41.8796 46.4469C41.9717 46.3479 42.0824 46.268 42.2054 46.2117C42.3284 46.1554 42.4613 46.1239 42.5965 46.1188L57.6391 45.5579C57.9122 45.5477 58.1781 45.6462 58.3785 45.8317C58.5788 46.0172 58.6971 46.2745 58.7073 46.547L58.8377 50.0264C58.8427 50.1614 58.8211 50.296 58.774 50.4225C58.7269 50.5491 58.6553 50.6652 58.5632 50.7642C58.4712 50.8631 58.3605 50.943 58.2375 50.9993C58.1145 51.0556 57.9816 51.0871 57.8464 51.0922L42.8038 51.6531C42.7908 51.6537 42.7778 51.6539 42.7649 51.6539Z" fill="#2F2E41"/>
<path d="M60.3923 83.7282H58.0524C57.7792 83.7279 57.5173 83.6195 57.3241 83.4267C57.1309 83.234 57.0223 82.9727 57.0219 82.7001V63.2426C57.0223 62.97 57.1309 62.7087 57.3241 62.5159C57.5173 62.3232 57.7792 62.2148 58.0524 62.2145H60.3923C60.6655 62.2148 60.9274 62.3232 61.1206 62.5159C61.3138 62.7087 61.4224 62.97 61.4228 63.2426V82.7001C61.4224 82.9727 61.3138 83.234 61.1206 83.4267C60.9274 83.6195 60.6655 83.7279 60.3923 83.7282Z" fill="#2F2E41"/>
<path d="M50.0064 73.4432L48.0055 72.2331C47.772 72.0915 47.6043 71.8634 47.5393 71.5986C47.4742 71.3339 47.517 71.0542 47.6584 70.821L57.7671 54.1815C57.909 53.9486 58.1377 53.7813 58.403 53.7164C58.6684 53.6515 58.9487 53.6942 59.1825 53.8352L61.1834 55.0454C61.4169 55.1869 61.5846 55.4151 61.6496 55.6798C61.7147 55.9446 61.6719 56.2242 61.5305 56.4575L51.4218 73.0969C51.2799 73.3299 51.0512 73.4971 50.7859 73.5621C50.5206 73.627 50.2402 73.5842 50.0064 73.4432Z" fill="#2F2E41"/>
<path d="M56.8385 41.9086C61.3038 41.9086 64.9237 38.2969 64.9237 33.8418C64.9237 29.3866 61.3038 25.775 56.8385 25.775C52.3732 25.775 48.7534 29.3866 48.7534 33.8418C48.7534 38.2969 52.3732 41.9086 56.8385 41.9086Z" fill="#08BEAB"/>
<path d="M52.4621 36.5961C52.202 36.5108 51.9632 36.371 51.7619 36.186C51.6284 36.0539 51.5255 35.8943 51.4604 35.7183C51.3953 35.5424 51.3696 35.3544 51.3849 35.1675C51.3934 35.0343 51.4326 34.9049 51.4995 34.7893C51.5664 34.6738 51.6592 34.5753 51.7706 34.5014C52.0597 34.3164 52.4464 34.3158 52.8401 34.4889L52.8252 31.3398L53.1423 31.3383L53.1598 35.0404L52.9155 34.8871C52.6322 34.7096 52.2277 34.5847 51.9418 34.7677C51.8712 34.816 51.8126 34.88 51.7708 34.9546C51.729 35.0292 51.7049 35.1124 51.7006 35.1977C51.6899 35.337 51.7094 35.4769 51.7578 35.6079C51.8061 35.739 51.8822 35.8581 51.9808 35.9571C52.3309 36.2908 52.8417 36.3951 53.4242 36.4884L53.374 36.8007C53.0645 36.7598 52.7593 36.6913 52.4621 36.5961Z" fill="#2F2E41"/>
<path d="M49.5568 31.1806L49.5153 31.4942L51.2083 31.7173L51.2498 31.4037L49.5568 31.1806Z" fill="#2F2E41"/>
<path d="M54.9005 31.8845L54.859 32.1981L56.552 32.4212L56.5935 32.1076L54.9005 31.8845Z" fill="#2F2E41"/>
<path d="M63.5896 68.4631H49.9558C49.5986 68.4627 49.2561 68.3209 49.0034 68.0689C48.7508 67.8168 48.6087 67.4751 48.6083 67.1186L51.4625 45.2806C51.4648 44.9258 51.6078 44.5863 51.8601 44.3363C52.1125 44.0863 52.4538 43.9461 52.8094 43.9464H57.6478C59.5804 43.9485 61.4332 44.7155 62.7998 46.0789C64.1663 47.4423 64.935 49.2909 64.9372 51.2191V67.1186C64.9368 67.4751 64.7947 67.8168 64.542 68.0689C64.2894 68.3209 63.9469 68.4627 63.5896 68.4631Z" fill="#2F2E41"/>
<path d="M60.1565 67.2989C60.0736 67.4793 59.9402 67.632 59.7724 67.7386C59.6045 67.8451 59.4094 67.901 59.2105 67.8995L56.8707 67.8792C56.7353 67.8781 56.6016 67.8503 56.477 67.7976C56.3525 67.7448 56.2395 67.6681 56.1447 67.5718C56.0498 67.4755 55.9749 67.3615 55.9242 67.2364C55.8735 67.1112 55.848 66.9772 55.8492 66.8422L56.0082 48.5527C56.0107 48.2644 56.0701 47.9795 56.183 47.7141C56.2958 47.4487 56.46 47.2081 56.6661 47.006C56.8722 46.8039 57.1161 46.6443 57.384 46.5363C57.652 46.4283 57.9386 46.374 58.2275 46.3765C58.5164 46.379 58.8021 46.4382 59.0681 46.5509C59.334 46.6635 59.5752 46.8273 59.7777 47.0329C59.9803 47.2385 60.1402 47.4819 60.2485 47.7492C60.3568 48.0165 60.4112 48.3025 60.4087 48.5908L60.2498 66.8803C60.2487 67.0248 60.217 67.1675 60.1565 67.2989Z" fill="#08BEAB"/>
<path d="M61.1902 62.4164C61.1073 62.5968 60.9739 62.7495 60.806 62.8561C60.6382 62.9626 60.443 63.0185 60.2441 63.017L56.2476 62.9824C55.9744 62.9797 55.7135 62.869 55.522 62.6746C55.3305 62.4802 55.2241 62.2179 55.2262 61.9454L55.3567 46.9271C55.3579 46.792 55.3857 46.6586 55.4385 46.5343C55.4914 46.41 55.5683 46.2973 55.6648 46.2027C55.7613 46.108 55.8756 46.0333 56.001 45.9827C56.1265 45.9321 56.2607 45.9067 56.3961 45.9079L60.3925 45.9424C60.5278 45.9436 60.6616 45.9713 60.7861 46.0241C60.9107 46.0768 61.0236 46.1536 61.1185 46.2499C61.2133 46.3461 61.2882 46.4601 61.3389 46.5853C61.3896 46.7105 61.4151 46.8444 61.4139 46.9794L61.2835 61.9978C61.2823 62.1423 61.2505 62.285 61.1902 62.4164Z" fill="#2F2E41"/>
<path d="M56.9897 29.0574C55.9089 28.165 54.4641 29.009 53.2418 28.8892C52.0724 28.7746 51.1312 27.7479 50.8747 26.643C50.5755 25.3539 51.2241 24.0445 52.2012 23.2188C53.2713 22.3144 54.708 22.0333 56.0771 22.1709C57.6464 22.3287 59.0921 23.0297 60.3936 23.886C61.6495 24.6863 62.8083 25.6289 63.8469 26.695C64.7776 27.6822 65.5728 28.8648 65.8451 30.2118C66.0927 31.436 65.9474 32.8004 65.2394 33.8548C64.8637 34.3955 64.3545 34.8305 63.7612 35.1177C63.143 35.4353 62.4814 35.6665 61.8834 36.0236C60.9791 36.5637 60.1112 37.6644 60.4191 38.7868C60.4851 39.0321 60.6106 39.2573 60.7845 39.4428C60.9934 39.6655 61.3567 39.3591 61.1472 39.1358C60.7794 38.7436 60.7835 38.2112 60.9664 37.7312C61.1844 37.1901 61.5802 36.7389 62.0889 36.4515C62.715 36.0785 63.4095 35.8424 64.0519 35.5013C64.6671 35.1891 65.1976 34.7332 65.5982 34.1725C66.3541 33.0813 66.5596 31.6759 66.3589 30.3832C66.1416 28.9844 65.3951 27.7236 64.4694 26.6728C63.462 25.5292 62.233 24.5683 60.9797 23.7079C59.635 22.7847 58.154 22.0107 56.5265 21.7514C55.1158 21.5267 53.5948 21.7104 52.3799 22.4981C51.2459 23.2334 50.3892 24.4776 50.3278 25.8508C50.3083 26.4755 50.4559 27.094 50.7555 27.6429C51.0552 28.1917 51.4959 28.6509 52.0325 28.9733C52.5828 29.2879 53.2182 29.4221 53.849 29.3571C54.5237 29.3011 55.1959 29.082 55.8768 29.1264C56.1847 29.1392 56.4801 29.2518 56.7182 29.4471C56.9543 29.6421 57.2239 29.2508 56.9897 29.0574V29.0574Z" fill="#2F2E41"/>
<path d="M47.4827 71.1021C47.4856 71.0843 47.489 71.0664 47.4928 71.0487C47.521 70.9165 47.5752 70.7913 47.6522 70.6802C47.7293 70.5692 47.8276 70.4744 47.9416 70.4015L49.9079 69.1361C50.1376 68.9887 50.4166 68.9381 50.6837 68.9956C50.9507 69.0531 51.184 69.214 51.3324 69.4428L57.398 78.8256C57.5461 79.0547 57.5969 79.3332 57.5393 79.5997C57.4816 79.8663 57.3202 80.099 57.0906 80.2469L55.1242 81.5123C54.8945 81.6597 54.6155 81.7103 54.3484 81.6528C54.0814 81.5953 53.8481 81.4344 53.6997 81.2056L47.6341 71.8228C47.4955 71.6097 47.4415 71.3528 47.4827 71.1021Z" fill="#2F2E41"/>
<path d="M40.1185 9.2649C39.9675 8.907 39.7145 8.60115 39.391 8.38521C39.0676 8.16926 38.6877 8.05269 38.2985 8.04993H1.96933C1.44712 8.05021 0.946372 8.25731 0.577112 8.62573C0.207852 8.99415 0.000280599 9.49375 0 10.0148V55.8702C0.000280599 56.3913 0.207852 56.8909 0.577112 57.2593C0.946372 57.6277 1.44712 57.8348 1.96933 57.8351H38.2998C38.8219 57.8344 39.3224 57.6272 39.6916 57.2588C40.0607 56.8905 40.2684 56.3911 40.2691 55.8702V10.0148C40.27 9.75739 40.2192 9.50243 40.1199 9.2649H40.1185ZM39.8305 55.8702C39.83 56.2755 39.6684 56.664 39.3812 56.9505C39.094 57.2371 38.7047 57.3983 38.2985 57.3987H1.96933C1.56309 57.3987 1.17349 57.2377 0.886211 56.9511C0.598928 56.6645 0.437468 56.2758 0.43733 55.8705V10.015C0.437884 9.60983 0.599469 9.22136 0.886654 8.93483C1.17384 8.64829 1.56319 8.48708 1.96933 8.48653H38.2998C38.6057 8.48768 38.9044 8.57977 39.1577 8.75103C39.411 8.92228 39.6073 9.16495 39.7218 9.44805C39.7441 9.50446 39.7633 9.56203 39.7794 9.6205C39.8142 9.74915 39.8318 9.8818 39.8318 10.015L39.8305 55.8702Z" fill="#3F3D56"/>
<path d="M32.5371 18.8763H21.5943C21.3621 18.8763 21.1394 18.7843 20.9752 18.6204C20.8111 18.4566 20.7188 18.2345 20.7188 18.0028C20.7188 17.7711 20.8111 17.549 20.9752 17.3852C21.1394 17.2214 21.3621 17.1293 21.5943 17.1293H32.5371C32.7693 17.1293 32.992 17.2214 33.1562 17.3852C33.3204 17.549 33.4126 17.7711 33.4126 18.0028C33.4126 18.2345 33.3204 18.4566 33.1562 18.6204C32.992 18.7843 32.7693 18.8763 32.5371 18.8763Z" fill="#3F3D56"/>
<path d="M32.5371 23.4618H21.5943C21.4792 23.4619 21.3652 23.4395 21.2589 23.3956C21.1525 23.3518 21.0559 23.2875 20.9745 23.2064C20.8931 23.1252 20.8285 23.0289 20.7844 22.9228C20.7403 22.8168 20.7177 22.7031 20.7177 22.5883C20.7177 22.4735 20.7403 22.3598 20.7844 22.2538C20.8285 22.1477 20.8931 22.0514 20.9745 21.9703C21.0559 21.8891 21.1525 21.8248 21.2589 21.781C21.3652 21.7372 21.4792 21.7147 21.5943 21.7148H32.5371C32.6522 21.7147 32.7662 21.7372 32.8725 21.781C32.9789 21.8248 33.0755 21.8891 33.1569 21.9703C33.2384 22.0514 33.3029 22.1477 33.347 22.2538C33.3911 22.3598 33.4138 22.4735 33.4138 22.5883C33.4138 22.7031 33.3911 22.8168 33.347 22.9228C33.3029 23.0289 33.2384 23.1252 33.1569 23.2064C33.0755 23.2875 32.9789 23.3518 32.8725 23.3956C32.7662 23.4395 32.6522 23.4619 32.5371 23.4618Z" fill="#3F3D56"/>
<path d="M15.9796 26.0728H7.98259C7.72145 26.0725 7.4711 25.9689 7.28645 25.7847C7.1018 25.6004 6.99794 25.3507 6.99767 25.0901V15.6745C6.99794 15.4139 7.1018 15.1641 7.28645 14.9799C7.4711 14.7957 7.72145 14.692 7.98259 14.6918H15.9796C16.2407 14.692 16.4911 14.7957 16.6757 14.9799C16.8604 15.1641 16.9642 15.4139 16.9645 15.6745V25.0901C16.9642 25.3507 16.8604 25.6004 16.6757 25.7847C16.4911 25.9689 16.2407 26.0725 15.9796 26.0728Z" fill="#08BEAB"/>
<path d="M32.4612 32.8513H7.7304C7.49821 32.8513 7.27553 32.7593 7.11135 32.5955C6.94717 32.4317 6.85493 32.2095 6.85493 31.9778C6.85493 31.7462 6.94717 31.524 7.11135 31.3602C7.27553 31.1964 7.49821 31.1044 7.7304 31.1044H32.4612C32.6934 31.1044 32.9161 31.1964 33.0802 31.3602C33.2444 31.524 33.3366 31.7462 33.3366 31.9778C33.3366 32.2095 33.2444 32.4317 33.0802 32.5955C32.9161 32.7593 32.6934 32.8513 32.4612 32.8513Z" fill="#CCCCCC"/>
<path d="M32.4612 37.4369H7.7304C7.49821 37.4369 7.27553 37.3449 7.11135 37.1811C6.94717 37.0172 6.85493 36.7951 6.85493 36.5634C6.85493 36.3318 6.94717 36.1096 7.11135 35.9458C7.27553 35.782 7.49821 35.6899 7.7304 35.6899H32.4612C32.6934 35.6899 32.9161 35.782 33.0802 35.9458C33.2444 36.1096 33.3366 36.3318 33.3366 36.5634C33.3366 36.7951 33.2444 37.0172 33.0802 37.1811C32.9161 37.3449 32.6934 37.4369 32.4612 37.4369Z" fill="#CCCCCC"/>
<path d="M32.4612 42.0224H7.7304C7.49841 42.0221 7.27604 41.9299 7.11211 41.7662C6.94818 41.6024 6.85611 41.3804 6.85611 41.1489C6.85611 40.9175 6.94818 40.6955 7.11211 40.5317C7.27604 40.3679 7.49841 40.2758 7.7304 40.2755H32.4612C32.5763 40.2753 32.6902 40.2978 32.7966 40.3416C32.9029 40.3854 32.9996 40.4497 33.081 40.5309C33.1624 40.612 33.227 40.7083 33.2711 40.8144C33.3151 40.9204 33.3378 41.0341 33.3378 41.1489C33.3378 41.2637 33.3151 41.3774 33.2711 41.4835C33.227 41.5895 33.1624 41.6859 33.081 41.767C32.9996 41.8481 32.9029 41.9124 32.7966 41.9563C32.6902 42.0001 32.5763 42.0226 32.4612 42.0224Z" fill="#CCCCCC"/>
<path d="M32.4612 46.6079H7.7304C7.49821 46.6079 7.27553 46.5159 7.11135 46.3521C6.94717 46.1883 6.85493 45.9661 6.85493 45.7344C6.85493 45.5028 6.94717 45.2806 7.11135 45.1168C7.27553 44.953 7.49821 44.861 7.7304 44.861H32.4612C32.6934 44.861 32.9161 44.953 33.0802 45.1168C33.2444 45.2806 33.3366 45.5028 33.3366 45.7344C33.3366 45.9661 33.2444 46.1883 33.0802 46.3521C32.9161 46.5159 32.6934 46.6079 32.4612 46.6079Z" fill="#CCCCCC"/>
<path d="M32.4612 51.1935H7.7304C7.49821 51.1935 7.27553 51.1015 7.11135 50.9376C6.94717 50.7738 6.85493 50.5517 6.85493 50.32C6.85493 50.0883 6.94717 49.8662 7.11135 49.7024C7.27553 49.5386 7.49821 49.4465 7.7304 49.4465H32.4612C32.6934 49.4465 32.9161 49.5386 33.0802 49.7024C33.2444 49.8662 33.3366 50.0883 33.3366 50.32C33.3366 50.5517 33.2444 50.7738 33.0802 50.9376C32.9161 51.1015 32.6934 51.1935 32.4612 51.1935Z" fill="#CCCCCC"/>
<path d="M40.3901 16.8591C45.0562 16.8591 48.8388 13.0851 48.8388 8.42957C48.8388 3.77404 45.0562 0 40.3901 0C35.724 0 31.9413 3.77404 31.9413 8.42957C31.9413 13.0851 35.724 16.8591 40.3901 16.8591Z" fill="#08BEAB"/>
<path d="M39.5529 11.6452C39.3628 11.6455 39.1778 11.5842 39.0257 11.4704L39.0163 11.4634L37.0307 9.94792C36.9387 9.87758 36.8616 9.78986 36.8036 9.68976C36.7456 9.58966 36.708 9.47915 36.6928 9.36453C36.6776 9.24992 36.6852 9.13344 36.7152 9.02175C36.7451 8.91007 36.7968 8.80536 36.8673 8.71361C36.9378 8.62186 37.0257 8.54486 37.126 8.48701C37.2264 8.42916 37.3371 8.3916 37.452 8.37646C37.5669 8.36132 37.6836 8.3689 37.7956 8.39878C37.9075 8.42865 38.0125 8.48023 38.1044 8.55057L39.3905 9.53457L42.4296 5.57872C42.5001 5.48701 42.588 5.41004 42.6883 5.35222C42.7885 5.29439 42.8993 5.25684 43.0141 5.24171C43.1289 5.22658 43.2456 5.23416 43.3575 5.26402C43.4694 5.29388 43.5743 5.34544 43.6662 5.41575L43.6665 5.41595L43.6476 5.44208L43.667 5.41595C43.8524 5.55815 43.9738 5.76795 44.0044 5.9993C44.0349 6.23066 43.9723 6.46467 43.8301 6.64999L40.2555 11.3008C40.1728 11.408 40.0665 11.4947 39.9447 11.5543C39.823 11.6138 39.6892 11.6446 39.5536 11.6442L39.5529 11.6452Z" fill="white"/>
<path d="M93.8438 84H36.3627C36.3213 84 36.2815 83.9836 36.2523 83.9543C36.223 83.9251 36.2065 83.8855 36.2065 83.8441C36.2065 83.8028 36.223 83.7632 36.2523 83.7339C36.2815 83.7047 36.3213 83.6883 36.3627 83.6883H93.8438C93.8853 83.6883 93.925 83.7047 93.9543 83.7339C93.9836 83.7632 94 83.8028 94 83.8441C94 83.8855 93.9836 83.9251 93.9543 83.9543C93.925 83.9836 93.8853 84 93.8438 84Z" fill="#3F3D56"/>
</g>
<defs>
<clipPath id="clip0_520_439">
<rect width="94" height="84" fill="white"/>
</clipPath>
</defs>
</svg>
