<svg width="95" height="84" viewBox="0 0 95 84" fill="none" xmlns="http://www.w3.org/2000/svg">
<path d="M48.5938 48.9526L27.8852 49.3108C27.5583 49.3171 27.2334 49.26 26.929 49.1427C26.6246 49.0254 26.3467 48.8501 26.1112 48.627C25.8758 48.4039 25.6874 48.1373 25.5568 47.8425C25.4263 47.5477 25.3561 47.2305 25.3503 46.9089C25.3446 46.5874 25.4034 46.2679 25.5233 45.9688C25.6433 45.6696 25.822 45.3967 26.0494 45.1656C26.2767 44.9345 26.5481 44.7498 26.8482 44.622C27.1482 44.4942 27.4709 44.4259 27.7978 44.4209L48.5064 44.0628C48.8151 44.0575 49.1134 44.173 49.3355 44.3839C49.5577 44.5949 49.6855 44.884 49.6909 45.1877L49.7374 47.7875C49.7426 48.078 49.6354 48.3594 49.4375 48.575C49.2396 48.7906 48.9658 48.9242 48.6716 48.9487C48.6458 48.9508 48.6199 48.9521 48.5938 48.9526Z" fill="#08BEAB"/>
<path d="M44.5945 49.617L27.6048 50.3798C27.4521 50.3867 27.2995 50.3639 27.1557 50.3127C27.0119 50.2616 26.8798 50.1831 26.7669 50.0817C26.654 49.9804 26.5624 49.8581 26.4975 49.7219C26.4326 49.5858 26.3957 49.4384 26.3887 49.2882L26.2089 45.414C26.1948 45.1106 26.3039 44.8141 26.512 44.5898C26.7202 44.3655 27.0104 44.2316 27.3188 44.2178L44.3085 43.4549C44.4612 43.4481 44.6138 43.4708 44.7576 43.522C44.9014 43.5731 45.0335 43.6516 45.1464 43.753C45.2594 43.8544 45.3509 43.9766 45.4158 44.1128C45.4807 44.2489 45.5177 44.3963 45.5246 44.5466L45.7044 48.4207C45.7178 48.7166 45.6143 49.006 45.4156 49.2285C45.2169 49.451 44.9384 49.5892 44.6384 49.6142C44.6239 49.6154 44.6092 49.6164 44.5945 49.617Z" fill="#2F2E41"/>
<path d="M15.8636 82.8549V61.1829C15.864 60.8793 15.9868 60.5882 16.205 60.3736C16.4233 60.1589 16.7192 60.0381 17.0279 60.0378H19.6716C19.9802 60.0381 20.2762 60.1589 20.4944 60.3736C20.7127 60.5882 20.8355 60.8793 20.8358 61.1829V82.8549C20.8355 83.1585 20.7127 83.4496 20.4944 83.6642C20.2762 83.8789 19.9802 83.9997 19.6716 84H17.0279C16.7192 83.9997 16.4233 83.8789 16.205 83.6642C15.9868 83.4496 15.864 83.1585 15.8636 82.8549Z" fill="#08BEAB"/>
<path d="M22.8012 82.8549V61.1829C22.8015 60.8793 22.9243 60.5882 23.1426 60.3736C23.3608 60.1589 23.6568 60.0381 23.9654 60.0378H26.6091C26.9178 60.0381 27.2137 60.1589 27.432 60.3736C27.6502 60.5882 27.773 60.8793 27.7734 61.1829V82.8549C27.773 83.1585 27.6502 83.4496 27.432 83.6642C27.2137 83.8789 26.9178 83.9997 26.6091 84H23.9654C23.6568 83.9997 23.3608 83.8789 23.1426 83.6642C22.9243 83.4496 22.8015 83.1585 22.8012 82.8549Z" fill="#08BEAB"/>
<path d="M23.4917 37.4206C28.5367 37.4206 32.6265 33.3979 32.6265 28.4357C32.6265 23.4735 28.5367 19.4508 23.4917 19.4508C18.4466 19.4508 14.3568 23.4735 14.3568 28.4357C14.3568 33.3979 18.4466 37.4206 23.4917 37.4206Z" fill="#08BEAB"/>
<path d="M28.4363 31.5035C28.7301 31.4086 28.9999 31.2528 29.2274 31.0468C29.3782 30.8996 29.4944 30.7219 29.568 30.5259C29.6415 30.33 29.6706 30.1206 29.6533 29.9124C29.6437 29.764 29.5994 29.6199 29.5238 29.4912C29.4482 29.3625 29.3434 29.2527 29.2176 29.1705C28.8909 28.9644 28.454 28.9638 28.0091 29.1566L28.026 25.649L27.6678 25.6473L27.6479 29.7709L27.924 29.6001C28.244 29.4024 28.7011 29.2633 29.0241 29.4671C29.1039 29.5209 29.17 29.5922 29.2173 29.6752C29.2646 29.7583 29.2917 29.851 29.2966 29.9461C29.3087 30.1012 29.2867 30.257 29.232 30.4029C29.1774 30.5489 29.0914 30.6815 28.98 30.7919C28.5844 31.1635 28.0073 31.2798 27.3492 31.3836L27.406 31.7315C27.7557 31.6859 28.1005 31.6096 28.4363 31.5035Z" fill="#2F2E41"/>
<path d="M31.7187 25.4717L29.8059 25.7202L29.8528 26.0694L31.7656 25.821L31.7187 25.4717Z" fill="#2F2E41"/>
<path d="M25.6812 26.2558L23.7685 26.5043L23.8154 26.8535L25.7281 26.6051L25.6812 26.2558Z" fill="#2F2E41"/>
<path d="M4.11152 27.7263L17.227 43.4932C17.4339 43.7417 17.589 44.0279 17.6834 44.3354C17.7778 44.6429 17.8098 44.9656 17.7773 45.2852C17.7449 45.6048 17.6488 45.915 17.4944 46.1981C17.3401 46.4812 17.1306 46.7315 16.8778 46.9349C16.6251 47.1383 16.3341 47.2908 16.0215 47.3835C15.7088 47.4763 15.3806 47.5075 15.0557 47.4755C14.7308 47.4434 14.4154 47.3488 14.1277 47.1968C13.84 47.0449 13.5855 46.8387 13.3789 46.59L0.263327 30.8231C0.1665 30.7068 0.093925 30.5728 0.0497527 30.4288C0.00558045 30.2848 -0.00932802 30.1337 0.00588083 29.9841C0.0210897 29.8344 0.0661154 29.6892 0.13839 29.5567C0.210664 29.4242 0.308769 29.307 0.427104 29.2117L2.47316 27.5651C2.71215 27.3728 3.01903 27.2817 3.32627 27.312C3.63352 27.3422 3.91597 27.4912 4.11151 27.7263H4.11152Z" fill="#08BEAB"/>
<path d="M8.48566 31.2454L19.2554 44.1923C19.3522 44.3087 19.4248 44.4427 19.469 44.5866C19.5131 44.7306 19.528 44.8817 19.5128 45.0314C19.4976 45.181 19.4526 45.3262 19.3803 45.4587C19.308 45.5912 19.2099 45.7085 19.0916 45.8037L15.5968 48.6161C15.4785 48.7113 15.3423 48.7827 15.1959 48.8262C15.0495 48.8696 14.8959 48.8843 14.7437 48.8693C14.5916 48.8543 14.444 48.8101 14.3092 48.739C14.1745 48.6679 14.0553 48.5714 13.9585 48.455L3.18876 35.5081C2.99357 35.2729 2.9012 34.9712 2.9319 34.6691C2.96261 34.367 3.11388 34.0892 3.35254 33.8967L6.84735 31.0842C7.08634 30.8919 7.3932 30.8008 7.70044 30.8311C8.00767 30.8613 8.29012 31.0103 8.48566 31.2454L8.48566 31.2454Z" fill="#2F2E41"/>
<path d="M83.153 15.5057C83.0213 15.1982 82.8008 14.9353 82.5188 14.7497C82.2368 14.5642 81.9057 14.464 81.5664 14.4616H49.8968C49.4416 14.4618 49.0051 14.6398 48.6832 14.9564C48.3613 15.2731 48.1803 15.7024 48.1801 16.1502V55.5575C48.1803 56.0053 48.3613 56.4347 48.6832 56.7513C49.0051 57.0679 49.4416 57.2459 49.8968 57.2461H81.5675C82.0226 57.2455 82.459 57.0674 82.7808 56.7509C83.1026 56.4343 83.2837 56.0052 83.2843 55.5575V16.1502C83.285 15.929 83.2408 15.7099 83.1541 15.5057H83.153ZM82.9019 55.5575C82.9015 55.9058 82.7606 56.2397 82.5103 56.4859C82.2599 56.7322 81.9205 56.8707 81.5664 56.8711H49.8968C49.5427 56.8711 49.2031 56.7327 48.9526 56.4864C48.7022 56.2401 48.5615 55.9061 48.5613 55.5578V16.1504C48.5618 15.8022 48.7027 15.4683 48.953 15.2221C49.2034 14.9758 49.5428 14.8373 49.8968 14.8368H81.5675C81.8342 14.8378 82.0946 14.9169 82.3154 15.0641C82.5362 15.2113 82.7074 15.4198 82.8071 15.6631C82.8265 15.7116 82.8433 15.7611 82.8573 15.8113C82.8877 15.9219 82.903 16.0359 82.903 16.1504L82.9019 55.5575Z" fill="#3F3D56"/>
<path d="M76.544 23.7656H67.0047C66.9043 23.7657 66.805 23.7464 66.7123 23.7088C66.6195 23.6711 66.5352 23.6158 66.4643 23.5461C66.3933 23.4764 66.3369 23.3936 66.2985 23.3025C66.2601 23.2113 66.2403 23.1136 66.2403 23.0149C66.2403 22.9163 66.2601 22.8185 66.2985 22.7274C66.3369 22.6363 66.3933 22.5534 66.4643 22.4837C66.5352 22.414 66.6195 22.3587 66.7123 22.3211C66.805 22.2834 66.9043 22.2641 67.0047 22.2643H76.544C76.6443 22.2641 76.7437 22.2834 76.8364 22.3211C76.9291 22.3587 77.0134 22.414 77.0844 22.4837C77.1554 22.5534 77.2117 22.6363 77.2501 22.7274C77.2886 22.8185 77.3083 22.9163 77.3083 23.0149C77.3083 23.1136 77.2886 23.2113 77.2501 23.3025C77.2117 23.3936 77.1554 23.4764 77.0844 23.5461C77.0134 23.6158 76.9291 23.6711 76.8364 23.7088C76.7437 23.7464 76.6443 23.7657 76.544 23.7656Z" fill="#3F3D56"/>
<path d="M76.544 27.7062H67.0047C66.9043 27.7064 66.805 27.6871 66.7123 27.6494C66.6195 27.6118 66.5352 27.5565 66.4643 27.4868C66.3933 27.4171 66.3369 27.3343 66.2985 27.2431C66.2601 27.152 66.2403 27.0543 66.2403 26.9556C66.2403 26.8569 66.2601 26.7592 66.2985 26.6681C66.3369 26.5769 66.3933 26.4941 66.4643 26.4244C66.5352 26.3547 66.6195 26.2994 66.7123 26.2618C66.805 26.2241 66.9043 26.2048 67.0047 26.205H76.544C76.6443 26.2048 76.7437 26.2241 76.8364 26.2618C76.9291 26.2994 77.0134 26.3547 77.0844 26.4244C77.1554 26.4941 77.2117 26.5769 77.2501 26.6681C77.2886 26.7592 77.3083 26.8569 77.3083 26.9556C77.3083 27.0543 77.2886 27.152 77.2501 27.2431C77.2117 27.3343 77.1554 27.4171 77.0844 27.4868C77.0134 27.5565 76.9291 27.6118 76.8364 27.6494C76.7437 27.6871 76.6443 27.7064 76.544 27.7062Z" fill="#3F3D56"/>
<path d="M62.1101 29.9502H55.1388C54.9112 29.95 54.6929 29.8609 54.532 29.7026C54.371 29.5443 54.2805 29.3296 54.2802 29.1057V21.0141C54.2805 20.7902 54.371 20.5755 54.532 20.4172C54.6929 20.2588 54.9112 20.1698 55.1388 20.1696H62.1101C62.3377 20.1698 62.556 20.2588 62.717 20.4172C62.8779 20.5755 62.9685 20.7902 62.9687 21.0141V29.1057C62.9685 29.3296 62.8779 29.5443 62.717 29.7026C62.556 29.8609 62.3377 29.95 62.1101 29.9502Z" fill="#08BEAB"/>
<path d="M76.4778 35.7756H54.919C54.7166 35.7756 54.5225 35.6965 54.3793 35.5557C54.2362 35.415 54.1558 35.224 54.1558 35.0249C54.1558 34.8259 54.2362 34.6349 54.3793 34.4942C54.5225 34.3534 54.7166 34.2743 54.919 34.2743H76.4778C76.6802 34.2743 76.8743 34.3534 77.0174 34.4942C77.1605 34.6349 77.241 34.8259 77.241 35.0249C77.241 35.224 77.1605 35.415 77.0174 35.5557C76.8743 35.6965 76.6802 35.7756 76.4778 35.7756Z" fill="#CCCCCC"/>
<path d="M76.4778 39.7163H54.919C54.7168 39.7159 54.523 39.6367 54.3801 39.496C54.2372 39.3552 54.157 39.1645 54.157 38.9656C54.157 38.7667 54.2372 38.576 54.3801 38.4352C54.523 38.2945 54.7168 38.2153 54.919 38.215H76.4778C76.5781 38.2148 76.6775 38.2341 76.7702 38.2718C76.8629 38.3094 76.9472 38.3647 77.0182 38.4344C77.0892 38.5041 77.1455 38.5869 77.1839 38.6781C77.2224 38.7692 77.2421 38.8669 77.2421 38.9656C77.2421 39.0643 77.2224 39.162 77.1839 39.2531C77.1455 39.3443 77.0892 39.4271 77.0182 39.4968C76.9472 39.5665 76.8629 39.6218 76.7702 39.6594C76.6775 39.6971 76.5781 39.7164 76.4778 39.7163Z" fill="#CCCCCC"/>
<path d="M76.4778 43.657H54.919C54.7168 43.6567 54.523 43.5775 54.3801 43.4367C54.2372 43.296 54.157 43.1052 54.157 42.9063C54.157 42.7075 54.2372 42.5167 54.3801 42.376C54.523 42.2352 54.7168 42.156 54.919 42.1557H76.4778C76.5781 42.1555 76.6775 42.1748 76.7702 42.2125C76.8629 42.2502 76.9472 42.3054 77.0182 42.3752C77.0892 42.4449 77.1455 42.5277 77.1839 42.6188C77.2224 42.71 77.2421 42.8077 77.2421 42.9063C77.2421 43.005 77.2224 43.1027 77.1839 43.1939C77.1455 43.285 77.0892 43.3678 77.0182 43.4376C76.9472 43.5073 76.8629 43.5625 76.7702 43.6002C76.6775 43.6378 76.5781 43.6572 76.4778 43.657Z" fill="#CCCCCC"/>
<path d="M76.4778 47.5978H54.919C54.7168 47.5975 54.523 47.5182 54.3801 47.3775C54.2372 47.2367 54.157 47.046 54.157 46.8471C54.157 46.6482 54.2372 46.4575 54.3801 46.3167C54.523 46.176 54.7168 46.0967 54.919 46.0964H76.4778C76.5781 46.0963 76.6775 46.1156 76.7702 46.1532C76.8629 46.1909 76.9472 46.2462 77.0182 46.3159C77.0892 46.3856 77.1455 46.4684 77.1839 46.5596C77.2224 46.6507 77.2421 46.7484 77.2421 46.8471C77.2421 46.9458 77.2224 47.0435 77.1839 47.1346C77.1455 47.2258 77.0892 47.3086 77.0182 47.3783C76.9472 47.448 76.8629 47.5033 76.7702 47.541C76.6775 47.5786 76.5781 47.5979 76.4778 47.5978Z" fill="#CCCCCC"/>
<path d="M76.4778 51.5384H54.919C54.7168 51.5381 54.523 51.4589 54.3801 51.3182C54.2372 51.1774 54.157 50.9867 54.157 50.7878C54.157 50.5889 54.2372 50.3982 54.3801 50.2574C54.523 50.1167 54.7168 50.0375 54.919 50.0372H76.4778C76.5781 50.037 76.6775 50.0563 76.7702 50.094C76.8629 50.1316 76.9472 50.1869 77.0182 50.2566C77.0892 50.3263 77.1455 50.4091 77.1839 50.5003C77.2224 50.5914 77.2421 50.6891 77.2421 50.7878C77.2421 50.8865 77.2224 50.9842 77.1839 51.0753C77.1455 51.1665 77.0892 51.2493 77.0182 51.319C76.9472 51.3887 76.8629 51.444 76.7702 51.4816C76.6775 51.5193 76.5781 51.5386 76.4778 51.5384Z" fill="#CCCCCC"/>
<path d="M84.0746 21.4922C90.1085 21.4922 95 16.681 95 10.7461C95 4.8112 90.1085 0 84.0746 0C78.0406 0 73.1492 4.8112 73.1492 10.7461C73.1492 16.681 78.0406 21.4922 84.0746 21.4922Z" fill="#08BEAB"/>
<path d="M83.8631 18.1429C84.573 18.1429 85.1486 17.5768 85.1486 16.8785C85.1486 16.1801 84.573 15.614 83.8631 15.614C83.1531 15.614 82.5775 16.1801 82.5775 16.8785C82.5775 17.5768 83.1531 18.1429 83.8631 18.1429Z" fill="white"/>
<path d="M83.7254 3.68424C82.7562 3.6937 81.8291 4.07476 81.1413 4.74634C80.4535 5.41793 80.0593 6.327 80.0426 7.28012C80.0424 7.29836 80.0422 7.42664 80.0423 7.59442C80.0423 7.84043 80.1416 8.07635 80.3185 8.2503C80.4953 8.42426 80.7352 8.522 80.9853 8.52203C81.2356 8.52198 81.4756 8.42413 81.6525 8.25002C81.8295 8.0759 81.9288 7.83978 81.9288 7.5936V7.593C81.9287 7.47886 81.9286 7.39987 81.9286 7.39502C81.9286 7.08963 82.0093 6.78948 82.163 6.52411C82.3166 6.25873 82.5378 6.03726 82.8049 5.88148C83.072 5.72571 83.3757 5.641 83.6861 5.63568C83.9965 5.63036 84.303 5.70462 84.5754 5.85115C84.8479 5.99769 85.0768 6.21145 85.2397 6.4714C85.4027 6.73136 85.494 7.02856 85.5048 7.33377C85.5155 7.63897 85.4453 7.94167 85.301 8.21209C85.1568 8.48252 84.9434 8.71134 84.6819 8.87606L84.6823 8.87645C84.6823 8.87645 83.3401 9.72637 82.9308 10.8923L82.9312 10.8924C82.8592 11.1312 82.8228 11.3791 82.8229 11.6282C82.8229 11.7306 82.8291 12.6266 82.8409 13.3538C82.845 13.6047 82.9493 13.844 83.1312 14.02C83.3131 14.196 83.558 14.2946 83.8132 14.2945C83.9409 14.2945 84.0673 14.2698 84.1853 14.2217C84.3033 14.1736 84.4105 14.1032 84.5008 14.0143C84.5911 13.9255 84.6627 13.8201 84.7115 13.704C84.7604 13.588 84.7856 13.4636 84.7856 13.338L84.7855 13.3321C84.7814 12.6661 84.7792 11.8906 84.7792 11.8343C84.7792 11.1184 85.4814 10.4051 86.0581 9.93993C86.7258 9.4081 87.195 8.67332 87.3922 7.85087C87.4347 7.68134 87.4581 7.50773 87.4621 7.33317C87.4621 6.85398 87.3661 6.37947 87.1797 5.93675C86.9932 5.49403 86.72 5.09177 86.3755 4.75292C86.031 4.41408 85.622 4.14529 85.1719 3.96191C84.7218 3.77853 84.2394 3.68414 83.7522 3.68414C83.7432 3.68414 83.7343 3.68418 83.7254 3.68424Z" fill="white"/>
<path d="M21.2016 24.4604C22.8371 23.4028 24.8926 23.8786 26.7104 24.0168C28.3529 24.1416 30.2998 24.0186 31.455 22.6987C32.6569 21.3254 32.5564 19.2866 31.5614 17.8341C30.5819 16.4045 28.9561 15.5017 27.2361 15.2637C26.2831 15.1264 25.3115 15.1857 24.3831 15.4379C23.4547 15.69 22.5898 16.1296 21.8436 16.7284L22.4281 16.9666C22.0875 13.7633 19.693 10.8676 16.4803 10.0821C13.2298 9.28735 9.59476 10.6437 7.86057 13.4944C6.15092 16.3047 6.35346 20.2262 8.8143 22.5616C9.9961 23.6832 11.6037 24.2546 13.2351 23.9497C14.7397 23.6685 16.0766 22.5897 16.3582 21.0662C16.6192 19.6539 16.049 18.0498 14.6524 17.433C14.2702 17.2577 13.8525 17.17 13.4309 17.1767C13.0093 17.1833 12.5947 17.284 12.2184 17.4712C11.8776 17.6598 11.5897 17.9286 11.3803 18.2534C11.171 18.5782 11.0467 18.9491 11.0187 19.3327C10.9927 19.7041 11.0696 20.0755 11.2413 20.4072C11.4352 20.7965 12.026 20.4555 11.8327 20.0672C11.7078 19.7818 11.6723 19.4662 11.7307 19.1608C11.7891 18.8554 11.9389 18.5741 12.1607 18.3528C12.6684 17.8312 13.4698 17.7446 14.1444 17.9578C15.3788 18.3481 15.9238 19.7409 15.6912 20.9225C15.4307 22.246 14.282 23.0964 12.974 23.3142C11.5516 23.551 10.1645 22.9602 9.17715 21.9666C7.10933 19.8858 6.93038 16.5344 8.32528 14.051C9.74036 11.5316 12.7589 10.1788 15.6341 10.6014C18.4772 11.0193 20.8186 13.2188 21.5482 15.9309C21.6403 16.2707 21.7055 16.6169 21.7433 16.9666C21.7456 17.0322 21.7671 17.0957 21.8051 17.1496C21.8431 17.2035 21.8961 17.2455 21.9577 17.2706C22.0193 17.2957 22.087 17.3028 22.1526 17.2912C22.2182 17.2795 22.2791 17.2495 22.3278 17.2048C24.7573 15.2202 28.798 15.4331 30.79 17.9297C31.7669 19.1541 32.0548 21.0554 30.914 22.2853C29.8277 23.4563 28.0238 23.4575 26.5402 23.3293C24.6423 23.1652 22.556 22.7795 20.8559 23.8787C20.4892 24.1159 20.8319 24.6995 21.2016 24.4604V24.4604Z" fill="#2F2E41"/>
<path d="M28.5676 68.7404H14.8702C14.5978 68.7401 14.3367 68.6336 14.1441 68.4441C13.9515 68.2547 13.8432 67.9978 13.8429 67.7299V63.2391C13.8432 62.9712 13.9515 62.7143 14.1441 62.5249C14.3367 62.3355 14.5978 62.2289 14.8702 62.2286H28.5676C28.84 62.2289 29.1011 62.3355 29.2937 62.5249C29.4863 62.7143 29.5946 62.9712 29.5949 63.2391V67.7299C29.5946 67.9978 29.4863 68.2547 29.2937 68.4441C29.1011 68.6336 28.84 68.7401 28.5676 68.7404Z" fill="#2F2E41"/>
<path d="M29.0357 46.5993C28.6068 44.4421 26.9412 42.7338 24.7794 42.0314C25.5601 41.7843 26.0564 41.4184 26.0564 41.0092C26.0564 40.2652 24.4211 39.662 22.4038 39.662C20.3865 39.662 18.7512 40.2652 18.7512 41.0092C18.7512 41.4244 19.261 41.7954 20.0615 42.0425C16.7472 43.0144 14.3416 45.8515 14.3416 49.1923C14.3416 49.1923 13.3214 55.6251 12.5203 60.7673C12.0079 64.0571 14.808 66.9975 18.452 66.9975H31.2679C32.1074 66.9975 32.7903 66.3748 32.7903 65.6092C32.7903 65.6092 30.4288 53.6067 29.0357 46.5993Z" fill="#2F2E41"/>
</svg>
