<svg width="94" height="84" viewBox="0 0 94 84" fill="none" xmlns="http://www.w3.org/2000/svg">
<g clip-path="url(#clip0_520_544)">
<path d="M43.1624 46.2158C43.1456 46.2158 43.135 46.2154 43.1313 46.2152L41.1214 46.2154V45.9279H43.1386C43.1853 45.9295 44.1381 45.9556 45.0161 44.9221C46.3244 43.3819 47.3988 39.5689 45.0874 30.151C41.9795 17.4873 44.5716 6.29964 45.8304 2.07742C45.8924 1.86853 45.9035 1.64851 45.8628 1.43474C45.8221 1.22098 45.7307 1.01932 45.5958 0.845716C45.461 0.672107 45.2864 0.531298 45.0858 0.434419C44.8852 0.337539 44.6641 0.287241 44.44 0.2875H14.4235C14.1953 0.287797 13.9704 0.340291 13.767 0.44072C13.5636 0.54115 13.3875 0.686688 13.253 0.865518C12.7198 1.57711 11.988 2.94413 11.5301 5.41594L11.2385 5.36513C11.7063 2.83962 12.4618 1.43237 13.0133 0.6965C13.1754 0.481018 13.3875 0.305649 13.6326 0.184632C13.8776 0.0636142 14.1486 0.000358052 14.4235 7.82288e-07H44.44C44.7101 -0.000251287 44.9764 0.0604166 45.2181 0.177211C45.4599 0.294006 45.6702 0.463727 45.8327 0.672967C45.9952 0.882206 46.1052 1.12523 46.1543 1.38284C46.2033 1.64045 46.1898 1.90558 46.1151 2.1573C44.8628 6.35762 42.2841 17.4872 45.3758 30.0845C47.7196 39.6348 46.5928 43.5304 45.2349 45.1166C44.3392 46.1628 43.3523 46.2158 43.1624 46.2158Z" fill="#696969"/>
<path d="M37.754 51.4626C37.7372 51.4626 37.7266 51.4622 37.7229 51.462L35.7131 51.4622V51.1747H37.7302C37.7772 51.1761 38.7298 51.2025 39.6077 50.169C40.916 48.6287 41.9905 44.8158 39.6791 35.3979C36.5711 22.7342 39.1633 11.5465 40.422 7.32425C40.484 7.11536 40.4951 6.89534 40.4544 6.68157C40.4137 6.4678 40.3223 6.26615 40.1875 6.09254C40.0526 5.91893 39.878 5.77812 39.6774 5.68125C39.4768 5.58437 39.2557 5.53407 39.0317 5.53433H9.01516C8.78695 5.53462 8.56203 5.58712 8.35865 5.68755C8.15528 5.78798 7.97917 5.93351 7.84463 6.11234C7.31141 6.82393 6.57965 8.19096 6.12176 10.6628L5.83008 10.612C6.29792 8.08644 7.05348 6.6792 7.60493 5.94333C7.767 5.72784 7.97916 5.55248 8.22418 5.43146C8.46921 5.31044 8.74021 5.24718 9.01516 5.24683H39.0317C39.3017 5.24657 39.5681 5.30724 39.8098 5.42404C40.0515 5.54083 40.2619 5.71055 40.4243 5.91979C40.5868 6.12903 40.6969 6.37206 40.7459 6.62967C40.7949 6.88727 40.7815 7.15241 40.7067 7.40412C39.4545 11.6044 36.8757 22.7341 39.9674 35.3313C42.3113 44.8817 41.1845 48.7772 39.8265 50.3635C38.9308 51.4097 37.9439 51.4626 37.754 51.4626Z" fill="#696969"/>
<path d="M32.3456 56.7095C32.3288 56.7095 32.3183 56.7091 32.3146 56.7089L2.76072 56.7091C2.47618 56.7094 2.1959 56.6421 1.9444 56.513C1.6929 56.3839 1.47784 56.197 1.31805 55.9686C1.15827 55.7402 1.05862 55.4773 1.02782 55.2028C0.997029 54.9284 1.03603 54.6509 1.14142 54.3945C2.21373 51.7954 3.65754 45.5598 1.27944 32.9989C-1.52867 18.1668 0.985339 12.8064 2.19655 11.1902C2.35862 10.9747 2.57078 10.7994 2.81581 10.6783C3.06085 10.5573 3.33185 10.4941 3.60681 10.4937H33.6233C33.8933 10.4935 34.1597 10.5541 34.4014 10.6709C34.6431 10.7877 34.8535 10.9574 35.016 11.1667C35.1784 11.3759 35.2885 11.6189 35.3375 11.8766C35.3865 12.1342 35.3731 12.3993 35.2983 12.651C34.0461 16.8513 31.4673 27.981 34.559 40.5782C36.9029 50.1286 35.7761 54.0241 34.4181 55.6104C33.5224 56.6565 32.5355 56.7095 32.3456 56.7095ZM3.60681 10.7812C3.37859 10.7815 3.15367 10.834 2.95028 10.9344C2.7469 11.0349 2.57079 11.1804 2.43624 11.3592C1.2475 12.9455 -1.21648 18.2243 1.57091 32.9469C3.8427 44.9462 2.74089 51.2913 1.41653 54.5013C1.32727 54.7131 1.29377 54.9431 1.31904 55.1706C1.34432 55.398 1.42757 55.6158 1.5613 55.8043C1.6939 55.9945 1.8726 56.1503 2.08172 56.258C2.29084 56.3656 2.52399 56.4218 2.76071 56.4216H32.3218C32.3685 56.4238 33.3214 56.4494 34.1993 55.4159C35.5077 53.8756 36.5821 50.0627 34.2707 40.6448C31.1627 27.981 33.7549 16.7934 35.0136 12.5711C35.0756 12.3622 35.0867 12.1422 35.046 11.9285C35.0053 11.7147 34.9139 11.513 34.7791 11.3394C34.6442 11.1658 34.4696 11.025 34.269 10.9281C34.0684 10.8313 33.8474 10.781 33.6233 10.7812H3.60681Z" fill="#3F3D56"/>
<path d="M28.5178 23.4312H4.9581C4.64371 23.4312 4.3422 23.31 4.1199 23.0943C3.89759 22.8787 3.77271 22.5862 3.77271 22.2812C3.77271 21.9762 3.89759 21.6837 4.1199 21.468C4.3422 21.2523 4.64371 21.1312 4.9581 21.1312H28.5178C28.8322 21.1312 29.1337 21.2523 29.356 21.468C29.5783 21.6837 29.7032 21.9762 29.7032 22.2812C29.7032 22.5862 29.5783 22.8787 29.356 23.0943C29.1337 23.31 28.8322 23.4312 28.5178 23.4312Z" fill="#08BEAB"/>
<path d="M28.5178 28.3187H4.9581C4.64371 28.3187 4.3422 28.1975 4.1199 27.9819C3.89759 27.7662 3.77271 27.4737 3.77271 27.1687C3.77271 26.8637 3.89759 26.5712 4.1199 26.3555C4.3422 26.1398 4.64371 26.0187 4.9581 26.0187H28.5178C28.8322 26.0187 29.1337 26.1398 29.356 26.3555C29.5783 26.5712 29.7032 26.8637 29.7032 27.1687C29.7032 27.4737 29.5783 27.7662 29.356 27.9819C29.1337 28.1975 28.8322 28.3187 28.5178 28.3187Z" fill="#CCCCCC"/>
<path d="M28.5178 33.2061H4.9581C4.64371 33.2061 4.3422 33.085 4.1199 32.8693C3.89759 32.6536 3.77271 32.3611 3.77271 32.0561C3.77271 31.7511 3.89759 31.4586 4.1199 31.243C4.3422 31.0273 4.64371 30.9061 4.9581 30.9061H28.5178C28.8322 30.9061 29.1337 31.0273 29.356 31.243C29.5783 31.4586 29.7032 31.7511 29.7032 32.0561C29.7032 32.3611 29.5783 32.6536 29.356 32.8693C29.1337 33.085 28.8322 33.2061 28.5178 33.2061Z" fill="#CCCCCC"/>
<path d="M30.2959 38.0936H6.73618C6.42179 38.0936 6.12028 37.9725 5.89797 37.7568C5.67567 37.5411 5.55078 37.2486 5.55078 36.9436C5.55078 36.6386 5.67567 36.3461 5.89797 36.1305C6.12028 35.9148 6.42179 35.7936 6.73618 35.7936H30.2959C30.6103 35.7936 30.9118 35.9148 31.1341 36.1305C31.3564 36.3461 31.4813 36.6386 31.4813 36.9436C31.4813 37.2486 31.3564 37.5411 31.1341 37.7568C30.9118 37.9725 30.6103 38.0936 30.2959 38.0936Z" fill="#CCCCCC"/>
<path d="M30.2959 42.9811H6.73618C6.42179 42.9811 6.12028 42.8599 5.89797 42.6443C5.67567 42.4286 5.55078 42.1361 5.55078 41.8311C5.55078 41.5261 5.67567 41.2336 5.89797 41.0179C6.12028 40.8023 6.42179 40.6811 6.73618 40.6811H30.2959C30.6103 40.6811 30.9118 40.8023 31.1341 41.0179C31.3564 41.2336 31.4813 41.5261 31.4813 41.8311C31.4813 42.1361 31.3564 42.4286 31.1341 42.6443C30.9118 42.8599 30.6103 42.9811 30.2959 42.9811Z" fill="#CCCCCC"/>
<path d="M16.0712 18.5437H4.9581C4.64371 18.5437 4.3422 18.4225 4.1199 18.2069C3.89759 17.9912 3.77271 17.6987 3.77271 17.3937C3.77271 17.0887 3.89759 16.7962 4.1199 16.5805C4.3422 16.3649 4.64371 16.2437 4.9581 16.2437H16.0712C16.3856 16.2437 16.6871 16.3649 16.9094 16.5805C17.1317 16.7962 17.2566 17.0887 17.2566 17.3937C17.2566 17.6987 17.1317 17.9912 16.9094 18.2069C16.6871 18.4225 16.3856 18.5437 16.0712 18.5437Z" fill="#08BEAB"/>
<path d="M14.6361 50.8617C14.8753 49.8792 15.999 49.5571 16.9178 49.5931C17.4982 49.6311 18.074 49.7195 18.6382 49.8572C19.2286 49.9854 19.8132 50.1371 20.3948 50.298C21.4615 50.5931 22.5171 50.95 23.6013 51.1807C24.5039 51.3728 25.4848 51.4854 26.3849 51.2203C27.2501 50.9654 27.9842 50.3396 28.2196 49.4745C28.4414 48.6592 28.1369 47.7678 27.3225 47.3952C26.5799 47.0554 25.6419 47.2282 25.2738 47.9966C24.8588 48.8629 25.2734 49.8077 25.9306 50.4346C26.3041 50.7748 26.7132 51.0763 27.1512 51.3341C27.5958 51.628 28.0907 51.843 28.6127 51.9691C29.4699 52.1468 30.491 51.885 30.9331 51.0905C31.0314 50.9107 31.0905 50.7132 31.1067 50.5102C31.1329 50.234 30.6882 50.2357 30.6622 50.5102C30.5873 51.3013 29.6323 51.6718 28.9181 51.5851C28.4361 51.5076 27.9757 51.3343 27.566 51.076C27.1706 50.8523 26.7958 50.5958 26.4461 50.3093C25.8404 49.8008 25.2726 48.964 25.6794 48.1704C26.0106 47.5243 26.8741 47.5307 27.3993 47.9474C28.0354 48.4521 27.922 49.3681 27.5025 49.9674C27.038 50.631 26.196 50.9091 25.4022 50.9391C24.5397 50.9717 23.6844 50.7797 22.8601 50.5526C21.8358 50.2704 20.8217 49.9546 19.7925 49.689C19.2082 49.5382 18.6195 49.4021 18.0246 49.2962C17.4622 49.1759 16.8845 49.1371 16.3103 49.181C15.3828 49.2849 14.4359 49.8088 14.2075 50.7471C14.1418 51.0169 14.5703 51.1321 14.6362 50.8617L14.6361 50.8617Z" fill="#3F3D56"/>
<path opacity="0.2" d="M60.0516 75.2443C60.0772 78.0748 60.2909 80.9008 60.6914 83.7046C60.7054 83.8031 60.7207 83.9015 60.7348 84L88.0585 83.8519C88.1387 83.7541 88.2177 83.6551 88.2942 83.555C88.5493 83.2236 88.7884 82.8827 89.0078 82.5301C90.0628 80.8314 90.5457 78.8425 90.0618 77.4703L90.0531 77.449C89.9486 77.1485 89.784 76.871 89.5687 76.6324C88.4652 75.4274 86.2342 75.6283 84.2096 76.6009C86.0255 74.6725 87.4715 72.2391 87.5814 70.0671C87.6891 67.9485 86.5472 66.435 85.3086 65.1488C85.268 65.1063 85.2274 65.065 85.1867 65.0236C85.167 65.0024 85.1461 64.9823 85.1264 64.961C84.1601 63.9809 83.0335 63.0146 81.4029 63.1315C79.6145 63.2599 77.6317 64.7132 76.2415 66.4066C74.8512 68.0988 73.9274 70.0212 72.991 71.8974C72.0533 73.7723 71.0389 75.6952 69.5343 77.2978C71.5722 74.7972 73.2152 71.9519 73.8222 69.1848C74.4291 66.4176 73.895 63.7599 72.0788 62.4566C71.5274 62.0732 70.8893 61.8234 70.218 61.7283C70.1397 61.7156 70.0601 61.7054 69.9792 61.6963C68.2979 61.5107 66.2905 62.0749 64.5825 63.4233C62.7015 64.9081 61.3975 67.1092 60.7486 69.1987C60.0998 71.2881 60.0307 73.2997 60.0516 75.2443Z" fill="#08BEAB"/>
<path d="M77.9283 83.9068L78.4508 83.904C78.6167 83.8033 78.7834 83.7039 78.9509 83.6056C79.0545 83.5421 79.1594 83.481 79.2643 83.4187C80.9974 82.3919 82.7413 81.4069 84.4961 80.4638C86.2492 79.52 88.0112 78.6196 89.782 77.7627C89.8289 77.7429 89.8672 77.7077 89.8902 77.6634C89.9132 77.619 89.9195 77.5682 89.9079 77.5198C89.906 77.5135 89.903 77.5075 89.8992 77.5021C89.8745 77.4571 89.8193 77.4384 89.7387 77.4768C89.5215 77.5825 89.303 77.6881 89.0859 77.7962C87.3102 78.6677 85.5422 79.5828 83.7819 80.5413C82.0227 81.4994 80.2736 82.4999 78.5344 83.5426C78.4979 83.5642 78.4613 83.5869 78.4247 83.6085C78.2588 83.7079 78.0942 83.8074 77.9283 83.9068Z" fill="white"/>
<path d="M71.1916 83.9432L71.5147 83.9415C71.5876 83.8426 71.6592 83.7436 71.7321 83.6447C73.4441 81.3155 75.1558 78.9864 76.8672 76.6573C79.6697 72.8441 82.4714 69.031 85.2723 65.2178C85.2889 65.1973 85.3013 65.1738 85.3087 65.1488C85.3326 65.0643 85.2687 65.0148 85.1868 65.0236C85.1522 65.0284 85.1191 65.0402 85.0897 65.0584C85.0602 65.0766 85.0351 65.1006 85.016 65.129C83.4448 67.2674 81.8739 69.405 80.3035 71.5418C77.5155 75.3359 74.728 79.1296 71.9408 82.9229C71.7635 83.1637 71.5863 83.4056 71.409 83.6464C71.3361 83.7454 71.2632 83.8443 71.1916 83.9432Z" fill="white"/>
<path d="M63.9939 82.1231C64.0104 82.6514 64.0464 83.1712 64.0935 83.6862C64.1026 83.7847 64.1117 83.8832 64.1208 83.9817L64.4598 83.9798C64.4495 83.8813 64.4391 83.7828 64.43 83.6844C64.3584 82.9403 64.3075 82.1879 64.3006 81.4151C64.2916 79.2723 64.5069 77.1343 64.9431 75.0338C65.4067 72.772 66.0724 70.5538 66.9327 68.4041C67.8356 66.1369 68.9242 63.9434 70.1881 61.8448C70.2119 61.8106 70.2225 61.7693 70.218 61.7283C70.204 61.6346 70.0754 61.6068 69.9792 61.6963C69.9602 61.7139 69.9439 61.734 69.9306 61.756C69.7743 62.0168 69.6207 62.2784 69.4701 62.5409C68.2528 64.6511 67.2109 66.8522 66.3543 69.1232C65.5384 71.2799 64.9177 73.5015 64.4994 75.7627C64.1076 77.8606 63.9382 79.9918 63.9939 82.1231Z" fill="white"/>
<path d="M30.9691 50.9639C30.9129 50.9185 30.8719 50.858 30.8511 50.79C30.8303 50.722 30.8307 50.6495 30.8523 50.5817C30.8738 50.5139 30.9156 50.4539 30.9723 50.4091C31.0291 50.3643 31.0982 50.3368 31.171 50.33C31.9791 50.2543 32.7948 50.3354 33.5703 50.5686L41.4703 52.9355C41.5725 52.9662 41.6676 53.0161 41.75 53.0823C41.8324 53.1486 41.9005 53.23 41.9505 53.3218C42.0004 53.4136 42.0313 53.514 42.0412 53.6174C42.0512 53.7208 42.0401 53.8251 42.0085 53.9243C41.9769 54.0235 41.9255 54.1157 41.8572 54.1956C41.7889 54.2755 41.705 54.3416 41.6104 54.3901C41.5157 54.4386 41.4122 54.4685 41.3056 54.4782C41.1991 54.4878 41.0916 54.477 40.9893 54.4464L33.0894 52.0795C32.3133 51.8478 31.5926 51.4686 30.9691 50.9639Z" fill="#3F3D56"/>
<path d="M63.3523 60.7963C63.1377 60.709 62.9454 60.5771 62.7891 60.4099C62.6327 60.2427 62.516 60.0443 62.4472 59.8286C62.3785 59.6129 62.3593 59.3852 62.391 59.1616C62.4228 58.9379 62.5047 58.7237 62.631 58.5341L61.2769 51.6641L64.7281 51.4031L64.9364 58.1229C65.2507 58.3499 65.4682 58.6808 65.5478 59.0529C65.6274 59.4251 65.5636 59.8127 65.3683 60.1422C65.173 60.4717 64.86 60.7203 64.4884 60.8409C64.1168 60.9614 63.7126 60.9456 63.3523 60.7963Z" fill="#FFB8B8"/>
<path d="M61.0638 57.2506L57.5487 41.3688C57.4044 40.7165 57.533 40.0353 57.9064 39.475C58.2798 38.9147 58.8673 38.5213 59.5397 38.3812C60.2121 38.2412 60.9143 38.366 61.4918 38.7283C62.0693 39.0905 62.4748 39.6604 62.6192 40.3127L66.1344 56.1944C66.1713 56.3621 66.1381 56.5372 66.0421 56.6812C65.9462 56.8253 65.7952 56.9265 65.6225 56.9627L61.8558 57.7473C61.7701 57.7652 61.6817 57.7665 61.5956 57.7512C61.5095 57.7359 61.4273 57.7043 61.3537 57.6582C61.2802 57.612 61.2167 57.5523 61.167 57.4824C61.1172 57.4125 61.0822 57.3337 61.0638 57.2506Z" fill="#08BEAB"/>
<path d="M55.2943 82.2339H53.4778L52.6135 75.4363L55.2947 75.4364L55.2943 82.2339Z" fill="#FFB8B8"/>
<path d="M52.1802 81.7303H55.6836V83.8703H49.9743C49.9743 83.5893 50.0314 83.311 50.1422 83.0514C50.2531 82.7918 50.4155 82.5559 50.6204 82.3571C50.8252 82.1584 51.0684 82.0008 51.336 81.8932C51.6036 81.7857 51.8905 81.7303 52.1802 81.7303Z" fill="#2F2E41"/>
<path d="M61.3694 82.0902H59.5529L58.6886 75.2926L61.3699 75.2927L61.3694 82.0902Z" fill="#FFB8B8"/>
<path d="M58.2553 81.5865H61.7587V83.7265H56.0494C56.0494 83.4455 56.1065 83.1672 56.2174 82.9076C56.3282 82.648 56.4907 82.4121 56.6955 82.2133C56.9003 82.0146 57.1435 81.857 57.4111 81.7494C57.6788 81.6419 57.9656 81.5865 58.2553 81.5865Z" fill="#2F2E41"/>
<path d="M53.1178 80.9659C53.0497 80.9117 52.9935 80.8448 52.9523 80.7692C52.9112 80.6936 52.8861 80.6108 52.8783 80.5257L50.7665 57.9887C50.7583 57.9012 50.7685 57.8131 50.7966 57.7296C50.8247 57.646 50.87 57.569 50.9298 57.503C50.9896 57.437 51.0626 57.3836 51.1444 57.3459C51.2262 57.3082 51.3151 57.287 51.4055 57.2837L61.997 56.8984C62.0887 56.8951 62.1801 56.9102 62.2655 56.9427C62.3508 56.9752 62.4284 57.0244 62.4933 57.0873C62.5582 57.1502 62.609 57.2254 62.6425 57.3082C62.6761 57.391 62.6917 57.4796 62.6884 57.5686L61.8417 80.0189C61.8355 80.176 61.7706 80.3256 61.6591 80.4398C61.5476 80.554 61.3972 80.6249 61.2358 80.6394L59.1001 80.8278C59.0116 80.8356 58.9223 80.8261 58.8376 80.8C58.7528 80.7738 58.6744 80.7315 58.6067 80.6755C58.5391 80.6194 58.4837 80.5509 58.4439 80.4738C58.404 80.3967 58.3804 80.3126 58.3745 80.2265L57.3944 65.9642C57.3937 65.9368 57.3874 65.9098 57.3758 65.8847C57.3643 65.8597 57.3477 65.8372 57.327 65.8185C57.3064 65.7998 57.2821 65.7852 57.2556 65.7757C57.2292 65.7662 57.201 65.7618 57.1727 65.763H57.1718C57.1435 65.7619 57.1152 65.7663 57.0887 65.776C57.0622 65.7857 57.0379 65.8004 57.0173 65.8193C56.9967 65.8382 56.9802 65.8609 56.9687 65.886C56.9573 65.9112 56.9512 65.9383 56.9507 65.9658L56.0736 80.3244C56.0648 80.4781 55.9996 80.6237 55.8896 80.7348C55.7797 80.8458 55.6324 80.915 55.4744 80.9297L53.6087 81.1108C53.5211 81.1195 53.4325 81.1112 53.3482 81.0863C53.2639 81.0615 53.1856 81.0205 53.1178 80.9659H53.1178Z" fill="#2F2E41"/>
<path d="M57.1919 35.0064C59.2019 35.0064 60.8312 33.4257 60.8312 31.4758C60.8312 29.5259 59.2019 27.9451 57.1919 27.9451C55.182 27.9451 53.5526 29.5259 53.5526 31.4758C53.5526 33.4257 55.182 35.0064 57.1919 35.0064Z" fill="#FFB8B8"/>
<path d="M50.1835 58.1414C50.1187 58.07 50.0711 57.9855 50.0441 57.894C50.0171 57.8025 50.0115 57.7064 50.0275 57.6125C50.6994 53.6506 50.3207 47.8269 49.8847 43.6391C49.7709 42.5282 49.9608 41.4078 50.4353 40.3908C50.9098 39.3737 51.6522 38.4959 52.5876 37.8457L54.4882 36.2653C54.6145 36.1615 54.7757 36.1062 54.9412 36.1098L59.663 36.2406C59.8332 36.2451 59.9952 36.3129 60.1154 36.43L60.845 37.9975L60.8526 38.0028C61.722 38.6228 62.4195 39.4422 62.8828 40.3877C63.346 41.3331 63.5605 42.3752 63.5071 43.4208L62.8121 57.3554C62.8032 57.5174 62.7322 57.6703 62.613 57.7842C62.4938 57.898 62.3351 57.9645 62.168 57.9707L50.7071 58.3613C50.6997 58.3615 50.6923 58.3616 50.6849 58.3616C50.59 58.3618 50.4961 58.3422 50.4096 58.3042C50.3232 58.2662 50.2461 58.2107 50.1835 58.1414Z" fill="#08BEAB"/>
<path d="M36.4365 52.3265C36.4308 52.1008 36.4762 51.8767 36.5694 51.6698C36.6627 51.463 36.8015 51.2785 36.9762 51.1293C37.1509 50.9802 37.3572 50.87 37.5805 50.8066C37.8039 50.7431 38.0388 50.728 38.2688 50.7622L44.1758 46.7518L45.8339 49.6998L39.5991 52.6345C39.5143 53.0056 39.2922 53.3336 38.9747 53.5564C38.6573 53.7792 38.2666 53.8813 37.8768 53.8433C37.487 53.8053 37.125 53.63 36.8596 53.3504C36.5941 53.0708 36.4436 52.7065 36.4365 52.3265L36.4365 52.3265Z" fill="#FFB8B8"/>
<path d="M41.4076 53.0236C41.3209 53.011 41.2378 52.9818 41.1629 52.9377C41.088 52.8937 41.0228 52.8357 40.9711 52.767L38.6915 49.754C38.5871 49.6156 38.5435 49.4427 38.5703 49.2732C38.5971 49.1037 38.6921 48.9514 38.8345 48.8497L52.3324 39.2381C52.8868 38.8434 53.5802 38.6784 54.26 38.7796C54.5966 38.8297 54.9197 38.9436 55.2109 39.1148C55.5021 39.2861 55.7557 39.5113 55.9572 39.7776C56.1587 40.0439 56.3041 40.3462 56.3852 40.667C56.4663 40.9879 56.4815 41.3211 56.4299 41.6476C56.3782 41.9742 56.2608 42.2876 56.0843 42.5701C55.9078 42.8527 55.6756 43.0987 55.4011 43.2942L41.9032 52.9057C41.7894 52.9872 41.6516 53.0312 41.5101 53.0312C41.4758 53.0312 41.4415 53.0287 41.4076 53.0236Z" fill="#08BEAB"/>
<path d="M57.3782 34.6188C57.8609 34.0447 57.808 33.1702 57.4207 32.5318C57.0333 31.8934 56.3758 31.4537 55.6992 31.1103C55.0226 30.7669 54.3038 30.4968 53.667 30.0879C53.0303 29.6789 53.0581 27.9478 52.8885 27.2255L53.2929 27.3561C53.1375 27.1633 53.0876 26.5933 52.9322 26.4004C53.3891 26.4442 53.7405 26.8651 54.1974 26.9089L53.9337 26.2223C55.5006 26.1285 56.4747 27.1848 58.0416 27.0911C58.8179 27.0447 59.661 27.0153 60.2992 27.4466C60.8538 27.8214 61.1345 28.4702 61.3187 29.1011C61.7142 30.4556 61.7757 31.973 61.0926 33.2151C60.4095 34.4573 58.8349 35.2943 57.4593 34.8458L57.3782 34.6188Z" fill="#2F2E41"/>
<path d="M37.3974 83.9497H93.8518C93.8911 83.9497 93.9288 83.9346 93.9566 83.9076C93.9844 83.8807 94 83.8441 94 83.806C94 83.7679 93.9844 83.7313 93.9566 83.7043C93.9288 83.6774 93.8911 83.6622 93.8518 83.6622H37.3974C37.3581 83.6622 37.3204 83.6774 37.2926 83.7043C37.2648 83.7313 37.2492 83.7679 37.2492 83.806C37.2492 83.8441 37.2648 83.8807 37.2926 83.9076C37.3204 83.9346 37.3581 83.9497 37.3974 83.9497Z" fill="#3F3D56"/>
</g>
<defs>
<clipPath id="clip0_520_544">
<rect width="94" height="84" fill="white"/>
</clipPath>
</defs>
</svg>
