<svg width="22" height="22" viewBox="0 0 22 22" fill="none" xmlns="http://www.w3.org/2000/svg">
<path d="M0 2.75C0 2.02065 0.289731 1.32118 0.805456 0.805456C1.32118 0.289731 2.02065 0 2.75 0L13.75 0C14.4793 0 15.1788 0.289731 15.6945 0.805456C16.2103 1.32118 16.5 2.02065 16.5 2.75V5.5H19.25C19.9793 5.5 20.6788 5.78973 21.1945 6.30546C21.7103 6.82118 22 7.52065 22 8.25V19.25C22 19.9793 21.7103 20.6788 21.1945 21.1945C20.6788 21.7103 19.9793 22 19.25 22H8.25C7.52065 22 6.82118 21.7103 6.30546 21.1945C5.78973 20.6788 5.5 19.9793 5.5 19.25V16.5H2.75C2.02065 16.5 1.32118 16.2103 0.805456 15.6945C0.289731 15.1788 0 14.4793 0 13.75V2.75ZM6.875 16.5V19.25C6.875 19.6147 7.01987 19.9644 7.27773 20.2223C7.53559 20.4801 7.88533 20.625 8.25 20.625H19.25C19.6147 20.625 19.9644 20.4801 20.2223 20.2223C20.4801 19.9644 20.625 19.6147 20.625 19.25V8.25C20.625 7.88533 20.4801 7.53559 20.2223 7.27773C19.9644 7.01987 19.6147 6.875 19.25 6.875H16.5V13.75C16.5 14.4793 16.2103 15.1788 15.6945 15.6945C15.1788 16.2103 14.4793 16.5 13.75 16.5H6.875ZM15.125 5.5V2.75C15.125 2.38533 14.9801 2.03559 14.7223 1.77773C14.4644 1.51987 14.1147 1.375 13.75 1.375H2.75C2.38533 1.375 2.03559 1.51987 1.77773 1.77773C1.51987 2.03559 1.375 2.38533 1.375 2.75V13.75C1.375 14.1147 1.51987 14.4644 1.77773 14.7223C2.03559 14.9801 2.38533 15.125 2.75 15.125H5.5V8.25C5.5 7.52065 5.78973 6.82118 6.30546 6.30546C6.82118 5.78973 7.52065 5.5 8.25 5.5H15.125Z" fill="#08BEAB"/>
</svg>
