<svg width="22" height="22" viewBox="0 0 22 22" fill="none" xmlns="http://www.w3.org/2000/svg">
<path d="M3.4375 18.5625C3.4375 18.3802 3.50993 18.2053 3.63886 18.0764C3.7678 17.9474 3.94266 17.875 4.125 17.875H17.875C18.0573 17.875 18.2322 17.9474 18.3611 18.0764C18.4901 18.2053 18.5625 18.3802 18.5625 18.5625C18.5625 18.7448 18.4901 18.9197 18.3611 19.0486C18.2322 19.1776 18.0573 19.25 17.875 19.25H4.125C3.94266 19.25 3.7678 19.1776 3.63886 19.0486C3.50993 18.9197 3.4375 18.7448 3.4375 18.5625ZM2.75 2.75H19.25C19.25 2.75 22 2.75 22 5.5V13.75C22 13.75 22 16.5 19.25 16.5H2.75C2.75 16.5 0 16.5 0 13.75V5.5C0 5.5 0 2.75 2.75 2.75Z" fill="#08BEAB"/>
</svg>
